<svg width="218" height="153" viewBox="0 0 218 153" fill="none" xmlns="http://www.w3.org/2000/svg">
<path d="M122.384 42.5483C121.876 35.0922 120.665 27.5862 121.088 20.1811C121.37 15.2187 123.395 10.1426 125.641 5.60544C127.887 1.06833 132.146 -1.04542 137.44 0.503847C141.033 2.38227 144.641 4.30688 148.235 6.1853C151.677 9.10795 153.564 12.8984 154.389 17.3441C154.78 18.8983 155.186 20.4219 155.577 21.9761C156.917 21.1533 158.257 20.3305 159.597 19.5076C163.913 16.6104 168.561 15.0827 173.791 15.7095C176.581 17.1381 179.371 18.5666 182.208 19.98C186.963 25.1225 187.006 30.8704 183.916 36.7555C181.768 40.8782 179.45 45.0307 176.576 48.6271C167.205 60.3497 156.179 70.3731 144.205 79.3311C140.178 82.3374 135.941 83.8827 131.991 79.1132C133.49 76.7083 134.959 74.2879 136.458 71.883C150.051 64.0246 160.485 52.615 170.438 40.7264C172.782 37.9417 174.389 34.3541 175.735 30.9033C176.274 29.4769 175.826 26.5393 174.841 25.9194C173.161 24.8655 170.268 24.2356 168.608 25.0107C165.749 26.3326 163.424 28.8561 160.891 30.8867C158.359 32.9174 155.947 35.0869 153.234 36.8707C151.369 38.1211 147.97 36.5357 147.695 34.3059C147.212 30.615 147.616 26.7598 146.748 23.2206C145.795 19.2506 144.432 15.1095 142.141 11.8087C139.025 7.35094 132.977 8.54857 131.074 13.61C130.235 15.7725 129.501 18.1046 129.362 20.3937C128.915 27.3991 128.726 34.4213 128.478 41.4124C126.487 41.7862 124.481 42.1905 122.49 42.5643L122.384 42.5483Z" fill="#E37378"/>
<path d="M136.397 71.852C134.898 74.2568 133.429 76.6773 131.93 79.0822C131.028 78.0785 129.757 77.1958 129.254 76.0098C124.59 65.3814 122.177 54.2423 122.384 42.5483C124.374 42.1746 126.38 41.7702 128.341 41.381C129.461 48.7635 130.642 56.1771 131.67 63.5898C132.142 67.004 133.477 69.8541 136.321 71.8515L136.397 71.852Z" fill="#E3ACAB"/>
<path d="M137.44 0.503847C141.033 2.38227 144.641 4.30688 148.235 6.1853C145.927 1.87013 142.303 -0.0238235 137.44 0.503847Z" fill="#E3ACAB"/>
<path d="M159.567 19.4921C158.227 20.3149 156.887 21.1378 155.547 21.9606C155.156 20.4064 154.749 18.8828 154.358 17.3286C156.089 18.06 157.79 18.7758 159.536 19.4766L159.567 19.4921Z" fill="#E3ACAB"/>
<path d="M182.163 19.9183C179.372 18.4898 176.582 17.0612 173.746 15.6478C177.54 15.1145 180.362 16.4818 182.163 19.9183Z" fill="#E3ACAB"/>
<path d="M136.397 71.852C133.523 69.839 132.218 67.0044 131.746 63.5903C130.688 56.1619 129.521 48.7945 128.417 41.3814C128.712 34.3751 128.854 27.3681 129.317 20.3319C129.456 18.0428 130.221 15.7263 131.029 13.5483C132.962 8.50239 138.98 7.28923 142.096 11.747C144.402 15.0171 145.72 19.1734 146.703 23.1589C147.571 26.6981 147.167 30.5533 147.65 34.2442C147.925 36.474 151.324 38.0594 153.189 36.809C155.871 35.0097 158.283 32.8401 160.846 30.825C163.379 28.7944 165.704 26.2709 168.563 24.9489C170.253 24.1894 173.116 24.8038 174.797 25.8577C175.781 26.4776 176.229 29.4152 175.69 30.8416C174.345 34.2924 172.753 37.8494 170.393 40.6647C160.44 52.5532 150.006 63.9629 136.413 71.8213L136.397 71.852Z" fill="#E3E3EB"/>
<path d="M150.983 150.042C146.97 150.089 142.933 149.972 138.92 150.229C137.156 150.346 135.44 151.21 133.723 151.747C126.763 151.84 119.78 151.933 112.821 152.027C108.993 152.027 105.188 152.027 101.361 152.004C96.9295 151.91 92.4986 151.84 88.0908 151.747C86.0493 151.21 84.031 150.369 81.9663 150.206C78.2776 149.949 74.5426 150.089 70.8308 150.066C61.9224 148.758 53.014 147.451 44.1057 146.144C41.5538 145.513 39.0251 144.883 36.4732 144.253C27.1473 140.587 17.7517 137.109 9.8177 130.665C9.21452 130.058 8.61135 129.451 7.98498 128.844C6.45386 126.416 4.92273 124.011 3.3684 121.607C-0.389817 115.887 -0.413016 109.443 0.491741 103.07C1.62849 95.1553 10.1889 87.521 18.3549 86.7039C21.8115 86.3537 25.2914 86.3771 29.212 86.1903C29.7455 84.2759 30.5111 82.5483 30.6735 80.7506C31.8102 68.1903 40.6258 61.2098 52.5501 61.6066C56.9578 61.7467 61.4352 62.0502 65.727 63.0308C70.0884 64.0347 73.3131 63.0775 75.5402 59.342C78.5792 54.2059 82.9174 50.774 88.1604 48.0891C98.8783 42.5794 109.689 42.8829 120.337 47.5288C126.137 50.0502 131.148 54.1592 135.208 59.1786C136.182 60.3926 137.133 61.63 138.363 63.2409C140.567 62.6806 142.724 62.3304 144.719 61.5366C148.663 60.0191 152.723 59.5989 156.875 59.7156C169.032 59.9957 178.033 66.8596 181.49 78.5794C181.93 80.0736 182.348 81.5911 182.928 83.6922C186.524 84.5794 190.119 85.7234 193.808 86.3537C207.171 88.6417 215.638 95.9257 217.958 109.7C217.912 111.614 217.842 113.529 217.796 115.443C216.149 122.027 212.854 127.583 207.843 132.136C206.475 133.373 205.454 135.007 204.271 136.455V136.432C199.631 138.299 195.13 140.681 190.351 141.918C179.471 144.719 168.637 147.988 157.223 148.268C155.112 148.315 153.048 149.389 150.937 149.996L150.983 150.042ZM176.432 90.9996C176.2 88.2214 176.084 85.7 175.783 83.202C174.135 70.0113 160.263 61.9101 147.99 66.9996C145.949 67.8401 143.977 68.914 142.005 69.9413C139.082 71.4821 136.484 71.0619 134.233 68.6806C132.934 67.3031 131.496 65.9257 130.568 64.2915C127.436 58.6884 122.425 55.5599 116.857 52.9218C101.987 45.9179 85.4925 52.0113 78.672 67.1397C75.7953 73.5366 75.0298 73.8168 68.7197 70.9685C67.8613 70.5716 67.003 70.128 66.1446 69.7078C59.4865 66.2992 52.7125 66.6494 45.8224 68.9607C43.2705 69.8245 41.345 71.202 39.9995 73.5366C37.3316 78.1358 35.7541 82.4782 38.6075 87.9179C41.113 92.7039 38.8859 95.0152 33.4574 94.0347C31.903 93.7545 30.4183 93.1008 28.8872 92.7506C24.0154 91.6533 19.3292 92.7039 15.0142 94.8051C11.5344 96.5094 8.49536 99.1475 7.93859 103.28C6.82504 111.474 7.7298 118.969 14.3183 125.249C21.5099 132.089 30.0703 136.035 39.3731 138.299C47.3535 140.237 55.5427 141.264 63.6623 142.595C79.6464 145.233 95.7232 146.447 111.916 146.097C116.37 146.004 120.801 146.097 125.255 146.027C127.482 146.004 129.71 145.957 131.913 145.653C144.464 143.972 156.945 141.801 169.542 140.657C177.963 139.887 185.688 137.179 193.275 134.05C197.52 132.299 201.464 129.077 204.735 125.716C215.082 115.186 212.182 100.362 198.935 94.1747C195.664 92.6339 192.3 92.237 188.774 92.1436C185.039 92.0502 181.188 93.0074 176.455 90.9296L176.432 90.9996Z" fill="#A7C5C7"/>
<path d="M176.432 90.9996C181.142 93.0775 184.993 92.1203 188.751 92.2136C192.277 92.307 195.641 92.7039 198.912 94.2448C212.135 100.432 215.058 115.256 204.712 125.786C201.417 129.124 197.497 132.346 193.251 134.12C185.689 137.249 177.94 139.957 169.519 140.727C156.922 141.871 144.441 144.042 131.89 145.723C129.686 146.027 127.459 146.05 125.232 146.097C120.778 146.167 116.347 146.074 111.893 146.167C95.7 146.517 79.6 145.326 63.6391 142.665C55.5195 141.311 47.3303 140.307 39.3499 138.369C30.0471 136.105 21.5099 132.159 14.2951 125.319C7.7066 119.062 6.80184 111.568 7.91539 103.35C8.47216 99.2175 11.5112 96.5561 14.991 94.8751C19.3292 92.774 23.9922 91.7234 28.864 92.8207C30.4183 93.1708 31.8798 93.8245 33.4342 94.1047C38.8627 95.0852 41.0898 92.774 38.5843 87.988C35.7309 82.5483 37.3084 78.2059 39.9763 73.6066C41.345 71.272 43.2473 69.8946 45.7992 69.0308C52.6893 66.7195 59.4633 66.3926 66.1214 69.7778C66.9798 70.2214 67.8149 70.665 68.6965 71.0385C75.0066 73.8868 75.7722 73.5833 78.6488 67.2098C85.4925 52.0813 101.964 45.988 116.834 52.9919C122.402 55.6066 127.413 58.7584 130.545 64.3615C131.449 65.9957 132.888 67.3732 134.21 68.7506C136.46 71.1086 139.059 71.5522 141.982 70.0113C143.954 68.9841 145.926 67.9101 147.967 67.0697C160.239 61.9802 174.112 70.0813 175.759 83.272C176.061 85.7701 176.2 88.2915 176.409 91.0697L176.432 90.9996ZM117.298 115.677C118.412 114.183 118.667 112.805 116.765 111.708C114.468 111.264 113.633 112.782 112.45 114.416C110.06 117.731 108.715 117.755 105.536 115.35C104.121 114.299 103.425 112.035 100.386 112.805C100.386 113.786 100.038 115.07 100.456 116.027C101.964 119.529 104.817 121.326 108.575 121.443C112.774 121.56 115.837 119.809 117.298 115.677ZM144.998 111.451C144.928 108.089 142.562 106.081 139.94 106.362C138.061 106.548 136.321 108.486 136.553 110.12C136.901 112.548 139.569 115.14 141.657 114.439C143.119 113.949 144.162 112.245 144.998 111.451ZM124.815 102.79C128.178 101.389 131.032 99.521 133.7 102.766C133.885 102.976 134.257 103.21 134.512 103.163C135.069 103.093 135.788 103.023 136.112 102.673C136.46 102.276 136.692 101.389 136.484 100.992C134.767 97.63 132.215 96.0891 128.967 96.6494C126.276 97.1164 124.374 98.5172 124.791 102.813L124.815 102.79ZM92.6145 102.976C93.9137 99.4977 92.4289 97.7 90.2715 97.023C88.2995 96.3926 85.9101 96.3693 83.8686 96.8129C82.0823 97.1864 80.4583 98.5638 81.7575 100.969C85.4384 100.657 89.0651 101.326 92.6377 102.976H92.6145ZM80.3191 111.101C80.0871 108.813 78.092 107.365 75.7258 107.856C74.0554 108.206 73.0115 109.256 73.0579 111.031C73.1043 113.272 75.0762 115.023 77.3033 114.976C79.1128 114.93 80.5279 113.109 80.3191 111.101Z" fill="#E6E8EF"/>
<path d="M117.298 115.677C115.837 119.809 112.774 121.56 108.575 121.443C104.794 121.326 101.964 119.529 100.456 116.027C100.038 115.07 100.386 113.809 100.386 112.805C103.425 112.035 104.121 114.276 105.536 115.35C108.715 117.755 110.06 117.731 112.45 114.416C113.633 112.758 114.468 111.264 116.765 111.708C116.95 113.039 117.113 114.346 117.298 115.677Z" fill="#86959D"/>
<path d="M144.998 111.474C144.162 112.268 143.119 113.972 141.657 114.463C139.546 115.163 136.901 112.572 136.553 110.144C136.321 108.509 138.061 106.572 139.94 106.385C142.562 106.105 144.928 108.112 144.998 111.474Z" fill="#E3ACAB"/>
<path d="M124.791 102.79C124.374 98.4938 126.276 97.093 128.967 96.6261C132.215 96.0658 134.767 97.6066 136.484 100.969C136.692 101.389 136.46 102.276 136.112 102.649C135.788 103.023 135.069 103.07 134.512 103.14C134.257 103.163 133.862 102.953 133.7 102.743C131.032 99.4977 128.155 101.365 124.815 102.766L124.791 102.79Z" fill="#A7C5C7"/>
<path d="M92.5913 102.976C89.0187 101.311 85.392 100.642 81.7111 100.969C80.4351 98.5638 82.0591 97.1864 83.8222 96.8129C85.8637 96.3693 88.2532 96.3926 90.2251 97.023C92.4058 97.7 93.8905 99.4977 92.5682 102.976H92.5913Z" fill="#A7C5C7"/>
<path d="M80.2959 111.101C80.5047 113.109 79.0896 114.93 77.2801 114.976C75.053 115.046 73.1043 113.272 73.0347 111.031C72.9883 109.233 74.0554 108.183 75.7026 107.856C78.0688 107.365 80.0639 108.836 80.2959 111.101Z" fill="#E3ACAB"/>
<path d="M116.765 111.708C116.95 113.039 117.113 114.346 117.298 115.677C118.412 114.183 118.667 112.805 116.765 111.708Z" fill="#A7C5C7"/>
</svg>
