<svg width="245" height="382" viewBox="0 0 245 382" fill="none" xmlns="http://www.w3.org/2000/svg">
<path d="M68.7393 285.178C68.8307 284.351 68.9151 283.492 69.0065 282.665C68.1794 280.858 67.3593 279.084 66.5322 277.277C65.8485 276.449 65.1647 275.621 64.4809 274.793C64.2331 275.519 63.9921 276.277 63.7765 276.996C64.1563 280.48 63.8258 284.42 68.7324 285.146L68.7393 285.178ZM58.6084 268.018C59.7377 267.943 60.8739 267.9 61.971 267.832C62.6765 267.041 64.1523 265.916 63.9726 265.551C62.9336 263.386 61.5291 261.401 60.2786 259.35C59.0261 260.73 57.7736 262.109 56.528 263.521C55.72 265.714 56.5676 267.146 58.6406 268.011L58.6084 268.018ZM329.077 352.989C326.952 355.634 324.715 357.293 324.158 359.398C323.564 361.645 325.591 363.394 328.108 363.66C331.206 363.968 333.686 360.776 332.784 357.371C332.422 356.003 330.85 354.962 329.109 352.982L329.077 352.989ZM47.5497 209.953C45.5893 211.956 44.9011 214.392 46.3659 216.969C46.9094 217.928 48.495 219.033 49.3643 218.846C50.2335 218.659 51.3088 217.081 51.4483 216.009C51.8028 213.275 51.3385 210.65 47.5497 209.953ZM52.2826 169.207C53.373 166.449 54.2824 164.571 54.803 162.609C54.9315 162.11 53.9531 161.009 53.2514 160.723C52.5888 160.462 51.2227 160.689 50.9194 161.158C50.0626 162.655 49.2083 164.319 49.0647 165.998C48.9847 166.721 50.5862 167.588 52.2503 169.214L52.2826 169.207ZM92.1388 335.472C92.817 335.023 93.9806 334.638 94.0952 334.075C94.6791 330.686 91.9853 327.095 88.6224 326.811C88.0014 326.743 86.8565 327.527 86.7167 328.129C85.898 331.367 88.518 334.772 92.1388 335.472ZM72.0944 293.403C67.6299 296.45 69.5731 299.059 71.7438 301.316C72.3998 302.015 74.4334 302.385 75.0724 301.911C75.8586 301.338 76.4114 299.369 75.9991 298.549C75.0938 296.692 73.4896 295.188 72.0944 293.403ZM173.748 66.5167C170.201 66.0025 168.19 65.4265 166.242 65.6106C165.545 65.6598 164.342 67.7355 164.554 68.5644C165.209 70.9798 167.268 72.2517 169.664 71.3319C170.936 70.8226 171.698 69.0438 173.755 66.5489L173.748 66.5167ZM93.6514 104.76C91.999 103.501 91.1288 102.276 90.0867 102.13C87.8922 101.795 85.9666 104.43 86.8768 106.622C87.2317 107.488 89.1715 108.517 89.8199 108.242C91.1742 107.648 92.1483 106.227 93.6584 104.792L93.6514 104.76ZM97.0133 342.461C96.3812 342.968 95.3925 343.382 95.2274 344.023C94.5188 346.833 95.4314 349.193 98.2428 350.202C99.0481 350.5 101 349.709 101.23 349.054C102.258 346.007 99.8171 342.497 97.0202 342.494L97.0133 342.461ZM49.6039 179.606C49.1227 178.936 48.7401 177.942 48.0844 177.713C47.507 177.535 46.0239 178.157 45.9966 178.499C45.8574 180.043 46.0679 181.646 46.2393 183.224C46.2739 183.384 47.2793 183.672 47.3229 183.562C48.1246 182.279 48.8735 180.907 49.6039 179.606ZM156.603 75.2891C157.8 73.1813 159.172 71.5738 158.881 71.1654C158.05 69.9653 156.522 69.2852 155.257 68.4142C154.6 69.4303 153.241 70.6311 153.433 71.3635C153.806 72.6285 155.171 73.6465 156.61 75.3212L156.603 75.2891ZM52.0565 235.724C52.7278 235.243 53.7948 234.879 53.9921 234.231C54.7333 231.885 53.1442 229.2 51.1041 229.269C50.4003 229.286 49.3519 230.05 49.1546 230.698C48.3813 233.051 49.9288 235.543 52.0496 235.692L52.0565 235.724ZM147.223 74.7531C145.61 73.9905 144.524 73.0135 143.654 73.2007C142.753 73.3949 142.087 74.6821 141.285 75.494C142.191 76.106 143.144 77.2462 144.009 77.1945C144.906 77.1358 145.722 75.9173 147.184 74.7278L147.223 74.7531ZM54.3356 241.456C53.1458 243.596 52.1713 244.546 52.1215 245.566C52.001 247.509 53.1476 249.079 55.2428 248.796C56.0293 248.694 57.316 247.004 57.1568 246.264C56.8521 244.85 55.7173 243.648 54.3287 241.424L54.3356 241.456ZM100.252 101.151C100.723 99.7381 101.076 98.7201 101.423 97.67C100.346 97.3637 99.062 96.5639 98.1882 96.8866C97.4432 97.1816 97.1292 98.6957 96.6331 99.6771C97.6661 100.094 98.7383 100.536 100.252 101.151ZM297.828 119.075C297.28 121.379 296.476 122.965 296.902 123.378C297.859 124.383 299.403 124.824 300.691 125.488C300.972 124.755 301.668 123.764 301.403 123.317C300.661 122.063 299.529 121.029 297.828 119.075ZM80.8107 310.564C79.3931 312.585 78.053 313.715 78.2559 314.344C78.7101 315.827 79.8151 317.204 80.9614 318.302C81.1778 318.525 83.771 316.957 83.6835 316.707C83.1278 314.909 82.1606 313.234 80.8429 310.557L80.8107 310.564ZM133.598 82.6662C134.271 80.9404 134.714 79.8693 135.118 78.7731C134.384 78.4939 133.346 77.742 132.93 77.9998C132.008 78.5684 131.358 79.6167 130.602 80.486C131.444 81.1118 132.28 81.7056 133.566 82.6731L133.598 82.6662ZM46.69 201.426C47.5253 198.891 48.3752 197.362 48.3924 195.879C48.3942 195.105 46.8204 194.367 45.9757 193.574C45.2522 194.907 44.1859 196.213 43.9869 197.635C43.8886 198.43 45.2211 199.455 46.69 201.426ZM68.0233 137.493C67.3507 136.091 66.9914 135.361 66.6389 134.663C65.3767 135.372 63.9833 135.941 62.9766 136.898C62.7214 137.121 63.7715 138.712 64.2115 139.66C65.5059 138.944 66.7933 138.195 68.0233 137.493ZM124.562 85.7564C123.786 84.8135 123.293 84.2468 122.794 83.648C122.049 84.4139 121.148 85.079 120.599 85.9709C120.472 86.1663 121.695 87.6185 121.913 87.5378C122.87 87.13 123.654 86.3893 124.562 85.7564ZM61.0751 150.124C60.2668 148.717 60.0061 147.663 59.4608 147.478C57.4363 146.837 56.4666 148.123 56.3116 149.905C56.2752 150.519 57.1525 151.776 57.2813 151.748C58.5415 151.342 59.76 150.743 61.0821 150.156L61.0751 150.124ZM83.0757 114.001C82.6015 113.363 82.1982 112.272 81.6737 112.183C81.0848 112.108 80.3218 112.946 79.6688 113.355C80.2744 114.133 80.8799 114.911 81.4854 115.689C82.0002 115.107 82.554 114.55 83.0688 113.968L83.0757 114.001ZM71.794 126.219C72.4652 125.738 73.493 125.349 73.7295 124.726C73.9153 124.181 73.1925 123.328 72.8976 122.584C72.0539 123.203 71.178 123.829 70.3275 124.416C70.827 125.015 71.3265 125.614 71.8261 126.213L71.794 126.219Z" fill="#E6E8EF"/>
<path d="M188.865 22.054C191.477 24.485 194.489 25.4845 198.049 24.6505C225.225 31.4783 250.949 41.5789 274.757 56.7007C296.961 70.7889 315.853 88.1133 333.944 107.191C352.861 127.134 369.587 148.793 387.75 169.302C393.404 175.687 398.202 182.793 403.231 189.716C409.374 198.215 406.793 207.349 396.814 211.382C392.723 213.037 388.149 213.383 383.416 214.402C370.678 202.816 361.371 188.54 351.866 174.442C351.295 171.167 349.079 169.794 346.056 169.369C340.218 161.813 337.641 152.042 329.915 145.734C326.927 138.741 323.881 131.795 315.762 129.138C311.898 120.114 305.86 113.039 297.003 108.522C295.119 105.564 293.7 102.102 291.237 99.7395C278.163 87.2167 262.865 77.6622 246.607 70.0637C229.003 61.8468 210.108 57.642 190.673 56.4124C186.232 56.1245 181.784 56.7463 177.31 56.9362C161.571 56.5927 145.979 56.6211 131.033 62.9351C121.955 66.7742 112.64 69.8235 103.954 74.8564C82.0669 87.5767 64.2078 104.139 51.6729 126.18C44.3294 139.166 38.4789 152.67 37.2391 167.872C36.6122 175.441 34.3178 182.932 34.1878 190.462C33.8115 216.242 38.0348 241.166 46.5612 265.735C55.2974 290.966 67.3535 314.405 80.1938 337.574C81.069 339.135 81.9328 340.799 83.1459 342.051C90.2585 349.265 93.8996 358.505 98.1108 367.42C97.6573 370.007 98.0441 373.523 96.5157 375.029C93.7323 377.748 89.9755 379.701 86.3079 381.13C80.3732 383.451 75.7159 380.754 72.2622 375.981C52.7718 348.997 33.4148 321.85 20.8468 290.717C11.5418 267.695 5.09047 243.688 2.11871 219.099C-1.64698 187.853 2.74612 157.104 13.2283 127.566C20.8186 106.185 33.5055 87.5081 49.313 71.1189C59.9724 60.077 71.5597 50.2144 85.0462 42.6001C96.4957 36.1646 108.302 30.7622 120.978 27.3592C125.377 26.5125 129.818 25.8586 134.137 24.7938C145.072 22.0684 156.125 21.3021 167.412 21.9319C174.536 22.3149 181.682 22.0202 188.826 22.0287L188.865 22.054Z" fill="#E3ACAB"/>
<path d="M140.183 360.981C133.953 362.088 127.739 365.142 121.374 361.4C118.138 356.076 114.992 350.698 111.699 345.42C100.699 327.977 92.1606 309.297 83.7696 290.518C83.9327 290.18 84.3326 289.69 84.2267 289.511C83.8628 288.917 83.3195 288.428 82.8407 287.926C80.3698 280.991 77.9312 274.048 75.4603 267.113C76.818 264.97 76.451 263.267 74.1409 262.082C73.4121 259.481 72.6833 256.879 71.9546 254.278C71.6433 253.302 71.3713 252.352 71.06 251.376C69.1835 242.665 67.3714 233.939 65.534 225.252C65.3838 224.242 65.2334 223.232 65.1153 222.214C64.4329 217.013 63.7183 211.818 63.0359 206.617C63.1355 204.577 63.2283 202.505 63.328 200.466C63.1862 186.2 65.9337 172.523 71.5314 159.409C71.9769 158.506 72.4546 157.596 72.9001 156.693C77.2607 150.035 81.6143 143.345 85.9748 136.687C86.6343 135.839 87.3329 135.016 87.9924 134.167C96.2586 124.684 106.035 116.893 116.318 109.733C117.118 109.224 117.918 108.716 118.718 108.207C119.557 107.724 120.403 107.272 121.242 106.789C122.921 105.822 124.592 104.823 126.238 103.862C127.825 103.252 129.411 102.641 131.037 102.055C131.966 101.519 132.895 100.982 133.856 100.439C136.463 99.4063 139.071 98.3737 141.653 97.3802C144.113 96.4466 146.606 95.506 149.066 94.5724C155.42 93.1029 161.806 91.6263 168.16 90.1567C170.704 90.0797 173.248 90.0027 175.785 89.8936C178.614 89.4188 181.41 88.951 184.246 88.5084L184.342 88.4876C187.964 90.6003 191.651 90.0417 195.332 88.6769C196.199 88.7928 197.039 88.7802 197.89 88.6642L203.896 89.4897C205.417 89.6667 206.905 89.8507 208.432 90.0599C209.64 90.5061 210.823 90.9914 212.03 91.4376L212.348 91.033C213.316 91.4635 214.292 91.926 215.261 92.3565L218.163 92.5385C222.876 95.0218 228.008 96.1701 233.191 97.2402L233.6 97.421C234.355 97.7967 235.11 98.1723 235.865 98.548C244.682 103.511 253.525 108.435 262.343 113.397C263.132 113.934 263.928 114.502 264.685 115.046C272.858 121.863 280.998 128.687 289.171 135.504C290.002 136.234 290.801 136.97 291.632 137.699C293.107 139.231 294.583 140.764 296.026 142.303C296.877 143.129 297.729 143.954 298.613 144.773C305.554 156.195 315.118 165.404 324.196 175.019C336.324 192.691 348.484 210.355 360.612 228.027C360.518 231.814 359.409 235.114 355.832 236.961C349.921 240.017 343.911 242.927 337.946 245.893C333.186 240.527 328.113 235.431 323.761 229.775C299.944 198.812 275.347 168.454 244.418 144.202C220.624 125.546 194.119 114.638 162.934 122.667L162.147 122.298L161.809 123.077C158.687 124.221 155.557 125.332 152.434 126.476L151.421 126.93C149.448 128.094 147.468 129.227 145.496 130.392L140.615 133.226C113.088 148.541 100.041 172.274 99.7357 203.387C99.5892 204.428 99.475 205.462 99.3216 206.47C99.6308 210.878 99.9148 215.324 100.224 219.731C100.181 220.783 100.131 221.803 100.088 222.855C100.756 226.58 101.423 230.304 102.098 234.061C103.005 238.272 103.912 242.483 104.826 246.727C105.532 249.535 106.206 252.35 106.912 255.158C107.051 259.871 107.505 264.482 111.225 267.987C112.663 272.319 114.102 276.651 115.572 280.976C116.294 282.604 117.04 284.192 117.761 285.82C118.381 287.604 118.976 289.426 119.596 291.21C118.697 294.7 120.686 296.896 123.015 298.951C124.4 302.252 125.76 305.592 127.144 308.893C126.928 311.798 127.873 314.151 130.409 315.758L130.74 316.359C131.65 318.081 132.567 319.834 133.477 321.556C134.514 324.023 135.544 326.459 136.58 328.927C136.539 331.862 137.472 334.318 140.137 335.897C141.547 338.688 142.95 341.447 144.391 344.231C143.443 346.084 144.053 347.197 146.018 347.716C146.583 349.713 147.148 351.711 147.713 353.708C145.203 356.132 142.654 358.532 140.144 360.956L140.183 360.981Z" fill="#FA961B"/>
<path d="M99.8253 203.334C100.131 172.221 113.145 148.495 140.705 133.173C142.318 132.22 143.939 131.299 145.585 130.339C147.558 129.174 149.538 128.041 151.478 126.883L152.219 127.195L152.524 126.423C155.647 125.279 158.776 124.168 161.867 123.031L162.534 123.157L162.991 122.621C194.202 114.552 220.681 125.5 244.476 144.156C275.405 168.407 300.001 198.766 323.819 229.729C328.17 235.385 333.25 240.513 338.004 245.847C332.122 250.915 325.079 253.879 317.85 256.445C312.715 258.257 308.243 257.202 304.663 252.625C297.187 243.101 289.622 233.63 281.917 224.29C266.775 205.922 251.659 187.516 236.231 169.378C227.123 158.692 215.943 150.269 203.601 143.643C195.522 139.295 186.868 138.064 177.462 139.754C165.492 141.895 155.412 147.026 146.361 154.896C143.414 157.482 141.645 160.218 142.057 164.165C140.732 166.301 139.374 168.443 138.049 170.579C135.016 171.67 133.552 173.633 134.433 176.942C132.998 186.232 129.814 195.227 130.213 204.896C131.022 223.357 131.657 241.788 140.325 258.725C142.655 267.507 142.844 276.986 148.761 284.592C149.554 287.179 150.347 289.767 151.147 292.386C154.711 299.86 155.817 308.435 161.139 315.16C164.898 324.475 168.649 333.758 172.408 343.074C164.418 347.116 157.41 353.368 147.849 353.712C147.284 351.715 146.719 349.717 146.154 347.72C145.601 346.561 145.08 345.395 144.527 344.236C143.117 341.445 141.715 338.686 140.273 335.902C139.981 333.139 139.438 330.464 136.716 328.931C135.679 326.463 134.649 324.028 133.612 321.56C132.703 319.839 131.786 318.085 130.844 316.371L130.512 315.769C129.413 313.483 128.347 311.19 127.248 308.904C125.863 305.603 124.503 302.263 123.151 298.955C123.408 295.771 122.889 292.889 119.732 291.215C119.112 289.431 118.517 287.608 117.897 285.824C117.176 284.197 116.429 282.608 115.708 280.981C114.27 276.649 112.831 272.316 111.36 267.991C110.906 263.38 110.799 258.66 107.04 255.13C106.335 252.322 105.661 249.507 104.955 246.699C106.817 241.891 105.87 237.655 102.227 234.033C101.559 230.309 100.892 226.584 100.224 222.859C100.267 221.807 100.317 220.788 100.36 219.736C100.051 215.328 99.7666 210.882 99.4574 206.475C99.6038 205.434 99.718 204.4 99.8714 203.392L99.8253 203.334Z" fill="#A7C5C7"/>
<path d="M199.81 222.231C201.106 221.211 202.41 220.224 203.738 219.198C206.512 218.937 209.286 218.676 212.059 218.415C225.155 232.917 227.368 251.48 217.74 269.969C215.479 269.481 212.847 269.307 210.528 268.394C199.093 263.793 189.474 256.514 180.885 247.768C180.247 246.055 179.576 244.35 178.938 242.637C178.84 241.245 178.736 239.821 178.67 238.423C178.959 236.477 179.247 234.531 179.542 232.617C181.77 231.7 184.031 230.776 186.259 229.859C188.536 230.108 190.813 230.358 193.123 230.6C198.852 230.611 199.21 226.329 199.817 222.263L199.81 222.231ZM205.988 243.875C203.799 244.346 203.286 244.625 202.961 244.527C200.083 243.364 197.255 242.123 194.402 240.921C192.479 240.124 191.016 240.372 190.547 242.727C199.594 254.233 204.984 258.454 214.265 261.03C217.236 250.736 216.442 240.95 211.345 231.519C211.119 231.097 209.753 231.324 208.511 231.188C207.686 235.335 206.842 239.553 205.956 243.882L205.988 243.875Z" fill="#EE541E"/>
<path d="M177.285 56.9752C181.726 56.7922 186.206 56.1636 190.648 56.4515C210.082 57.6811 228.978 61.8859 246.582 70.1027C262.84 77.7013 278.138 87.2558 291.212 99.7786C293.675 102.141 295.062 105.61 296.978 108.561C295.297 109.36 293.61 110.127 291.961 110.92C289.147 109.743 286.482 107.693 283.187 109.446C282.544 107.398 281.933 105.343 281.29 103.295C279.569 99.9991 277.465 97.4249 273.151 98.825C272.055 97.6483 270.96 96.4715 269.864 95.2947C268.286 92.0353 265.872 90.3688 262.114 91.38C261.031 90.5707 259.947 89.7615 258.895 88.9452C258.083 85.4873 255.777 84.1675 252.378 84.496C250.85 83.816 249.354 83.1289 247.834 82.481C245.932 76.9367 245.775 76.8359 239.678 76.8375C237.798 76.4014 235.887 75.9722 234 75.5039C232.894 72.2439 230.379 71.2046 227.232 71.1423C225.339 70.6419 223.439 70.1094 221.546 69.609C217.08 64.987 216.705 64.9667 212.968 68.7319C207.913 69.8206 202.815 71.4906 198.763 66.4431C197.916 65.4819 197.207 64.2219 196.171 63.6376C192.862 61.7266 191.925 62.5342 191.197 67.602C187.419 68.5168 183.696 70.1596 179 67.9082C178.466 64.4913 177.895 60.7458 177.285 56.9752Z" fill="#E3E3EB"/>
<path d="M47.5567 209.985C51.3776 210.675 51.8098 213.307 51.4553 216.041C51.3158 217.114 50.2474 218.723 49.3712 218.878C48.5019 219.065 46.9164 217.96 46.3729 217.001C44.9012 214.391 45.5962 211.988 47.5567 209.985Z" fill="#86959D"/>
<path d="M52.2896 169.239C50.6254 167.613 49.0239 166.747 49.1039 166.023C49.2866 164.369 50.1018 162.68 50.9586 161.183C51.2297 160.721 52.628 160.487 53.2906 160.748C53.9923 161.034 54.9707 162.136 54.8422 162.634C54.3216 164.596 53.4122 166.474 52.3218 169.232L52.2896 169.239Z" fill="#86959D"/>
<path d="M72.1082 293.467C73.5356 295.245 75.1077 296.756 76.013 298.613C76.4253 299.433 75.8403 301.409 75.0863 301.975C74.4473 302.449 72.4137 302.08 71.7576 301.38C69.5801 299.091 67.6438 296.514 72.1082 293.467Z" fill="#86959D"/>
<path d="M173.762 66.581C171.705 69.0759 170.95 70.8868 169.671 71.3641C167.307 72.2769 165.216 71.0119 164.561 68.5965C164.348 67.7677 165.559 65.7241 166.249 65.6428C168.204 65.4908 170.208 66.0347 173.755 66.5489L173.762 66.581Z" fill="#E3E3EB"/>
<path d="M233.184 97.208C228.033 96.131 222.876 95.0219 218.156 92.5065C220.346 92.0349 222.507 91.4347 224.738 91.156C229.89 90.5172 229.904 90.5815 233.184 97.208Z" fill="#E3E3EB"/>
<path d="M93.633 104.831C92.1552 106.259 91.1489 107.687 89.7946 108.281C89.114 108.563 87.2065 107.527 86.8516 106.662C85.9161 104.508 87.8669 101.834 90.0614 102.169C91.1034 102.315 91.9737 103.54 93.6261 104.799L93.633 104.831Z" fill="#E3E3EB"/>
<path d="M273.151 98.825C277.44 97.464 279.569 99.9991 281.29 103.295C275.695 104.534 275.396 104.396 273.151 98.825Z" fill="#86959D"/>
<path d="M239.671 76.8053C245.768 76.8038 245.925 76.9047 247.827 82.4489C243.606 82.7189 240.627 81.2415 239.671 76.8053Z" fill="#86959D"/>
<path d="M283.155 109.453C286.475 107.661 289.108 109.718 291.929 110.927C292.646 113.631 291.983 115.557 288.96 114.19C286.762 113.217 285.084 111.055 283.155 109.453Z" fill="#86959D"/>
<path d="M49.5534 179.684C48.7976 181.024 48.0741 182.357 47.2724 183.64C47.2218 183.718 46.2235 183.462 46.1888 183.302C46.0174 181.724 45.8069 180.121 45.946 178.578C45.9734 178.235 47.4565 177.613 48.0339 177.791C48.6827 177.988 49.0399 179.021 49.5534 179.684Z" fill="#86959D"/>
<path d="M156.552 75.3672C155.114 73.6925 153.756 72.7067 153.375 71.4095C153.145 70.6518 154.535 69.4441 155.199 68.4601C156.465 69.3311 158 70.0434 158.824 71.2114C159.121 71.652 157.749 73.2593 156.545 75.335L156.552 75.3672Z" fill="#E3E3EB"/>
<path d="M52.0382 235.795C49.9174 235.647 48.3699 233.154 49.1433 230.801C49.3406 230.153 50.3888 229.389 51.0926 229.372C53.1327 229.303 54.7218 231.988 53.9807 234.334C53.7833 234.982 52.7095 235.314 52.006 235.802L52.0382 235.795Z" fill="#86959D"/>
<path d="M147.204 74.8242C145.775 76.0068 144.927 77.2322 144.03 77.2909C143.165 77.3426 142.212 76.2024 141.305 75.5904C142.075 74.7854 142.741 73.4982 143.675 73.2971C144.512 73.1168 145.631 74.0869 147.244 74.8495L147.204 74.8242Z" fill="#E3E3EB"/>
<path d="M54.3241 241.559C55.6805 243.79 56.8477 244.985 57.1523 246.4C57.3047 247.107 56.0248 248.829 55.2382 248.931C53.1431 249.214 52.0287 247.638 52.1169 245.702C52.1668 244.682 53.1343 243.7 54.331 241.592L54.3241 241.559Z" fill="#86959D"/>
<path d="M100.241 101.255C98.7269 100.639 97.6617 100.229 96.6218 99.7805C97.1178 98.7991 97.3996 97.2919 98.1768 96.99C99.0183 96.6742 100.302 97.474 101.411 97.7734C101.065 98.8235 100.711 99.8415 100.241 101.255Z" fill="#E3E3EB"/>
<path d="M191.197 67.602C191.925 62.5342 192.83 61.7335 196.171 63.6376C197.246 64.2471 197.916 65.4819 198.763 66.4431C196.25 66.8164 193.711 67.2288 191.197 67.602Z" fill="#A7C5C7"/>
<path d="M133.58 82.7374C132.294 81.7699 131.458 81.1762 130.616 80.5503C131.372 79.6811 132.022 78.6328 132.944 78.0642C133.36 77.8064 134.359 78.5331 135.132 78.8375C134.696 79.9406 134.292 81.0368 133.612 82.7305L133.58 82.7374Z" fill="#86959D"/>
<path d="M212.968 68.7319C216.698 64.9346 217.08 64.987 221.546 69.609C218.552 70.7248 215.613 71.156 212.968 68.7319Z" fill="#A7C5C7"/>
<path d="M46.7108 201.522C45.2419 199.551 43.8772 198.533 44.0077 197.731C44.2067 196.309 45.2799 195.035 45.9965 193.67C46.8343 194.431 48.4149 195.201 48.4132 195.975C48.4351 197.484 47.5783 198.98 46.7108 201.522Z" fill="#86959D"/>
<path d="M68.0372 137.557C66.775 138.266 65.5128 138.976 64.2253 139.724C63.7853 138.776 62.7353 137.186 62.9904 136.962C63.9971 136.006 65.4228 135.429 66.6528 134.727C67.0052 135.425 67.3645 136.155 68.0372 137.557Z" fill="#86959D"/>
<path d="M74.1593 262.011C76.4694 263.195 76.8365 264.899 75.4787 267.042C72.9432 265.906 72.5118 264.216 74.1593 262.011Z" fill="#E3ACAB"/>
<path d="M60.2855 259.382C61.5682 261.427 62.9728 263.411 63.9795 265.583C64.1592 265.948 62.6835 267.073 61.9779 267.864C61.4008 265.028 60.8306 262.225 60.2534 259.389L60.2855 259.382Z" fill="#E3E3EB"/>
<path d="M124.562 85.7564C123.686 86.3824 122.87 87.13 121.913 87.5378C121.727 87.6116 120.472 86.1663 120.599 85.9709C121.148 85.079 122.049 84.4139 122.794 83.648C123.293 84.2468 123.786 84.8135 124.562 85.7564Z" fill="#A7C5C7"/>
<path d="M61.0682 150.092C59.7461 150.679 58.5667 151.303 57.2674 151.684C57.1065 151.719 56.2291 150.461 56.2977 149.841C56.4458 148.026 57.4546 146.766 59.447 147.413C59.9922 147.599 60.2207 148.66 61.0613 150.059L61.0682 150.092Z" fill="#86959D"/>
<path d="M83.0688 113.968C82.554 114.55 82.0002 115.107 81.4854 115.689C80.8799 114.911 80.2744 114.133 79.6688 113.355C80.347 112.907 81.0779 112.076 81.6737 112.183C82.2303 112.265 82.6336 113.356 83.0757 114.001L83.0688 113.968Z" fill="#A7C5C7"/>
<path d="M262.108 91.348C265.865 90.3368 268.247 92.0102 269.857 95.2626C265.886 96.6899 263.497 94.9843 262.108 91.348Z" fill="#A7C5C7"/>
<path d="M195.325 88.6447C191.644 90.0095 187.957 90.5682 184.335 88.4555C188.015 87.3938 191.701 86.3643 195.325 88.6447Z" fill="#E3ACAB"/>
<path d="M71.7871 126.187C71.2875 125.588 70.7879 124.99 70.2883 124.391C71.132 123.772 72.0079 123.146 72.8584 122.559C73.1856 123.296 73.9084 124.149 73.6903 124.701C73.4608 125.356 72.4583 125.706 71.7548 126.194L71.7871 126.187Z" fill="#A7C5C7"/>
<path d="M184.2 88.4511C181.371 88.9258 178.575 89.3936 175.739 89.8362C175.66 89.315 175.549 88.8006 175.407 88.2932C178.352 86.9523 181.277 86.4568 184.193 88.4189L184.2 88.4511Z" fill="#E3ACAB"/>
<path d="M175.413 88.3253C175.556 88.8328 175.667 89.3471 175.746 89.8684C173.202 89.9454 170.658 90.0224 168.114 90.0994C170.547 89.508 172.98 88.9167 175.413 88.3253Z" fill="#E37378"/>
<path d="M149.052 94.508C146.592 95.4416 144.099 96.3823 141.639 97.3159C143.542 94.8878 146.076 94.14 149.052 94.508Z" fill="#E37378"/>
<path d="M227.2 71.1492C230.347 71.2115 232.862 72.2508 233.968 75.5108C230.309 76.198 227.845 75.0805 227.2 71.1492Z" fill="#86959D"/>
<path d="M212.059 218.415C209.286 218.676 206.512 218.937 203.738 219.198C205.403 215.98 208.58 216.339 211.448 215.889C211.724 216.704 211.937 217.533 212.059 218.415Z" fill="#E3ACAB"/>
<path d="M252.378 84.496C255.777 84.1675 258.076 85.4551 258.895 88.9452C255.957 88.6025 253.45 87.5953 252.378 84.496Z" fill="#86959D"/>
<path d="M60.2855 259.382C60.8627 262.218 61.4329 265.021 62.0101 267.857C60.8808 267.932 59.7447 267.975 58.6476 268.043C57.9541 266.544 57.2606 265.045 56.5349 263.554C57.7875 262.174 59.04 260.794 60.2855 259.382Z" fill="#48635B"/>
<path d="M66.5392 277.309C67.3663 279.116 68.1864 280.89 69.0135 282.697C68.6185 283.522 68.5271 284.349 68.7463 285.21C63.8397 284.484 64.1702 280.544 63.7904 277.06C64.722 277.163 65.6145 277.239 66.5392 277.309Z" fill="#48635B"/>
<path d="M66.5392 277.309C65.6145 277.239 64.715 277.13 63.7904 277.06C64.0313 276.302 64.2792 275.576 64.4948 274.857L66.5461 277.341L66.5392 277.309Z" fill="#A7C5C7"/>
<path d="M56.5349 263.554C57.2284 265.052 57.9219 266.551 58.6476 268.043C56.5746 267.178 55.7339 265.778 56.5349 263.554Z" fill="#E3E3EB"/>
<path d="M126.231 103.83C124.553 104.797 122.881 105.797 121.235 106.757C122.914 105.79 124.585 104.79 126.231 103.83Z" fill="#E3ACAB"/>
<path d="M203.889 89.4575L197.883 88.632C199.896 88.9048 201.876 89.1846 203.889 89.4575Z" fill="#E3ACAB"/>
<path d="M235.897 98.5411C235.142 98.1654 234.387 97.7898 233.633 97.4141C234.481 97.6013 235.236 97.977 235.897 98.5411Z" fill="#E3E3EB"/>
<path d="M264.711 115.007C263.921 114.47 263.125 113.902 262.368 113.358C263.157 113.895 263.953 114.463 264.711 115.007Z" fill="#E3E3EB"/>
<path d="M65.1407 222.175C65.2909 223.186 65.4411 224.196 65.5592 225.213C65.1815 224.555 64.7394 223.91 64.5227 223.217C64.4673 222.959 64.9201 222.559 65.1476 222.207L65.1407 222.175Z" fill="#E3ACAB"/>
<path d="M71.0852 251.337C71.3964 252.313 71.6686 253.263 71.9798 254.239C71.5125 253.633 70.9876 253.074 70.649 252.44C70.5293 252.197 70.936 251.739 71.0921 251.369L71.0852 251.337Z" fill="#E3ACAB"/>
<path d="M68.7463 285.21C68.5593 284.342 68.6115 283.49 69.0135 282.697C68.9221 283.524 68.8377 284.383 68.7463 285.21Z" fill="#E3E3EB"/>
<path d="M82.8338 287.894C83.3195 288.428 83.8559 288.885 84.2197 289.479C84.3257 289.658 83.9258 290.148 83.7627 290.486C83.4401 289.613 83.1174 288.741 82.8269 287.862L82.8338 287.894Z" fill="#E3ACAB"/>
<path d="M188.865 22.054C181.721 22.0454 174.575 22.3401 167.451 21.9571C156.204 21.3525 145.143 22.0867 134.176 24.819C129.825 25.8907 125.384 26.5445 121.017 27.3843C121.329 19.9168 121.368 19.4712 126.176 18.3345C134.924 16.2484 143.746 14.3482 152.556 12.5514C159.241 11.2123 165.618 9.53593 171.015 4.87506C175.309 1.19187 180.803 0.580204 186.238 0.317758C188.271 0.216192 190.785 2.9713 190.09 4.90391C188.072 10.5524 187.365 16.1876 188.865 22.054Z" fill="#E6E8EF"/>
<path d="M148.696 284.606C142.779 277 142.59 267.521 140.261 258.739C143.83 258.575 145.883 260.286 146.889 263.702C148.459 269.116 150.345 274.428 151.947 279.835C152.782 282.616 150.678 283.641 148.696 284.606Z" fill="#E6E8EF"/>
<path d="M199.81 222.231C199.203 226.297 198.852 230.611 193.116 230.568C190.999 228.872 188.719 228.454 186.284 229.82C184.056 230.737 181.796 231.661 179.568 232.578C179.064 229.928 178.563 226.975 181.586 225.685C186.401 223.639 191.396 221.957 196.432 220.469C197.319 220.211 198.664 221.603 199.81 222.231Z" fill="#E6E8EF"/>
<path d="M134.376 176.988C133.494 173.679 134.958 171.716 137.991 170.625C138.449 173.689 137.402 175.865 134.376 176.988Z" fill="#E6E8EF"/>
<path d="M178.696 238.384C178.793 239.776 178.898 241.199 178.963 242.598C178.866 241.206 178.761 239.782 178.696 238.384Z" fill="#E37378"/>
<path d="M107.001 255.105C110.753 258.603 110.867 263.354 111.321 267.966C107.602 264.461 107.148 259.85 107.001 255.105Z" fill="#E3ACAB"/>
<path d="M102.155 234.015C105.799 237.637 106.745 241.873 104.884 246.681C103.976 242.47 103.062 238.226 102.155 234.015Z" fill="#E3ACAB"/>
<path d="M119.693 291.189C122.856 292.896 123.369 295.746 123.112 298.93C120.782 296.875 118.787 294.647 119.693 291.189Z" fill="#E3ACAB"/>
<path d="M115.637 280.963C116.39 282.583 117.111 284.211 117.826 285.806C117.072 284.185 116.351 282.558 115.637 280.963Z" fill="#E3ACAB"/>
<path d="M145.553 130.346C143.939 131.299 142.326 132.252 140.672 133.18C142.286 132.227 143.907 131.306 145.553 130.346Z" fill="#E3ACAB"/>
<path d="M162.959 122.628L162.502 123.164L161.842 123.07L162.172 122.259L162.959 122.628Z" fill="#E37378"/>
<path d="M152.46 126.437L152.187 127.202L151.453 126.923L152.46 126.437Z" fill="#E37378"/>
<path d="M99.8253 203.334C99.6789 204.375 99.5646 205.409 99.4113 206.417C99.5577 205.377 99.672 204.343 99.8253 203.334Z" fill="#E3ACAB"/>
<path d="M100.321 219.71C100.278 220.762 100.235 221.814 100.185 222.834C100.228 221.782 100.271 220.73 100.321 219.71Z" fill="#E3ACAB"/>
<path d="M205.988 243.875C206.842 239.553 207.686 235.335 208.543 231.181C209.778 231.285 211.151 231.09 211.377 231.512C216.474 240.943 217.268 250.729 214.297 261.023C205.017 258.447 199.62 254.194 190.579 242.72C191.049 240.365 192.511 240.117 194.435 240.914C197.288 242.116 200.115 243.357 202.994 244.52C203.325 244.65 203.831 244.339 206.02 243.868L205.988 243.875Z" fill="#D7D9E4"/>
<path d="M186.284 229.82C188.751 228.447 190.999 228.872 193.116 230.568C190.839 230.319 188.561 230.069 186.284 229.82Z" fill="#E37378"/>
</svg>
