<svg width="100" height="111" viewBox="0 0 100 111" fill="none" xmlns="http://www.w3.org/2000/svg">
<path d="M56.295 61.9762C58.1414 64.256 59.9878 66.5357 61.8342 68.8154C62.3512 69.4632 62.8672 70.0889 63.3842 70.7367C63.8213 71.2267 64.2595 71.7389 64.6965 72.229C65.285 74.361 66.5365 75.6647 68.3947 76.2547C68.6111 76.4554 68.8286 76.6783 69.045 76.879C69.595 79.0729 70.9265 80.3195 72.7943 80.894C73.0107 81.0948 73.2378 81.3022 73.4744 81.4942C75.5958 85.193 78.487 87.9158 81.9517 89.8827C82.4154 90.2821 82.8887 90.6661 83.3525 91.0655C83.6638 91.3045 83.9548 91.5522 84.2661 91.7911C84.4932 91.9986 84.7298 92.1906 84.9761 92.3671C85.4472 94.2105 86.5026 95.3047 88.2286 95.5108C88.9717 96.129 89.7136 96.7251 90.4567 97.3434C90.736 97.5622 91.0249 97.7656 91.3042 97.9845L91.3575 98.018C92.5184 100.661 94.5418 102.107 97.0502 102.892C97.8242 103.508 98.5875 104.117 99.3615 104.734C99.5811 105.216 99.7804 105.706 100 106.188C98.518 110.626 97.2291 111.769 94.5853 110.534C90.2389 108.506 85.8531 106.518 81.8426 103.949C76.2521 100.343 71.0082 96.2033 65.6097 92.2884C65.6107 92.0957 65.6683 91.7883 65.5841 91.7567C65.341 91.6466 65.0308 91.6446 64.7493 91.5963C56.82 84.498 49.7894 76.3116 43.3846 67.3806C43.1469 66.9517 42.8889 66.5314 42.6512 66.1025C36.6345 57.0722 31.4397 47.292 27.2748 36.5706C26.7919 35.3427 26.4977 33.9545 26.1246 32.6454C28.6822 32.5158 31.1011 31.6545 33.1118 28.5382C36.86 34.2496 40.6093 39.9832 44.3575 45.6946C44.6176 46.1591 44.8574 46.6324 45.1175 47.0969C45.4928 47.591 45.8883 48.0764 46.2742 48.5771C46.2209 49.8325 46.6601 50.5817 47.6707 50.7454C47.8477 50.9858 48.0449 51.2174 48.2517 51.4335C48.4777 53.3374 49.4009 54.4772 50.9126 54.9565L50.9456 54.9988C50.9626 56.6422 51.6769 57.5216 52.9423 57.8243C53.1289 58.0492 53.3154 58.274 53.5126 58.5056C53.6043 60.6256 54.8622 61.4178 56.3057 61.983L56.295 61.9762Z" fill="#36323E"/>
<path d="M71.7333 47.2292C72.664 48.7389 73.6735 50.1695 74.4645 51.7846C74.8536 52.5667 74.9282 53.6878 74.9879 54.7135C75.1125 57.0906 74.7362 59.5819 73.0591 61.8986C71.2276 64.4403 69.1487 64.635 67.1413 64.3806C66.5229 63.9913 65.8844 63.6107 65.2565 63.2367C64.3642 61.6652 63.393 60.1729 62.6298 58.4893C61.7727 56.5748 61.6821 54.2621 62.4348 51.6426C63.2696 50.2993 64.1044 48.956 64.9392 47.6127C66.0735 47.1239 67.2185 46.6419 68.3528 46.1532C69.486 46.5015 70.6097 46.8654 71.7429 47.2137L71.7333 47.2292Z" fill="#EE541E"/>
<path d="M45.4141 82.9228C47.6677 84.4278 49.1271 86.1846 49.8094 88.7624C50.4031 91.0052 49.7783 93.2756 48.1141 95.2137C46.4894 97.1122 44.7602 97.699 43.1078 97.303C40.0748 96.5747 37.7774 94.8058 36.9342 91.2459C36.4407 89.1521 36.9024 86.9294 38.5421 84.6965C40.1626 82.4946 42.1327 81.544 43.9418 82.1891C44.5943 82.428 45.171 82.8127 45.4141 82.9228Z" fill="#EE541E"/>
<path d="M31.8141 81.9423C31.0359 81.8819 30.2576 81.8215 29.489 81.7457C29.3035 80.0392 28.4347 79.3847 26.8142 79.8681C25.1554 78.2651 24.0254 76.2646 24.1471 73.2047C24.2836 70.0254 25.6386 67.8926 28.5555 66.8507C29.4702 66.5244 30.3827 66.7983 31.2921 66.7909C32.2185 67.3527 33.1652 67.9059 34.0916 68.4677C35.5809 69.9855 36.6831 71.8396 36.6799 74.5658C36.6766 77.0772 36.1947 79.5235 33.5561 81.1917C32.9687 81.4449 32.3812 81.6979 31.7938 81.951L31.8141 81.9423Z" fill="#EE541E"/>
<path d="M58.2818 34.0759C59.0611 35.4473 60.0803 36.6476 60.5386 38.2252C61.1953 40.4861 61.0193 43.0606 58.9638 45.6761C58.4383 46.14 57.9031 46.6193 57.3881 47.0899C55.7666 48.4104 54.2762 48.589 53.0097 47.8345C51.0407 46.6591 49.7188 44.7526 49.1965 42.0607C48.6859 39.3976 49.3374 36.8217 51.7031 34.4231C52.2436 34.0545 52.7937 33.6705 53.3342 33.302C53.8918 33.073 54.4493 32.8441 55.0069 32.6152L55.0175 32.6219C56.0953 33.1072 57.1731 33.5925 58.2712 34.0691L58.2818 34.0759Z" fill="#EE541E"/>
<path d="M33.1012 28.5315C31.1011 31.6545 28.6715 32.5091 26.114 32.6387C25.8187 32.3024 25.5234 31.9661 25.2281 31.6298C25.2483 31.4062 25.3443 31.037 25.2601 31.0054C24.9957 30.8819 24.6641 30.8665 24.3518 30.8202C22.8039 29.5877 22.2314 27.5731 22.0566 25.2289C21.9202 23.4674 22.384 21.7186 23.4779 19.9584C24.7828 17.8585 26.3681 16.8589 28.1964 16.8286C29.3819 17.6181 30.5578 18.4229 31.7432 19.2124C33.3305 21.6942 33.387 25.0165 33.0905 28.5248L33.1012 28.5315Z" fill="#EE541E"/>
<path d="M9.00669 68.9987C10.5941 67.8286 12.1176 67.4774 13.5802 67.7969C14.2092 68.193 14.8488 68.5958 15.4778 68.9918C16.3296 70.366 17.4105 71.5622 17.9627 73.1559C18.6929 75.2269 18.4946 77.7658 16.6577 80.1966C14.792 82.6738 12.7653 83.3096 10.8176 82.3624C10.3166 80.1135 8.5672 79.4201 7.03207 78.4535C5.90099 77.0753 5.91064 75.1265 6.35312 72.9347C7.23054 71.6182 8.09836 70.3172 8.98644 69.0074L9.00669 68.9987Z" fill="#EE541E"/>
<path d="M62.115 9.52928C62.8176 10.8094 63.7002 11.9668 64.1629 13.4181C64.5637 14.6587 64.7108 16.2121 64.5764 17.7172C64.217 21.637 60.5901 24.8956 58.1307 23.841C57.5081 23.5779 56.9794 23.1161 56.4037 22.7536C56.0924 22.2998 55.7715 21.8614 55.4496 21.4009C54.2993 19.8388 53.8538 17.8826 54.5564 15.296C55.518 14.2259 55.9285 13.0881 55.8581 11.8408C56.8955 10.8398 57.9328 9.83886 58.9595 8.83119C60.0149 9.06612 61.0596 9.29435 62.115 9.52928Z" fill="#EE541E"/>
<path d="M30.5611 10.9707C30.1283 9.71 29.4631 8.56074 29.3129 7.15569C29.0262 4.20394 31.2042 1.12861 34.0049 0.249794C37.9867 -1.0023 41.0143 2.6227 39.8862 7.32593C39.1708 10.2911 36.9192 12.6972 34.496 12.8254C33.4129 12.8738 32.4598 12.4026 31.4353 12.1656C31.1368 11.7628 30.849 11.3668 30.5409 10.9794L30.5611 10.9707Z" fill="#EE541E"/>
<path d="M26.5645 49.0986C27.348 50.7735 28.3821 52.2839 28.8554 54.1716C29.4033 56.3211 28.3478 58.8789 26.6186 60.5397C24.8499 62.2402 23.077 62.5631 21.6836 61.7502C19.2925 60.3949 16.8032 58.9349 18.1903 54.2444C19.1434 52.7822 20.0976 51.3423 21.0411 49.8956C22.184 49.3692 23.3161 48.8362 24.459 48.3098C25.1541 48.5757 25.8492 48.8415 26.5549 49.114L26.5645 49.0986Z" fill="#EE541E"/>
<path d="M10.3226 55.7349C9.92486 58.4275 8.51653 60.0971 6.24789 60.8598C5.64021 60.9068 5.03149 60.9317 4.42381 60.9787C4.11465 60.9988 3.86199 60.9042 3.67544 60.6793C3.3215 60.4134 2.95691 60.1409 2.59338 59.8905C2.329 59.767 2.11366 59.5884 1.98573 59.2931C1.71283 58.7775 1.41968 58.2707 1.14677 57.7551C0.143631 56.0278 -0.375504 54.0468 0.315384 51.4314C1.20453 50.1438 2.08302 48.8495 2.96256 47.5773C3.49988 47.3571 4.04678 47.1215 4.60435 46.8925C6.25035 47.8001 7.89636 48.7077 9.5413 49.5931C9.88561 50.9485 10.2289 52.2817 10.5732 53.637C10.4932 54.3386 10.4239 55.0468 10.3439 55.7483L10.3226 55.7349Z" fill="#EE541E"/>
<path d="M47.3186 19.5678C47.7738 20.2196 48.229 20.8714 48.6842 21.5233C48.8282 21.9361 48.9827 22.3557 49.1266 22.7685C49.0658 24.2984 49.2737 25.8257 48.8824 27.3623C48.1425 30.2476 45.6233 32.034 43.6404 31.2151C42.6916 30.8325 41.8238 30.2001 41.0957 29.4624C39.8132 28.1607 39.0158 26.4127 39.8944 23.8294C40.8816 20.928 42.7686 19.3235 45.2068 18.8609C45.9104 19.0892 46.615 19.3395 47.3186 19.5678Z" fill="#EE541E"/>
<path d="M10.0688 14.7803C10.1957 14.409 10.3769 14.0935 10.6627 13.8008C11.4964 13.0798 12.3407 12.3655 13.1648 11.6599L13.2053 11.6425C14.233 12.1607 15.25 12.6722 16.2777 13.1904C16.6316 14.96 17.2702 16.6295 17.2786 18.5253C17.2817 22.2437 14.6367 24.8532 11.5803 24.2819C10.9332 24.1537 10.526 23.4247 9.99827 22.985C9.79999 22.5164 9.61237 22.0546 9.41409 21.586C9.24674 20.471 9.08899 19.3405 8.92165 18.2254C9.88221 17.1332 10.1989 15.9792 10.0592 14.7957L10.0688 14.7803Z" fill="#EE541E"/>
<path d="M18.8558 42.2897C16.7258 43.7841 15.2141 43.3048 13.9519 41.9944C13.5436 41.2432 13.1364 40.5142 12.7387 39.7697C12.6385 39.1911 12.549 38.6191 12.4584 38.025L12.4563 37.9807C12.5181 37.3322 12.5693 36.677 12.6311 36.0285C13.6547 33.021 15.4958 31.7529 17.8316 31.5266C18.7484 32.1039 19.646 32.7121 20.5639 33.3115C21.6875 35.3939 22.6182 37.5481 20.4273 40.7872C19.9038 41.2954 19.39 41.7882 18.8665 42.2964L18.8558 42.2897Z" fill="#EE541E"/>
<path d="M9.51998 49.5797C7.87397 48.6721 6.23863 47.7712 4.58303 46.8791C7.52758 45.5539 8.89639 46.9314 9.51998 49.5797Z" fill="#E37378"/>
<path d="M72.7836 80.8873C70.9158 80.3127 69.5843 79.0661 69.0343 76.8723C70.8338 77.5328 72.2528 78.6626 72.7836 80.8873Z" fill="#86959D"/>
<path d="M7.05232 78.4448C8.58746 79.4114 10.3358 80.0827 10.8379 82.3537C8.80593 82.0194 7.38808 80.9118 7.05232 78.4448Z" fill="#E37378"/>
<path d="M68.384 76.248C66.5365 75.6647 65.2839 74.3389 64.6859 72.2223C66.446 72.9224 67.932 73.9441 68.384 76.248Z" fill="#86959D"/>
<path d="M56.295 61.9762C54.8409 61.4043 53.6032 60.6035 53.502 58.4989C55.0243 58.9849 55.9976 60.0919 56.295 61.9762Z" fill="#86959D"/>
<path d="M50.9008 54.9276C49.3891 54.4483 48.466 53.3085 48.24 51.4047C49.7815 51.8598 50.6749 53.0238 50.9008 54.9276Z" fill="#86959D"/>
<path d="M31.7539 19.2191C30.5684 18.4297 29.3925 17.6248 28.2071 16.8353C30.3254 16.1714 31.4917 16.9917 31.7539 19.2191Z" fill="#E3ACAB"/>
<path d="M20.5639 33.3115C19.6471 32.7342 18.7495 32.126 17.8316 31.5266C19.5363 30.8599 20.3859 31.5453 20.5639 33.3115Z" fill="#E3ACAB"/>
<path d="M2.95084 47.5485C2.0617 48.836 1.18321 50.1304 0.303658 51.4025C0.226952 49.3778 1.15874 48.1171 2.95084 47.5485Z" fill="#E3ACAB"/>
<path d="M9.00669 68.9987C8.12927 70.3152 7.26145 71.6162 6.37337 72.9259C6.34038 70.9503 7.24978 69.6539 9.00669 68.9987Z" fill="#E3ACAB"/>
<path d="M21.0614 49.8868C20.1178 51.3335 19.1541 52.789 18.2105 54.2357C18.1797 52.0895 19.2618 50.73 21.0614 49.8868Z" fill="#E37378"/>
<path d="M58.9595 8.83119C60.0149 9.06612 61.0596 9.29435 62.115 9.52928C61.614 7.92486 60.662 7.47577 58.9595 8.83119Z" fill="#E3ACAB"/>
<path d="M34.1022 68.4744C33.1758 67.9126 32.2292 67.3594 31.3028 66.7976C32.9669 66.1484 33.8741 66.7411 34.1022 68.4744Z" fill="#E3ACAB"/>
<path d="M58.2818 34.0759C57.204 33.5905 56.1263 33.1052 55.0282 32.6286C56.9312 31.5712 57.896 32.2862 58.2818 34.0759Z" fill="#E37378"/>
<path d="M29.489 81.7457C29.3035 80.0392 28.4347 79.3847 26.8142 79.8681C27.7022 80.4917 28.6009 81.1221 29.489 81.7457Z" fill="#E37378"/>
<path d="M52.9316 57.8176C51.6662 57.5148 50.9509 56.6133 50.9349 54.9921C52.21 55.2794 52.8368 56.2756 52.9316 57.8176Z" fill="#86959D"/>
<path d="M64.9296 47.6281C64.0948 48.9714 63.26 50.3147 62.4253 51.658C62.3006 49.7106 63.1247 48.3606 64.9296 47.6281Z" fill="#E3ACAB"/>
<path d="M71.7333 47.2292C70.6001 46.8808 69.4764 46.517 68.3432 46.1686C70.0287 45.318 71.0393 45.9114 71.7333 47.2292Z" fill="#E37378"/>
<path d="M65.2565 63.2367C65.8748 63.6261 66.5134 64.0067 67.1413 64.3806C66.0336 64.7787 65.4153 64.3894 65.2565 63.2367Z" fill="#E3ACAB"/>
<path d="M63.3832 70.7145C62.8661 70.0667 62.3502 69.4411 61.8331 68.7933C62.3395 69.4344 62.8661 70.0667 63.3832 70.7145Z" fill="#86959D"/>
<path d="M47.6494 50.732C46.6387 50.5682 46.1995 49.8191 46.2529 48.5637C47.2539 48.7429 47.7518 49.4216 47.6494 50.732Z" fill="#86959D"/>
<path d="M55.8581 11.8408C55.9274 13.0659 55.518 14.2259 54.5564 15.296C54.3411 14.0434 54.8336 12.8927 55.8581 11.8408Z" fill="#E37378"/>
<path d="M45.2068 18.8609C45.9104 19.0892 46.615 19.3395 47.3186 19.5678C47.0458 18.4077 46.3987 18.0647 45.2068 18.8609Z" fill="#E3ACAB"/>
<path d="M15.4874 68.9764C14.8584 68.5803 14.2188 68.1775 13.5898 67.7815C14.8041 67.2357 15.4331 67.6317 15.4874 68.9764Z" fill="#E3ACAB"/>
<path d="M26.5645 49.0986C25.8694 48.8328 25.1743 48.5669 24.4686 48.2944C25.6541 47.5801 26.3396 47.8614 26.5645 49.0986Z" fill="#E3ACAB"/>
<path d="M12.7281 39.763C13.1257 40.5075 13.5436 41.2432 13.9412 41.9877C12.9594 41.7776 12.4828 41.1124 12.7281 39.763Z" fill="#E37378"/>
<path d="M24.3518 30.8202C24.6545 30.8819 24.9957 30.8819 25.2601 31.0054C25.3347 31.0524 25.2387 31.4217 25.2281 31.6298C24.936 31.3599 24.6439 31.09 24.3614 30.8047L24.3518 30.8202Z" fill="#E37378"/>
<path d="M2.59338 59.8905C2.94732 60.1563 3.31191 60.4289 3.67544 60.6793C2.87693 61.0572 2.523 60.7914 2.59338 59.8905Z" fill="#E37378"/>
<path d="M30.5611 10.9707C30.8596 11.3735 31.1475 11.7696 31.4556 12.1569C31.1571 11.7541 30.8692 11.3581 30.5611 10.9707Z" fill="#E3ACAB"/>
<path d="M12.4488 38.0404C12.549 38.6191 12.6385 39.1911 12.7291 39.7852C12.6289 39.2065 12.5394 38.6345 12.4488 38.0404Z" fill="#E37378"/>
<path d="M55.4592 21.3855C55.7705 21.8393 56.0914 22.2776 56.4133 22.7381C56.102 22.2843 55.7811 21.846 55.4592 21.3855Z" fill="#E37378"/>
<path d="M57.3881 47.0899C57.9137 46.626 58.4489 46.1467 58.9638 45.6761C58.4383 46.14 57.9031 46.6193 57.3881 47.0899Z" fill="#E37378"/>
</svg>
