<svg width="191" height="161" viewBox="0 0 191 161" fill="none" xmlns="http://www.w3.org/2000/svg">
<path d="M97.1425 124.429C94.8526 125.218 92.5627 125.986 90.2728 126.776C89.7163 127.139 89.1599 127.48 88.6035 127.843C87.9614 128.269 87.3194 128.717 86.6774 129.144L85.9497 129.059L85.7143 129.763C83.2318 130.936 80.7492 132.131 78.2667 133.305C73.2374 134.009 68.2295 134.692 63.2002 135.481C62.7294 135.545 62.3228 136.164 61.8947 136.526C60.6749 136.484 59.4336 136.42 58.2137 136.377C57.0367 135.822 55.8596 135.289 54.6825 134.734C51.5793 133.838 49.0326 131.214 45.4586 131.79C39.8729 128.568 34.9506 124.77 33.0673 118.199C34.066 114.23 36.3702 112.075 39.9799 111.734C40.8359 111.648 41.692 111.584 42.548 111.499L42.8049 111.563C43.8749 112.182 44.945 112.801 46.0364 113.441C46.7641 113.355 47.4703 113.291 48.198 113.206C48.6688 113.206 49.1182 113.313 49.5462 113.505C51.1085 115.297 53.0988 115.425 55.239 114.977C55.7098 114.956 56.1806 115.02 56.63 115.19C57.9355 115.745 59.241 116.748 60.5679 116.791C65.5115 116.983 70.4766 117.004 75.4417 116.812C76.7686 116.769 78.0741 115.788 79.3795 115.254C79.8718 115.084 80.364 114.998 80.899 114.977C81.6053 114.657 82.3329 114.337 83.0391 114.017C84.8154 113.035 86.6132 111.841 86.6774 109.664C86.7202 107.765 86.3991 105.738 85.7357 103.967C85.2649 102.73 83.9808 101.791 83.0391 100.724C82.2901 98.5054 80.8134 98.0147 78.7375 98.8468C76.2336 98.7614 73.7082 98.6548 71.2043 98.5694C69.7062 97.9293 68.3365 98.0574 67.2236 99.3375C65.1263 99.7856 63.029 100.212 60.9317 100.639C59.3052 99.9136 57.8713 100.063 56.7156 101.492C55.132 101.749 53.5269 102.005 51.9432 102.261C51.1727 102.389 50.3809 102.517 49.6104 102.645C36.4915 102.858 25.7053 98.292 18.0436 87.3252L18.2363 86.6852L17.5728 86.5358C17.4872 86.2371 17.316 85.9811 17.0806 85.7677C16.7168 82.2472 15.7323 78.9615 13.4424 76.1664C13.0572 73.2007 12.4151 70.235 14.0416 67.4186C15.9677 67.4826 17.8724 67.5466 19.7985 67.6106C25.0204 70.043 30.2423 72.4753 35.4642 74.9076L39.188 76.0811C41.8204 75.9957 44.4741 75.9104 47.1065 75.8251C47.7699 75.3983 48.4334 74.9503 49.0968 74.5235C50.1883 72.8167 51.2583 70.9604 50.2525 69.0188C49.375 67.3333 48.2408 65.4343 46.6785 64.5169C44.3243 63.1087 41.5208 62.4686 38.8884 61.4871C37.3903 59.7589 35.6782 59.5242 33.7521 60.7404C31.3552 60.4203 28.9583 60.1003 26.5613 59.7802C24.999 58.1587 23.1371 57.9027 21.0612 58.6068C19.4561 58.116 17.851 57.6466 16.2459 57.1559C14.8549 55.641 13.4638 54.1262 12.0513 52.6113C12.1797 49.4749 10.9384 46.9359 8.58431 44.9089C7.94227 42.0499 7.27883 39.2122 6.6368 36.3531C6.42278 34.5822 6.20877 32.8113 5.99476 31.0404C5.93055 29.9949 5.88775 28.9495 5.82355 27.904C6.7652 26.0904 6.16597 24.6609 4.68928 23.4661C4.13285 22.1219 3.59782 20.799 3.04139 19.4549C3.04139 17.748 3.04139 16.0624 3.04139 14.3982C8.28469 12.0726 13.635 11.5178 19.0923 11.3258C22.1527 11.2191 25.4485 12.0299 28.1878 9.83225C29.5575 9.66156 30.9272 9.49087 32.2969 9.32018C32.8105 9.42686 33.3241 9.55488 33.8377 9.66156C36.4273 12.1152 39.6161 11.5818 42.7406 11.4751C44.0675 13.31 45.9508 13.5234 47.9839 13.31C54.0405 15.657 58.6203 19.8603 62.5582 24.8956C64.6555 27.584 67.0096 30.0803 69.2354 32.662C69.7918 33.0887 70.3482 33.5154 70.8832 33.9208L71.3541 34.1768C74.9923 36.9719 78.6305 37.5053 82.2901 34.2408L83.9166 31.6592C85.6287 30.0589 85.8855 28.5441 83.7026 27.1146L82.1831 22.5059C85.0081 21.9725 87.191 22.6553 88.9887 25.173C95.4519 34.3048 100.802 43.7781 100.717 55.4277C100.717 57.0919 101.316 58.7774 101.808 60.4203C101.936 60.8257 102.707 61.2524 103.199 61.2738C103.691 61.2951 104.44 60.9537 104.654 60.5697C105.189 59.5669 105.746 58.4787 105.81 57.3906C106.431 49.0268 104.569 41.1324 100.182 34.0488C96.9927 28.8855 93.2261 24.0208 89.4167 19.2628C87.7046 17.1292 85.9711 14.5262 82.6111 14.2275C82.0547 15.145 81.6481 15.8917 81.1558 16.5531C80.471 17.4706 79.722 18.3241 78.9943 19.1988L75.3989 17.4066L73.6226 16.0197C67.8015 12.734 61.7449 10.0456 55.1962 8.55208C52.6708 7.976 50.1455 7.37859 47.6201 6.78118C47.2991 6.14109 46.9567 5.47967 46.6357 4.83959C48.198 4.34885 49.7816 3.83679 51.3439 3.34605C52.735 4.7329 53.8693 4.28485 54.8323 2.81265C55.8382 2.70597 56.8655 2.59929 57.8713 2.49261C68.0369 2.53528 78.2239 2.59929 88.3894 2.64196H88.6035C89.7591 3.17536 90.9148 3.68743 92.0705 4.17816L92.9051 4.37019L93.7398 4.24217L94.1892 4.4342C94.6386 4.6689 95.1094 4.92493 95.5589 5.15963C96.5861 5.73571 97.6134 6.31178 98.662 6.88786C99.3469 7.912 100.032 8.93613 100.717 9.96027C102.257 15.273 104.376 20.4363 104.547 26.1118C104.59 27.1359 105.553 28.1174 106.11 29.1202C107.437 31.2538 108.421 33.7501 110.197 35.4357C113.022 38.1027 116.446 39.3615 119.956 36.1611C124.087 32.4486 124.215 31.1471 120.748 27.4773C119.186 24.6609 117.624 21.8659 116.061 19.0495C116.275 16.9372 115.355 15.6784 113.236 15.3156C110.154 11.2404 106.709 7.52794 102.386 4.7329C102.771 3.68743 103.135 2.62062 103.52 1.57515H103.477L104.055 1.91653C108.828 3.51674 113.707 2.91933 118.587 2.6633C130.635 4.05015 141.464 7.78398 148.612 18.4307C149.19 20.2656 149.768 22.1006 150.346 23.9355C150.688 28.8215 149.704 33.5581 148.57 38.2734L148.42 38.4867C147.97 39.1482 147.5 39.7882 147.05 40.4497C146.9 40.8977 146.665 41.3245 146.344 41.6658C145.916 42.3059 145.488 42.9247 145.06 43.5648L144.953 43.7568C142.107 46.4025 142.235 49.1975 144.525 52.1206C145.509 53.2087 146.323 54.5102 147.478 55.321C154.583 60.335 161.881 57.0492 162.609 48.4507C162.801 46.1464 162.523 43.7781 162.459 41.4525C164.15 39.7456 163.187 38.7428 161.517 37.9533C158.885 32.0432 156.253 26.1118 153.642 20.2016C153.749 19.6042 153.578 19.0922 153.107 18.7081C153.107 18.132 153.192 17.5773 153.364 17.0225C154.498 17.0652 155.632 17.0866 156.766 17.1292C157.366 17.748 157.858 18.6014 158.607 18.9641C164.813 21.9512 169.479 26.6238 173.374 32.1499C173.545 34.1555 174.679 35.457 176.498 36.2038C176.819 36.5238 177.055 36.9079 177.183 37.3559C177.098 39.3615 178.125 40.663 179.88 41.4951L179.965 41.6658C180.029 42.5193 179.901 43.4581 180.222 44.1835C183.539 51.9712 184.288 60.1003 183.732 68.4427C183.646 69.5522 183.967 70.7044 184.096 71.8352L183.924 72.0485C181.763 73.0513 181.763 74.9289 181.977 76.8705L181.891 77.0625C181.249 78.1507 180.607 79.2388 179.965 80.3056C179.452 80.9884 178.938 81.6498 178.424 82.3326C177.868 82.93 177.333 83.5061 176.776 84.1035C176.776 84.1035 176.648 84.2315 176.648 84.2102C176.092 84.7436 175.535 85.2983 174.979 85.8317L174.85 85.9384C174.187 86.3651 173.502 86.7918 172.839 87.1972L172.86 87.752C172.304 88.1787 171.747 88.6054 171.191 89.0535C170.313 89.2455 169.436 89.4375 168.558 89.6296C167.66 90.099 166.761 90.5897 165.862 91.0591L165.412 91.4005C165.412 91.4005 164.856 91.3365 164.835 91.3365C163.165 90.9097 161.667 91.0591 160.554 92.5526C157.601 92.958 154.648 93.3634 151.694 93.7901C151.095 93.4061 150.474 93.0433 149.875 92.6806C149.297 92.638 148.719 92.5739 148.163 92.5313C145.83 92.6166 143.498 92.702 141.143 92.8086C140.223 92.7233 139.282 92.638 138.361 92.5526C135.387 90.6964 132.134 89.1602 129.501 86.8985C120.406 79.0895 111.096 71.6218 100.909 65.2423C91.2572 59.1828 81.7979 52.8033 72.1031 46.8292C66.6244 43.4581 60.9959 40.2576 55.1748 37.548C45.373 32.982 35.3786 28.8428 25.4485 24.5969C24.7636 24.2982 23.822 24.6396 22.2597 24.7036C23.1799 26.0691 23.5652 27.1786 24.357 27.7333C26.2831 29.0348 28.359 30.1656 30.4349 31.2111C45.6298 38.7641 60.097 47.5973 74.2432 56.9212C79.6149 60.463 84.5158 64.7516 90.1229 67.8667C99.6679 73.1794 107.736 80.3697 116.361 86.8772C117.345 87.624 117.538 89.4162 118.094 90.7177C115.291 91.2938 112.316 91.4645 109.705 92.5313C104.547 94.6009 99.4111 96.3931 93.7398 96.2651C92.7553 96.2438 91.3 96.3931 91.621 99.2948C98.7904 99.4655 106.024 100.511 113.343 98.036C117.024 96.7985 118.415 94.4942 118.287 90.9097C123.509 92.5526 127.917 95.3263 131.063 99.9136C130.293 107.339 132.348 114.123 135.857 120.546C136.071 121.079 136.2 121.612 136.2 122.189C136.2 127.032 136.2 131.875 136.2 136.719C136.2 137.273 136.05 137.807 135.815 138.297C135.472 139.044 135.13 139.77 134.766 140.516C134.659 141.007 134.466 141.476 134.167 141.882C133.76 142.586 133.332 143.311 132.925 144.015C131.62 145.68 130.293 147.344 128.988 149.008C128.41 149.563 127.832 150.139 127.254 150.694C126.205 151.44 125.157 152.187 124.108 152.934C123.402 153.382 122.696 153.851 121.989 154.321C121.626 154.662 121.176 154.897 120.684 155.025C119.978 155.388 119.25 155.75 118.544 156.092L118.394 156.156C117.195 156.625 116.018 157.095 114.82 157.564C112.38 158.119 109.94 158.673 107.501 159.228C106.217 157.607 105.125 157.82 104.184 159.57C98.2126 160.338 92.3059 160.38 86.5703 158.183C85.5645 156.049 83.8524 155.814 81.8407 156.476C80.4496 156.134 79.0585 155.772 77.6674 155.43C77.004 154.982 76.362 154.534 75.6985 154.086C72.7238 152.443 69.7062 150.843 68.3365 147.408C68.4221 146.597 68.5077 145.786 68.5933 144.976L68.6789 144.912C72.4027 144.869 76.1266 144.805 79.8504 144.762C81.9049 144.72 83.9594 144.698 86.0139 144.656C88.6891 145.232 91.3 145.53 93.4187 143.226C93.8468 143.013 94.3176 142.885 94.8098 142.863C96.4149 143.247 97.7204 142.863 98.662 141.455C102.236 139.236 106.495 137.679 107.394 132.793C109.149 130.51 108.186 128.909 106.067 127.587C104.676 125.709 102.728 124.813 100.46 124.536C99.3897 123.149 98.2768 123.17 97.1425 124.45V124.429ZM77.5604 88.9681C81.0702 88.9681 84.6014 89.1815 88.1112 88.9041C92.1989 88.5841 96.9071 84.9569 96.6075 82.5459C96.1581 78.8335 93.1619 77.3826 90.2086 75.9744C89.9517 75.8464 89.6735 75.7184 89.3953 75.6117C82.6325 73.4781 75.6771 72.3046 68.6361 73.3501C65.5329 73.7981 62.3656 74.9929 59.669 76.5932C55.9452 78.7694 55.9238 82.5673 59.134 85.3196C61.6379 87.4746 64.5271 88.8188 67.8871 88.8828C71.1187 88.9468 74.3288 88.8828 77.5604 88.8828V88.9681ZM133.011 63.0233C130.143 63.258 128.26 66.0958 129.03 69.0401C130.357 74.1608 132.754 78.7481 137.034 82.1192C139.324 83.9115 142.342 84.0608 144.311 82.6313C145.959 81.4151 146.708 78.8335 145.916 76.2944C144.118 70.5123 140.758 66.0104 135.087 63.4927C134.338 63.1514 133.439 63.1087 133.032 63.0233H133.011ZM30.0497 48.6214C30.756 48.4081 31.9116 48.1734 32.9603 47.7466C34.5226 47.1279 35.186 44.6742 34.1588 43.3087C30.3493 38.2734 25.3843 34.7956 19.2421 33.2807C18.1507 33.0033 16.2459 33.8781 15.5183 34.8383C14.7907 35.777 14.4482 37.8893 15.0475 38.8068C18.4503 44.0982 22.7091 48.3441 30.0497 48.6214Z" fill="#58A25B"/>
<path d="M118.094 90.6537C117.538 89.3522 117.345 87.56 116.361 86.8132C107.736 80.3056 99.6679 73.1154 90.1229 67.8027C84.5372 64.6876 79.6149 60.399 74.2432 56.8572C60.097 47.5333 45.6298 38.7001 30.4349 31.1471C28.3376 30.1016 26.2831 28.9708 24.357 27.6693C23.5652 27.1359 23.1585 26.0051 22.2597 24.6396C23.822 24.5756 24.7636 24.2555 25.4485 24.5329C35.4 28.7788 45.373 32.918 55.1748 37.4839C60.9959 40.1936 66.6244 43.3941 72.1031 46.7652C81.7979 52.7606 91.2572 59.1188 100.909 65.1783C111.096 71.5578 120.406 79.0255 129.501 86.8345C132.134 89.0962 135.387 90.611 138.361 92.4886C138.468 94.2808 139.26 95.561 141.058 96.1371C144.354 98.6761 147.649 101.194 150.945 103.733V103.285L151.009 103.733C152.336 104.885 153.642 106.016 154.969 107.168C155.696 108.149 156.445 109.131 157.173 110.112C157.729 110.582 158.286 111.072 158.821 111.542L158.992 111.691C159.57 112.203 160.148 112.715 160.726 113.227L160.811 113.313C161.389 113.825 161.988 114.358 162.566 114.87L162.673 114.956C163.229 117.601 164.942 118.711 167.574 118.625L167.745 118.711C168.451 120.098 169.607 120.567 171.105 120.311L171.298 120.396C172.667 123.255 173.031 126.285 172.839 129.4C168.409 134.5 167.595 134.542 163.337 129.806C163.722 127.693 162.908 126.328 160.768 125.837C155.996 121.058 151.223 116.278 146.472 111.499C145.274 108 143.07 105.632 139.239 105.098C138.147 104.224 137.077 103.37 135.986 102.495C135.28 99.8923 133.396 99.4655 131.085 99.8496C127.939 95.2623 123.53 92.4886 118.308 90.8457L118.116 90.6537H118.094Z" fill="#48635B"/>
<path d="M179.944 41.6232C183.368 44.4182 183.732 48.6001 184.888 52.4193C185.551 54.6169 185.893 56.8999 186.386 59.1615C186.428 60.9111 186.45 62.6606 186.493 64.4102C185.679 66.8639 184.866 69.3389 184.053 71.7925C183.924 70.6617 183.625 69.5309 183.689 68.4001C184.245 60.0576 183.496 51.9285 180.179 44.1408C179.858 43.3941 180.008 42.4553 179.922 41.6232H179.944Z" fill="#86959D"/>
<path d="M150.924 103.754C147.628 101.215 144.332 98.6974 141.036 96.1584C141.079 95.0276 141.101 93.8968 141.143 92.766C143.476 92.6806 145.809 92.5953 148.163 92.4886C148.741 92.5313 149.319 92.5953 149.875 92.638C150.474 93.0007 151.095 93.3847 151.694 93.7474C151.437 97.0759 151.181 100.404 150.924 103.733V103.754Z" fill="#E6E8EF"/>
<path d="M184.074 71.7925C184.888 69.3389 185.701 66.8639 186.514 64.4102C188.355 64.6662 190.452 65.349 189.917 67.4826C188.868 71.7072 187.434 75.8677 185.701 79.8576C184.866 81.7992 182.983 81.7565 181.485 80.0283C181.613 79.0255 181.742 78.0227 181.849 76.9985L181.934 76.8065C183.582 75.6117 183.903 73.8621 183.882 71.9845L184.053 71.7712L184.074 71.7925Z" fill="#E6E8EF"/>
<path d="M28.145 9.85359C25.4057 12.0512 22.1099 11.2404 19.0495 11.3471C13.5922 11.5391 8.26329 12.0726 2.99859 14.4195C2.99859 16.0838 2.99859 17.7693 2.99859 19.4762C0.109424 17.7053 -0.468409 15.145 0.323436 12.0726C2.14254 11.5818 3.94024 11.0911 5.75935 10.579C7.42864 10.323 9.09793 10.0669 10.7672 9.81092C11.9443 9.66156 13.1 9.51221 14.277 9.36286C17.102 9.29885 19.9484 9.23484 22.7733 9.17083C24.5496 9.38419 26.3473 9.61889 28.1236 9.83225L28.145 9.85359Z" fill="#86959D"/>
<path d="M131.063 99.8496C133.375 99.4655 135.258 99.8923 135.964 102.495C134.231 102.837 132.455 103.306 132.776 105.589C133.097 107.829 133.803 110.006 134.252 112.203C134.83 114.956 135.322 117.729 135.857 120.503C132.348 114.059 130.314 107.296 131.063 99.8709V99.8496Z" fill="#86959D"/>
<path d="M42.548 111.478C41.692 111.563 40.8359 111.627 39.9799 111.713C36.3702 112.054 34.066 114.209 33.0673 118.177C32.3825 116.663 31.3338 115.212 31.077 113.633C30.7132 111.328 32.1898 109.75 34.437 109.558C37.3261 109.302 40.1725 109.344 42.5266 111.478H42.548Z" fill="#7FA260"/>
<path d="M79.3581 115.233C78.0527 115.788 76.7472 116.748 75.4203 116.791C70.4766 116.961 65.5115 116.961 60.5465 116.769C59.2196 116.705 57.9141 115.724 56.6086 115.169C64.1847 115.19 71.7821 115.212 79.3581 115.233Z" fill="#86959D"/>
<path d="M61.8947 136.526C62.3228 136.164 62.7294 135.545 63.2002 135.481C68.2081 134.713 73.2374 134.03 78.2667 133.305C73.323 136.932 67.6945 137.167 61.8947 136.526Z" fill="#7FA260"/>
<path d="M139.217 105.098C143.07 105.632 145.252 108 146.451 111.499C142.791 110.752 140.608 108.384 139.217 105.098Z" fill="#86959D"/>
<path d="M172.839 129.4C173.031 126.285 172.667 123.255 171.298 120.396C173.267 120.482 174.508 121.57 174.915 123.405C175.45 125.773 175.107 127.949 172.839 129.379L172.839 129.4Z" fill="#58A25B"/>
<path d="M45.4586 131.769C49.0326 131.192 51.5793 133.817 54.6825 134.713C54.7681 135.14 54.7895 135.566 54.7681 136.014C51.0443 135.929 47.7699 134.884 45.4586 131.769Z" fill="#86959D"/>
<path d="M5.95196 31.0191C6.16597 32.79 6.37998 34.5609 6.59399 36.3318C5.78075 36.2251 4.77489 36.3745 4.17566 35.9477C3.38381 35.393 2.42076 34.3689 2.46356 33.5794C2.48496 32.79 3.57642 31.9579 4.34686 31.3178C4.71069 31.0191 5.39552 31.1044 5.95196 31.0191Z" fill="#E6E8EF"/>
<path d="M13.3782 76.1664C15.6681 78.9615 16.6312 82.2472 17.0164 85.7677C13.1856 83.5488 13.0786 79.9429 13.3782 76.1664Z" fill="#A7C5C7"/>
<path d="M136.178 136.654C136.178 131.811 136.178 126.968 136.178 122.125C138.404 126.968 138.554 131.811 136.178 136.654Z" fill="#86959D"/>
<path d="M8.5201 44.9089C10.8742 46.9359 12.1155 49.4749 11.9871 52.6113C9.16214 50.7764 7.74966 48.3227 8.5201 44.9089Z" fill="#86959D"/>
<path d="M168.751 128.312C166.932 128.803 165.134 129.294 163.315 129.806C164.706 125.581 165.327 125.41 168.751 128.312Z" fill="#E6E8EF"/>
<path d="M68.6789 144.912C72.4027 144.869 76.1266 144.805 79.8504 144.762C76.1051 143.418 72.3599 141.839 68.6789 144.912Z" fill="#86959D"/>
<path d="M106.067 127.587C108.186 128.888 109.149 130.488 107.394 132.793C106.944 131.064 106.516 129.336 106.067 127.587Z" fill="#A7C5C7"/>
<path d="M28.145 9.85359C26.3687 9.64023 24.571 9.40553 22.7947 9.19217C25.8551 8.74411 28.8941 8.31738 31.9544 7.86932C32.1042 8.33872 32.1898 8.82945 32.2541 9.34152C30.8844 9.51221 29.5147 9.6829 28.145 9.85359Z" fill="#A7C5C7"/>
<path d="M165.455 116.022C168.002 113.846 168.451 113.91 169.158 116.748C169.286 117.281 169.243 117.857 169.286 118.412C168.772 118.519 168.259 118.604 167.745 118.689L167.574 118.604C166.868 117.751 166.161 116.876 165.477 116.022H165.455Z" fill="#E6E8EF"/>
<path d="M81.8407 156.454C83.8738 155.772 85.5645 156.006 86.5703 158.161C84.6228 158.588 83.0819 157.927 81.8407 156.454Z" fill="#7FA260"/>
<path d="M86.0139 144.656C88.6891 145.232 91.3 145.53 93.4187 143.226C90.9576 143.717 88.4751 144.186 86.0139 144.656Z" fill="#86959D"/>
<path d="M14.277 9.38419C13.1 9.53355 11.9443 9.6829 10.7672 9.83225C11.2809 9.00014 11.8159 8.16803 12.3295 7.35725C12.9716 8.04001 13.635 8.72277 14.277 9.40553V9.38419Z" fill="#E6E8EF"/>
<path d="M4.62508 23.4661C6.10176 24.6609 6.701 26.0904 5.75935 27.904C4.30406 26.6878 3.72623 25.2583 4.62508 23.4661Z" fill="#A7C5C7"/>
<path d="M160.768 125.816C162.908 126.328 163.7 127.672 163.337 129.784C161.603 129.016 160.768 127.693 160.768 125.816Z" fill="#86959D"/>
<path d="M97.1425 124.429C98.2768 123.17 99.3897 123.149 100.46 124.514C99.3255 125.794 98.2126 125.73 97.1425 124.429Z" fill="#A7C5C7"/>
<path d="M165.455 116.022C166.161 116.876 166.868 117.751 167.553 118.604C164.942 118.689 163.208 117.601 162.652 114.934C163.572 115.297 164.514 115.66 165.434 116.001L165.455 116.022Z" fill="#58A25B"/>
<path d="M154.926 107.168C153.599 106.016 152.293 104.885 150.967 103.733C153.164 103.775 154.484 104.92 154.926 107.168Z" fill="#E6E8EF"/>
<path d="M78.6947 98.8468C80.7706 98.0147 82.2687 98.5054 82.9963 100.724C81.5625 100.106 80.1286 99.4869 78.6947 98.8468Z" fill="#86959D"/>
<path d="M56.6514 101.514C57.8285 100.063 59.2624 99.9349 60.8675 100.66C59.6476 101.855 58.3421 102.645 56.6514 101.514Z" fill="#86959D"/>
<path d="M14.2128 65.7971C16.2031 65.9677 18.2791 65.8611 19.7343 67.632C17.8296 67.5679 15.9035 67.5039 13.9774 67.4399C13.956 66.8852 14.0416 66.3305 14.2128 65.7971Z" fill="#A7C5C7"/>
<path d="M55.2176 114.934C53.0774 115.382 51.0871 115.254 49.5248 113.462C51.4295 113.953 53.3342 114.444 55.2176 114.934Z" fill="#86959D"/>
<path d="M104.184 159.527C105.125 157.777 106.217 157.564 107.501 159.186C106.388 159.292 105.296 159.42 104.184 159.527Z" fill="#7FA260"/>
<path d="M98.662 141.455C97.7204 142.885 96.4149 143.247 94.8098 142.863C96.0939 142.394 97.378 141.925 98.662 141.455Z" fill="#86959D"/>
<path d="M54.7895 136.014C54.8109 135.588 54.7895 135.14 54.7039 134.713C55.881 135.268 57.0581 135.801 58.2351 136.356C57.0795 136.249 55.9452 136.121 54.7895 136.014Z" fill="#7FA260"/>
<path d="M167.724 118.711C168.237 118.625 168.751 118.54 169.265 118.433C169.864 119.052 170.485 119.692 171.084 120.311C169.586 120.567 168.43 120.098 167.724 118.711Z" fill="#58A25B"/>
<path d="M46.015 113.398C44.945 112.779 43.8749 112.161 42.7835 111.52C43.7893 111.713 44.7738 111.883 45.7796 112.075C45.8438 112.523 45.908 112.95 46.015 113.398Z" fill="#7FA260"/>
<path d="M181.87 77.0199C181.742 78.0227 181.613 79.0255 181.506 80.0496C180.993 80.1563 180.479 80.2203 179.944 80.2843C180.586 79.1962 181.228 78.108 181.87 77.0412V77.0199Z" fill="#86959D"/>
<path d="M160.554 92.5313C161.667 91.0378 163.165 90.8884 164.835 91.3151C163.401 91.7205 161.988 92.1259 160.554 92.5313Z" fill="#7FA260"/>
<path d="M67.1808 99.3375C68.3151 98.036 69.6634 97.908 71.1615 98.5694C69.8346 98.8255 68.5077 99.0815 67.1808 99.3375Z" fill="#86959D"/>
<path d="M171.191 89.0322C171.747 88.6054 172.304 88.1787 172.86 87.7306C172.304 88.1574 171.747 88.5841 171.191 89.0322Z" fill="#E6E8EF"/>
<path d="M172.817 87.1759C173.481 86.7492 174.166 86.3225 174.829 85.9171C174.166 86.3438 173.481 86.7705 172.817 87.1759Z" fill="#86959D"/>
<path d="M17.5086 86.5358L18.1721 86.6852C18.1721 86.6852 18.0008 87.3253 17.9794 87.3253C17.6584 87.1546 17.4872 86.8985 17.4872 86.5358H17.5086Z" fill="#A7C5C7"/>
<path d="M174.957 85.8104C175.514 85.277 176.07 84.7222 176.627 84.1888C176.07 84.7436 175.514 85.277 174.957 85.8104Z" fill="#86959D"/>
<path d="M158.799 111.542C158.243 111.072 157.687 110.582 157.152 110.112C157.708 110.582 158.264 111.072 158.799 111.542Z" fill="#58A25B"/>
<path d="M46.015 113.398C45.9294 112.971 45.8438 112.523 45.7796 112.075C46.5715 112.438 47.3633 112.801 48.1552 113.163C47.4275 113.249 46.7213 113.313 45.9936 113.398H46.015Z" fill="#86959D"/>
<path d="M85.7143 129.742L85.9497 129.037L86.6773 129.123C86.4633 129.507 86.1423 129.699 85.7143 129.742Z" fill="#A7C5C7"/>
<path d="M134.744 140.474C135.087 139.727 135.429 138.98 135.793 138.255C135.451 139.001 135.108 139.727 134.744 140.474Z" fill="#86959D"/>
<path d="M68.5933 144.954C68.5077 145.765 68.4221 146.576 68.3365 147.387C67.2878 146.448 67.2236 145.637 68.5933 144.954Z" fill="#86959D"/>
<path d="M118.544 156.028C119.25 155.665 119.978 155.302 120.684 154.961C119.978 155.324 119.25 155.686 118.544 156.028Z" fill="#86959D"/>
<path d="M77.5818 88.9255C74.3502 88.9255 71.1401 88.9681 67.9085 88.9255C64.5485 88.8615 61.6593 87.5173 59.1554 85.3623C55.9452 82.5886 55.988 78.8121 59.6904 76.6358C62.387 75.0569 65.5543 73.8621 68.6575 73.3927C75.6985 72.3686 82.6539 73.5207 89.4167 75.6544C89.6949 75.7397 89.9517 75.8891 90.2299 76.0171C93.1833 77.4253 96.1795 78.8761 96.6289 82.5886C96.9285 84.9996 92.2203 88.6268 88.1326 88.9468C84.6442 89.2242 81.113 89.0108 77.5818 89.0108V88.9255Z" fill="#48635B"/>
<path d="M82.1403 22.5059C81.0702 21.3965 80.0216 20.287 78.9515 19.1988C79.6791 18.3241 80.4282 17.4706 81.113 16.5531C81.6053 15.8704 82.0119 15.1236 82.5683 14.2275C85.9283 14.5262 87.6618 17.1079 89.3739 19.2628C93.1833 24.0208 96.9285 28.8855 100.139 34.0488C104.526 41.1324 106.388 49.0268 105.767 57.3906C105.682 58.4787 105.147 59.5882 104.612 60.5697C104.398 60.9751 103.649 61.3164 103.156 61.2738C102.664 61.2524 101.894 60.8257 101.765 60.4203C101.273 58.7988 100.652 57.0919 100.674 55.4277C100.781 43.7781 95.409 34.2835 88.9459 25.173C87.1696 22.6553 84.9652 21.9939 82.1403 22.5059Z" fill="#48635B"/>
<path d="M133.032 63.0233C133.439 63.1087 134.338 63.1514 135.087 63.4927C140.758 66.0104 144.118 70.5123 145.916 76.2944C146.686 78.8121 145.959 81.4151 144.311 82.6313C142.342 84.0608 139.324 83.9115 137.034 82.1192C132.754 78.7481 130.379 74.1608 129.03 69.0401C128.26 66.0958 130.143 63.258 133.011 63.0233H133.032Z" fill="#48635B"/>
<path d="M30.0711 48.6214C22.7305 48.3441 18.4717 44.0982 15.0689 38.8068C14.491 37.9107 14.8335 35.7984 15.5397 34.8383C16.2673 33.8781 18.1721 33.0033 19.2635 33.2807C25.4057 34.7956 30.3707 38.2734 34.1802 43.3087C35.2288 44.6956 34.5654 47.1279 32.9817 47.7466C31.9116 48.1734 30.7774 48.4081 30.0711 48.6214Z" fill="#48635B"/>
<path d="M118.287 90.8457C118.415 94.4515 117.024 96.7345 113.343 97.972C106.024 100.447 98.7904 99.4229 91.621 99.2308C91.2786 96.3291 92.7553 96.1798 93.7397 96.2011C99.4111 96.3291 104.547 94.5369 109.705 92.4673C112.316 91.4218 115.291 91.2298 118.094 90.6537L118.287 90.8457Z" fill="#48635B"/>
<path d="M57.8285 2.47127C68.0155 -0.60114 78.2025 -1.09187 88.3466 2.62062C78.1811 2.55661 67.9941 2.51394 57.8285 2.47127Z" fill="#86959D"/>
<path d="M100.652 9.96027C103.135 11.3898 104.055 13.8435 104.462 16.3825C105.147 20.607 105.532 24.8743 106.045 29.1202C105.51 28.1174 104.526 27.1146 104.483 26.0904C104.312 20.4363 102.193 15.273 100.652 9.93893V9.96027Z" fill="#86959D"/>
<path d="M152.015 31.3178C151.716 34.0702 151.009 36.6092 148.548 38.252C149.661 33.5368 150.646 28.8001 150.325 23.8928C150.753 23.9995 151.181 24.0848 151.609 24.1488C151.716 24.6182 151.801 25.0876 151.865 25.557C151.93 27.4773 151.972 29.3762 152.037 31.2751L152.015 31.3178Z" fill="#86959D"/>
<path d="M119.892 36.1398C120.149 33.238 120.427 30.3577 120.684 27.4559C124.129 31.1258 124.022 32.4273 119.892 36.1398Z" fill="#86959D"/>
<path d="M104.012 1.89519C108.935 0.444333 113.793 0.551014 118.544 2.64196C113.686 2.89799 108.785 3.49541 104.012 1.89519Z" fill="#86959D"/>
<path d="M71.3113 34.1768C74.9495 34.1768 78.6091 34.2195 82.2473 34.2408C78.5877 37.5266 74.9495 36.9719 71.3113 34.1768Z" fill="#A7C5C7"/>
<path d="M26.4757 59.7802C24.2072 61.3805 22.4309 60.719 20.9756 58.6068C23.0515 57.9027 24.9134 58.1587 26.4757 59.7802Z" fill="#A7C5C7"/>
<path d="M38.8028 61.5085C36.8339 62.9593 35.1432 62.6606 33.6665 60.7617C35.5926 59.5669 37.3047 59.7803 38.8028 61.5085Z" fill="#A7C5C7"/>
<path d="M144.953 43.7354C144.803 46.5305 144.653 49.3042 144.525 52.0992C142.235 49.1762 142.128 46.3811 144.953 43.7354Z" fill="#86959D"/>
<path d="M151.587 24.1702C151.159 24.0848 150.731 23.9995 150.303 23.9141C149.725 22.0792 149.147 20.2443 148.57 18.4094C150.068 18.4947 151.587 18.6014 153.085 18.6868C153.556 19.0922 153.727 19.5829 153.62 20.1803C152.936 21.5031 152.272 22.8473 151.587 24.1702Z" fill="#A7C5C7"/>
<path d="M42.4196 10.1096C42.4838 10.5577 42.5694 11.0271 42.6764 11.4751C39.5519 11.6032 36.3631 12.1366 33.7735 9.66156C36.6627 9.81092 39.5305 9.96027 42.4196 10.1096Z" fill="#86959D"/>
<path d="M51.3011 3.32472C52.2856 2.02321 53.4413 1.80985 54.7895 2.79131C53.8265 4.26351 52.7136 4.71157 51.3011 3.32472Z" fill="#86959D"/>
<path d="M115.997 19.0495C114.264 18.3881 113.236 17.2146 113.172 15.2943C115.291 15.657 116.211 16.9159 115.997 19.0495Z" fill="#86959D"/>
<path d="M83.8738 31.6378C83.8096 30.123 83.724 28.6081 83.6598 27.0932C85.8427 28.5014 85.5859 30.0376 83.8738 31.6378Z" fill="#A7C5C7"/>
<path d="M162.438 41.4525C162.117 40.279 161.817 39.1055 161.496 37.9533C163.165 38.7641 164.128 39.7669 162.438 41.4525Z" fill="#86959D"/>
<path d="M173.374 32.1286C175.107 32.9393 176.263 34.2195 176.498 36.1824C174.679 35.4357 173.545 34.1555 173.374 32.1286Z" fill="#86959D"/>
<path d="M42.655 11.4965C44.6668 11.3258 46.4859 11.7738 47.8983 13.3314C45.8652 13.5234 43.9819 13.3314 42.655 11.4965Z" fill="#86959D"/>
<path d="M177.162 37.3132C178.061 38.7001 178.959 40.0656 179.858 41.4525C178.103 40.6417 177.097 39.3188 177.162 37.3132Z" fill="#86959D"/>
<path d="M88.5607 2.64196C89.6521 2.7273 90.7222 2.81265 91.8136 2.89799C91.8564 3.32472 91.9206 3.75144 92.0276 4.15683C90.872 3.64476 89.7163 3.13269 88.5607 2.64196Z" fill="#86959D"/>
<path d="M47.5987 6.75984C46.5287 6.09842 45.4586 5.437 44.3885 4.77558C45.1376 4.77558 45.8652 4.79691 46.6143 4.81825C46.9567 5.45833 47.2777 6.11976 47.5987 6.75984Z" fill="#86959D"/>
<path d="M153.364 17.0012C154.904 14.9529 154.99 14.9743 156.766 17.1079C155.632 17.0652 154.498 17.0439 153.364 17.0012Z" fill="#86959D"/>
<path d="M35.4 74.9076C36.6413 75.2916 37.8826 75.697 39.1024 76.0811C37.8612 75.697 36.6199 75.2916 35.4 74.9076Z" fill="#A7C5C7"/>
<path d="M141.122 92.766C141.079 93.8968 141.058 95.0276 141.015 96.1584C139.239 95.6037 138.447 94.3022 138.318 92.5099C139.239 92.5953 140.18 92.6806 141.101 92.766H141.122Z" fill="#A7C5C7"/>
<path d="M149.854 92.638C149.276 92.5953 148.698 92.5313 148.142 92.4886C148.719 92.5313 149.297 92.5953 149.854 92.638Z" fill="#7FA260"/>
<path d="M69.1712 32.6406C69.7276 33.0674 70.284 33.4941 70.819 33.8995C70.2626 33.4727 69.7062 33.046 69.1712 32.6406Z" fill="#A7C5C7"/>
<path d="M94.125 4.4342C94.7242 4.4342 95.1736 4.6689 95.4946 5.15963C95.0452 4.92493 94.5744 4.6689 94.125 4.4342Z" fill="#A7C5C7"/>
<path d="M92.0276 4.17816C91.9206 3.75144 91.8564 3.34605 91.8136 2.91933C92.4343 3.36739 93.0763 3.81545 93.6969 4.26351L92.8623 4.39153L92.0276 4.1995V4.17816Z" fill="#A7C5C7"/>
<path d="M103.456 1.55381L103.349 0.871056L103.435 1.55381H103.456Z" fill="#86959D"/>
<path d="M152.015 31.3178C151.951 29.4189 151.908 27.4986 151.844 25.5997C153.492 27.4559 153.492 29.3762 152.015 31.3178Z" fill="#A7C5C7"/>
</svg>
