<svg width="80" height="80" viewBox="0 0 80 80" fill="none" xmlns="http://www.w3.org/2000/svg">
<circle cx="40" cy="40" r="40" fill="#F29C1F"/>
<path d="M28.8668 63C27.5164 63 26.166 62.486 25.1379 61.4578C24.026 60.3459 23.5155 58.8566 23.6061 57.3983C23.4959 57.4051 23.3849 57.4085 23.2734 57.4085C21.8649 57.4085 20.5406 56.8599 19.5445 55.8637C18.5485 54.8677 18 53.5433 18 52.1346C18 50.7259 18.5485 49.4014 19.5446 48.4053C20.5406 47.4091 21.8649 46.8606 23.2734 46.8606C24.2313 46.8606 25.1502 47.1142 25.9533 47.5899L47.5889 25.9517C47.1134 25.1485 46.8598 24.2295 46.8598 23.2717C46.8598 21.863 47.4083 20.5385 48.4043 19.5423C50.4605 17.4859 53.8059 17.4859 55.8621 19.5423C56.8582 20.5385 57.4066 21.8629 57.4066 23.2716C57.4066 23.383 57.4032 23.494 57.3964 23.6042C58.8546 23.5134 60.3435 24.0241 61.4554 25.1362C62.4515 26.1324 63 27.4569 63 28.8655C63 30.2742 62.4515 31.5987 61.4554 32.5948C60.4594 33.591 59.1351 34.1396 57.7266 34.1396C56.7687 34.1396 55.8498 33.8859 55.0467 33.4102L33.4099 55.0495C34.6014 57.0712 34.3299 59.7233 32.5956 61.4578C31.5676 62.486 30.2171 63 28.8668 63ZM27.0024 55.8638C25.9743 56.892 25.9743 58.565 27.0024 59.5933C28.0303 60.6213 29.7032 60.6213 30.7312 59.5933C31.7593 58.5651 31.7593 56.8921 30.7312 55.8638L29.7991 54.9316L54.9299 29.7978L55.8621 30.7302C56.3601 31.2282 57.0223 31.5025 57.7266 31.5025C58.4308 31.5025 59.093 31.2282 59.591 30.7302C60.0891 30.2321 60.3633 29.5699 60.3633 28.8655C60.3633 28.1611 60.089 27.499 59.591 27.0008C58.563 25.9728 56.8902 25.9728 55.8621 27.0008L53.9977 25.1362C54.4957 24.6382 54.77 23.9759 54.77 23.2716C54.77 22.5671 54.4957 21.905 53.9977 21.4069C52.9697 20.3788 51.2969 20.3788 50.2689 21.4069C49.7709 21.905 49.4966 22.5671 49.4966 23.2716C49.4966 23.9759 49.7709 24.6382 50.2689 25.1362L51.2011 26.0685L26.0701 51.2023L25.1379 50.2699C24.6399 49.7719 23.9777 49.4976 23.2734 49.4976C22.5692 49.4976 21.907 49.7719 21.409 50.2699C20.9109 50.768 20.6367 51.4302 20.6367 52.1346C20.6367 52.8389 20.911 53.5012 21.409 53.9992C21.9071 54.4972 22.5692 54.7716 23.2734 54.7716C23.9777 54.7716 24.6399 54.4972 25.1379 53.9992L27.0024 55.8638Z" fill="white"/>
<path d="M24.3623 26.2271L26.2265 24.3628L31.819 29.9559L29.9548 31.8202L24.3623 26.2271Z" fill="white"/>
<path d="M20.6367 35.226H28.5469V37.863H20.6367V35.226Z" fill="white"/>
<path d="M35.2266 20.6346H37.8633V28.5456H35.2266V20.6346Z" fill="white"/>
<path d="M49.1715 51.0443L51.0356 49.1799L56.6281 54.773L54.764 56.6373L49.1715 51.0443Z" fill="white"/>
<path d="M52.4531 43.137H60.3633V45.774H52.4531V43.137Z" fill="white"/>
<path d="M43.1367 52.4544H45.7734V60.3655H43.1367V52.4544Z" fill="white"/>
</svg>
