<svg width="80" height="80" viewBox="0 0 80 80" fill="none" xmlns="http://www.w3.org/2000/svg">
<circle cx="40" cy="40" r="40" fill="#1FBFF2"/>
<path d="M40.0509 42.1C39.4396 43.1761 38.2946 43.8446 37.0627 43.8446C35.8308 43.8446 34.6859 43.1761 34.0744 42.1001C33.8667 41.7342 33.4025 41.6069 33.038 41.8151C32.6734 42.0235 32.5462 42.489 32.754 42.8548C33.635 44.4058 35.2861 45.3692 37.0627 45.3692C38.8393 45.3692 40.4902 44.4058 41.3714 42.8549C41.5791 42.4891 41.4521 42.0236 41.0874 41.8152C40.723 41.6067 40.2588 41.7341 40.0509 42.1Z" fill="white"/>
<path d="M30.7305 38.9546C31.5788 38.6019 31.9815 37.6261 31.6299 36.7751C31.2782 35.9242 30.3055 35.5203 29.4571 35.873C28.6088 36.2257 28.2061 37.2015 28.5578 38.0525C28.9094 38.9035 29.8822 39.3074 30.7305 38.9546Z" fill="white"/>
<path d="M44.6888 38.9503C45.5372 38.5975 45.9398 37.6217 45.5882 36.7708C45.2366 35.9198 44.2638 35.5159 43.4155 35.8686C42.5671 36.2214 42.1645 37.1971 42.5161 38.0481C42.8677 38.8991 43.8405 39.303 44.6888 38.9503Z" fill="white"/>
<path d="M61.7166 44.0879L60.5689 44.0796C56.7764 44.052 55.0989 42.6627 54.675 42.2375C54.475 42.0369 54.2871 41.8185 54.1165 41.5882C53.79 41.1477 53.2889 40.8943 52.7415 40.8929C52.1909 40.8924 51.6888 41.1434 51.359 41.584C51.1885 41.8119 50.9981 42.0318 50.7928 42.2376C50.1181 42.9144 48.4551 44.0537 44.899 44.0796L43.7512 44.0879C43.0453 44.0931 42.4678 44.6766 42.4678 45.3847V52.3274C42.4678 52.3309 42.4658 52.3343 42.4626 52.3359C40.7106 53.2433 38.8945 53.7043 37.0627 53.7043C30.2296 53.7043 24.9829 47.4731 22.9995 41.6832C22.9993 41.6826 22.999 41.6821 22.9987 41.6816C22.8056 41.3557 22.649 41.0495 21.9301 41.2441C20.4443 41.6817 18.3374 39.8858 17.7189 38.1633C17.4198 37.3304 17.4582 36.438 17.8242 35.7147C18.1473 35.0763 18.6999 34.6143 19.3802 34.414C19.923 34.2541 20.2863 34.3894 20.675 34.8965C20.7936 35.0514 20.9636 35.164 21.1566 35.191C21.6218 35.2561 21.9997 34.9249 22.0376 34.5046C22.2224 32.4506 22.8438 30.598 23.8847 28.9899C23.8865 28.9872 23.8894 28.9856 23.8925 28.9856C25.1975 28.976 26.397 28.2149 26.9495 27.0178C26.9509 27.0147 26.954 27.0127 26.9574 27.0126C28.2803 26.9676 29.526 26.3757 30.3976 25.3715C30.6549 25.0752 30.8739 24.7501 31.0508 24.4026C31.053 24.3983 31.0581 24.3964 31.0625 24.3984C31.7316 24.6857 32.4419 24.831 33.1778 24.831C34.2971 24.831 35.3627 24.4935 36.2725 23.8529C36.2757 23.8506 36.2798 23.8506 36.2831 23.8529C37.1929 24.4935 38.2585 24.831 39.3778 24.831C39.9799 24.831 40.5695 24.7322 41.1337 24.5371C41.1379 24.5357 41.1425 24.5374 41.1446 24.5414C41.9864 26.0743 43.5666 27.0163 45.3255 27.0163C45.5969 27.0163 45.8685 26.9931 46.1356 26.9471C46.1398 26.9464 46.1438 26.9486 46.1454 26.9524C46.6827 28.1816 47.9139 28.9888 49.2556 28.9887C49.3244 28.9887 49.9297 28.9274 50.1509 28.8662C50.1549 28.8651 50.1589 28.8667 50.1612 28.87C51.2498 30.5059 51.8986 32.3996 52.0881 34.5047C52.1162 34.8175 52.3327 35.0809 52.6335 35.1683C52.9342 35.2554 53.2575 35.149 53.4481 34.8999C53.8377 34.3901 54.2015 34.2541 54.7452 34.414C55.4256 34.6144 55.9782 35.0763 56.3013 35.7147C56.6673 36.438 56.7057 37.3304 56.4066 38.1633C56.2792 38.5183 56.0796 38.8938 55.829 39.2504C55.5986 39.5785 55.6411 40.0419 55.9496 40.2974C56.1609 40.4824 56.6978 40.5886 57.0544 40.1527C57.395 39.6723 57.6581 39.1768 57.8367 38.6799C58.2772 37.4533 58.2116 36.121 57.6566 35.0245C57.1419 34.0074 56.2601 33.2711 55.1734 32.9511C54.6841 32.8069 54.0613 32.7457 53.4293 33.0094C53.4239 33.0117 53.4178 33.0085 53.4168 33.0026C53.0913 31.2251 52.4493 29.5948 51.5015 28.1374C51.4989 28.1335 51.4996 28.1285 51.5031 28.1255C52.1449 27.5506 52.568 26.735 52.6282 25.8207C52.7361 24.1839 51.6614 22.7084 50.1013 22.303C50.1017 22.277 50.1019 22.2511 50.1019 22.2252C50.1019 19.5834 47.9593 17.4341 45.3256 17.4341C45.029 17.4341 44.733 17.4618 44.4427 17.5163C44.4384 17.5171 44.4341 17.5147 44.4325 17.5105C43.6443 15.4013 41.6413 14 39.3777 14C38.2583 14 37.1927 14.3375 36.283 14.9781C36.2798 14.9804 36.2757 14.9804 36.2724 14.9781C35.3628 14.3376 34.2971 14 33.1777 14C32.4737 14 31.7889 14.1341 31.1421 14.3985C30.8101 14.5343 30.6047 14.8886 30.6714 15.242C30.7644 15.735 31.2718 15.9931 31.7085 15.8134C32.1743 15.6217 32.6686 15.5246 33.1777 15.5246C34.0296 15.5246 34.8379 15.7965 35.5155 16.3111C35.9642 16.6516 36.5911 16.6519 37.0399 16.3109C37.7174 15.7965 38.5258 15.5246 39.3777 15.5246C41.0594 15.5246 42.5409 16.6008 43.0641 18.2027C43.2695 18.8313 43.926 19.2036 44.559 19.0501C44.8086 18.9895 45.0664 18.9588 45.3254 18.9588C47.121 18.9588 48.5819 20.4241 48.5819 22.2253C48.5819 22.2924 48.5796 22.3604 48.5754 22.4279C48.5352 23.0617 48.9782 23.6315 49.606 23.7533C50.5263 23.9317 51.1735 24.7773 51.1113 25.7203C51.0508 26.6391 50.2855 27.4035 49.3691 27.4606C48.5302 27.5118 47.7747 27.0161 47.4914 26.2245C47.2775 25.6269 46.6449 25.2797 46.021 25.4166C45.7935 25.4665 45.5594 25.4918 45.3253 25.4918C44.0702 25.4918 42.9483 24.7878 42.3975 23.6546C42.1117 23.0668 41.4072 22.7958 40.7944 23.038C40.343 23.2162 39.8663 23.3066 39.3777 23.3066C38.5267 23.3066 37.7191 23.0351 37.0418 22.5215C36.5868 22.1765 35.9686 22.1765 35.5136 22.5215C34.8364 23.0351 34.0287 23.3065 33.1777 23.3065C32.5951 23.3065 32.0353 23.1798 31.5132 22.93C31.2331 22.796 30.9143 22.7494 30.6142 22.8284C30.2331 22.9289 29.9318 23.1871 29.7764 23.5415C29.6446 23.8418 29.4681 24.1207 29.2513 24.3704C28.6329 25.0828 27.7379 25.4908 26.7946 25.4908C26.7896 25.4908 26.7847 25.4909 26.7796 25.4908C26.2626 25.4908 25.8028 25.8045 25.6073 26.2911C25.2915 27.0767 24.4806 27.5532 23.6362 27.4495C22.7944 27.3464 22.1148 26.6572 22.0202 25.8108C21.9367 25.0632 22.3003 24.3393 22.9465 23.9668C23.4004 23.7051 23.6463 23.2031 23.5729 22.6881C23.4387 21.7465 23.7182 20.7958 24.3395 20.08C25.2117 19.0754 26.588 18.7032 27.8454 19.1325C28.3859 19.3115 29.2199 19.0751 29.4612 18.3014C29.4988 18.1748 29.5433 18.0491 29.5936 17.9273C29.7292 17.5993 29.6453 17.2114 29.3596 17.0018C28.9441 16.6969 28.3875 16.8715 28.2011 17.3156C28.1614 17.4102 28.1243 17.5065 28.0899 17.6038C28.0882 17.6084 28.0834 17.6109 28.0787 17.6096C26.3063 17.1122 24.4134 17.6735 23.1933 19.0791C22.3207 20.0842 21.9077 21.4044 22.0463 22.7263C22.0467 22.7298 22.0451 22.733 22.0421 22.735C20.9632 23.432 20.3653 24.6872 20.5097 25.9808C20.6366 27.117 21.3434 28.0968 22.3204 28.6085C22.3251 28.611 22.3268 28.6167 22.3241 28.6213C21.5395 29.9528 20.9987 31.4193 20.7088 33.0029C20.7077 33.0087 20.7016 33.012 20.6962 33.0097C20.0641 32.7459 19.4413 32.8075 18.952 32.9514C17.8655 33.2714 16.9837 34.0078 16.4689 35.0248C15.9141 36.1212 15.8485 37.4536 16.2889 38.6803C17.0543 40.8115 19.3316 42.8331 21.4681 42.8329C21.574 42.8329 21.6796 42.828 21.7847 42.8177C21.7889 42.8173 21.7927 42.8197 21.7943 42.8236C23.0287 46.092 25.0374 49.074 27.4994 51.2775C30.3878 53.8626 33.6948 55.229 37.0627 55.229C38.9043 55.229 40.7252 54.8224 42.4873 54.019C42.4932 54.0164 42.4999 54.0202 42.5004 54.0267C42.6095 55.5023 43.0001 56.9604 43.6483 58.2879C44.4206 59.8697 45.5618 61.2765 46.9489 62.3564L50.7556 65.3199C51.3189 65.7585 52.0215 66 52.7338 66C53.4463 66 54.1489 65.7585 54.7123 65.3198L58.5189 62.3564C59.9061 61.2765 61.0474 59.8696 61.8196 58.2879C62.5919 56.706 63 54.9391 63 53.1778V45.3848C62.9999 44.6766 62.4224 44.093 61.7166 44.0879ZM61.4801 53.1777C61.4801 54.7078 61.1254 56.2431 60.4545 57.6173C59.7837 58.9915 58.7921 60.2138 57.587 61.1519L53.7805 64.1154C53.4779 64.3508 53.1161 64.4753 52.7338 64.4753C52.3517 64.4753 51.9899 64.3508 51.6875 64.1155L47.8808 61.1519C46.6758 60.2137 45.6841 58.9915 45.0133 57.6173C44.3424 56.2431 43.9877 54.7079 43.9877 53.1777V45.6203C43.9877 45.6151 43.9919 45.6109 43.997 45.6109L44.91 45.6042C49.0082 45.5743 51.0282 44.1575 51.8675 43.3157C52.1232 43.0591 52.3611 42.7844 52.5744 42.4995C52.6276 42.4282 52.6991 42.4175 52.7373 42.4175H52.7378C52.7833 42.4176 52.8477 42.4317 52.8967 42.4978C53.1112 42.7874 53.348 43.0627 53.6002 43.3156C54.2759 43.9934 56.3064 45.5733 60.5578 45.6043L61.4706 45.611C61.4758 45.611 61.48 45.6152 61.48 45.6204L61.4801 53.1777Z" fill="white"/>
<path d="M59.2703 46.7819C57.9413 46.6314 56.7053 46.3493 55.5965 45.9434C54.8591 45.6735 54.1937 45.3523 53.6186 44.9887C53.081 44.6492 52.3865 44.6491 51.849 44.9888C51.2741 45.3523 50.6087 45.6735 49.8711 45.9435C48.7625 46.3493 47.5265 46.6315 46.1972 46.782C45.6448 46.8446 45.2281 47.3128 45.2281 47.871V53.1126C45.2281 55.5534 46.1816 57.8318 47.9129 59.5276C48.2132 59.8217 48.6944 59.816 48.9876 59.5148C49.2808 59.2136 49.2751 58.731 48.9748 58.4368C47.5388 57.0301 46.748 55.1392 46.748 53.1125V48.2501C48.0537 48.0771 49.278 47.7834 50.3921 47.3755C51.2305 47.0685 51.9933 46.6994 52.6592 46.2785C52.7051 46.2494 52.7623 46.2495 52.8081 46.2784C53.4741 46.6995 54.2369 47.0686 55.0752 47.3754C56.1894 47.7835 57.4137 48.0772 58.7193 48.2501V53.1125C58.7193 55.4338 57.6709 57.5812 55.8428 59.0044L52.7335 61.4251L51.5585 60.5103C51.2269 60.2522 50.7494 60.3124 50.4921 60.645C50.2347 60.9776 50.295 61.4565 50.6265 61.7147L52.0636 62.8335C52.2608 62.987 52.4972 63.0636 52.7335 63.0636C52.97 63.0636 53.2065 62.9869 53.4037 62.8333L56.7747 60.2088C58.9764 58.4949 60.2392 55.9083 60.2392 53.1125V47.871C60.2396 47.3128 59.8229 46.8446 59.2703 46.7819Z" fill="white"/>
<path d="M52.2395 56.434H52.2447C52.4775 56.434 52.6975 56.3269 52.8416 56.1434L57.2344 50.5516C57.4942 50.221 57.4375 49.7416 57.1079 49.4811C56.7783 49.2206 56.3004 49.2774 56.0406 49.608L52.2532 54.4291L50.4121 52.0175C50.1569 51.6834 49.6799 51.6199 49.3467 51.8758C49.0135 52.1319 48.9502 52.6102 49.2054 52.9446L51.6413 56.1352C51.7839 56.3219 52.0048 56.4322 52.2395 56.434Z" fill="white"/>
<path d="M31.9728 31.2723C31.9359 30.8529 31.5661 30.5446 31.1489 30.5801C29.9377 30.6876 28.8119 31.236 27.9788 32.1243C27.9452 32.1602 27.9122 32.1964 27.8798 32.2329C27.601 32.5476 27.6295 33.0294 27.9433 33.309C28.088 33.438 28.2682 33.5014 28.4476 33.5014C28.6572 33.5014 28.8659 33.4149 29.0161 33.2453C29.0388 33.2198 29.0618 33.1945 29.0855 33.1691C29.6631 32.5534 30.4434 32.1734 31.2827 32.0988C31.7009 32.0616 32.0098 31.6916 31.9728 31.2723Z" fill="white"/>
<path d="M46.2458 32.2329C46.2134 32.1963 46.1804 32.1602 46.147 32.1244C45.3137 31.236 44.1878 30.6876 42.9768 30.5801C42.559 30.5444 42.1898 30.8529 42.1528 31.2723C42.1158 31.6916 42.4248 32.0617 42.8428 32.0988C43.6822 32.1734 44.4625 32.5534 45.0402 33.1693C45.0638 33.1944 45.0869 33.2197 45.1096 33.2453C45.2597 33.415 45.4684 33.5014 45.6781 33.5014C45.8575 33.5014 46.0377 33.4379 46.1824 33.309C46.4961 33.0294 46.5245 32.5476 46.2458 32.2329Z" fill="white"/>
</svg>
