<svg width="80" height="80" viewBox="0 0 80 80" fill="none" xmlns="http://www.w3.org/2000/svg">
<circle cx="40" cy="40" r="40" fill="#D22783" fill-opacity="0.69"/>
<path d="M51.7158 28.4337H41.4573C40.4297 26.5343 38.4163 25.241 36.1057 25.241C35.8505 25.241 35.5934 25.257 35.3417 25.2887C35.0063 25.3307 34.7138 25.5365 34.5612 25.8378C34.4086 26.1392 34.4159 26.4965 34.5806 26.7914C34.7699 27.1302 34.9085 27.4957 34.9927 27.8744C34.131 27.9731 33.2906 28.1626 32.4782 28.4396C32.4421 28.4358 32.4054 28.4338 32.3683 28.4338H21.1007C18.2882 28.4338 16 30.7196 16 33.5294V54.6611C16 56.1587 16.6501 57.5074 17.6833 58.4406C16.6661 59.1548 16 60.3359 16 61.6696V64.9844C16 65.5452 16.4552 66 17.0167 66H31.8124C32.3739 66 32.829 65.5452 32.829 64.9844C32.829 64.4235 32.3739 63.9688 31.8124 63.9688H18.0333V61.6695C18.0333 60.6146 18.8923 59.7565 19.9482 59.7565H52.8684C53.9243 59.7565 54.7832 60.6146 54.7832 61.6695V63.9688H41.0041C40.4426 63.9688 39.9875 64.4235 39.9875 64.9844C39.9875 65.5452 40.4426 66 41.0041 66H55.7998C56.3613 66 56.8164 65.5452 56.8164 64.9844V61.6695C56.8164 60.3359 56.1504 59.1547 55.1332 58.4405C56.1663 57.5073 56.8164 56.1586 56.8164 54.661V33.5292C56.8164 30.7195 54.5282 28.4337 51.7158 28.4337ZM40.1495 31.3052C40.1495 33.529 38.3355 35.3382 36.1058 35.3382C35.1069 35.3382 34.1597 34.9693 33.4315 34.3298C35.6178 33.3969 37.1225 31.2267 37.1225 28.751C37.1225 28.2823 37.0679 27.8163 36.9613 27.3631C38.7815 27.7555 40.1495 29.374 40.1495 31.3052ZM18.0333 54.661V33.5292C18.0333 31.8396 19.4093 30.4649 21.1007 30.4649H28.776C28.2781 30.8557 27.7994 31.2879 27.3421 31.7602C25.432 33.7335 23.9718 36.3593 23.174 39.2318C20.8941 39.5141 19.1237 41.4582 19.1237 43.807C19.1237 46.2577 21.0512 48.2679 23.4738 48.4095C24.2481 50.5896 25.4075 52.384 26.9283 53.7533C28.4851 55.1548 30.4614 56.147 32.8118 56.709V57.7253H21.1007C19.4093 57.7253 18.0333 56.3506 18.0333 54.661ZM34.8451 57.7253V55.8881C34.8451 55.4003 34.4979 54.9814 34.0182 54.8904C29.3312 54.0006 26.4197 51.3806 25.1169 46.8808C25.0378 46.6077 24.8477 46.3801 24.5928 46.2534C24.3379 46.127 24.0416 46.1127 23.7759 46.2148C23.6589 46.2596 23.5566 46.3124 23.4674 46.3712C22.1703 46.232 21.1569 45.1351 21.1569 43.807C21.1569 42.5043 22.1318 41.424 23.3934 41.2518C23.4631 41.2878 23.541 41.3202 23.6279 41.3476C23.8996 41.4334 24.1945 41.4012 24.4414 41.2593C24.6881 41.1174 24.864 40.8785 24.9262 40.6009C26.0168 35.7325 29.4979 30.7226 34.9116 29.9328C34.4554 31.4145 33.1635 32.5507 31.5562 32.7523C31.2208 32.7943 30.9283 33.0001 30.7757 33.3014C30.6231 33.6028 30.6304 33.9601 30.7951 34.255C31.8686 36.1761 33.9035 37.3694 36.1058 37.3694C39.3522 37.3694 42.0121 34.8162 42.175 31.6164C44.9391 33.4997 47.0264 36.7441 47.8904 40.601C47.9526 40.8786 48.1285 41.1175 48.3754 41.2594C48.6221 41.4013 48.9172 41.4335 49.1887 41.3477C49.2756 41.3202 49.3535 41.2879 49.4231 41.252C50.6847 41.4241 51.6596 42.5044 51.6596 43.8071C51.6596 45.1352 50.6463 46.2321 49.3491 46.3713C49.26 46.3125 49.1576 46.2597 49.0407 46.2149C48.7749 46.1128 48.4786 46.1271 48.2237 46.2535C47.9688 46.3802 47.7787 46.6077 47.6996 46.8809C46.397 51.3808 43.4853 54.0008 38.7984 54.8905C38.3187 54.9815 37.9716 55.4004 37.9716 55.8882V57.7254L34.8451 57.7253ZM40.0047 57.7253V56.7091C42.3552 56.1472 44.3313 55.1549 45.8881 53.7534C47.409 52.384 48.5684 50.5897 49.3426 48.4096C51.7652 48.2679 53.6928 46.2577 53.6928 43.8071C53.6928 41.4587 51.9228 39.5147 49.6432 39.232C48.6418 35.6067 46.645 32.5104 44.0379 30.465H51.7157C53.4071 30.465 54.783 31.8397 54.783 33.5294V54.6611C54.783 56.3507 53.407 57.7254 51.7157 57.7254L40.0047 57.7253Z" fill="white"/>
<path d="M39.5068 43.4453C40.0683 43.4453 40.5235 42.9905 40.5235 42.4297V41.1672C40.5235 40.731 40.8806 40.3762 41.3195 40.3762C41.7584 40.3762 42.1155 40.731 42.1155 41.1672V42.4297C42.1155 42.9905 42.5707 43.4453 43.1322 43.4453H43.5462C44.1077 43.4453 44.5628 42.9905 44.5628 42.4297C44.5628 42.0941 44.4 41.7966 44.1488 41.6117V41.1672C44.1488 39.611 42.8797 38.3449 41.3195 38.3449C39.7593 38.3449 38.4902 39.611 38.4902 41.1672V42.4297C38.4902 42.9905 38.9453 43.4453 39.5068 43.4453Z" fill="white"/>
<path d="M34.3263 42.4297V41.1672C34.3263 39.611 33.0571 38.3449 31.4969 38.3449C29.9368 38.3449 28.6676 39.611 28.6676 41.1672V41.6116C28.4165 41.7965 28.2536 42.0941 28.2536 42.4297C28.2536 42.9905 28.7088 43.4453 29.2703 43.4453H29.6842C30.2457 43.4453 30.7009 42.9905 30.7009 42.4297V41.1672C30.7009 40.731 31.058 40.3762 31.4969 40.3762C31.9358 40.3762 32.293 40.731 32.293 41.1672V42.4297C32.293 42.9905 32.7481 43.4453 33.3096 43.4453C33.8711 43.4453 34.3263 42.9905 34.3263 42.4297Z" fill="white"/>
<path d="M39.8 48.4315C39.8 46.2476 38.2857 44.471 36.4245 44.471C34.5632 44.471 33.0489 46.2476 33.0489 48.4315C33.0489 50.6154 34.5632 52.392 36.4245 52.392C38.2857 52.392 39.8 50.6154 39.8 48.4315ZM36.4245 50.3608C35.6969 50.3608 35.0822 49.4773 35.0822 48.4315C35.0822 47.3857 35.6969 46.5022 36.4245 46.5022C37.152 46.5022 37.7667 47.3857 37.7667 48.4315C37.7667 49.4773 37.152 50.3608 36.4245 50.3608Z" fill="white"/>
<path d="M50.4238 25.6831C50.6016 26.0108 50.9446 26.2148 51.3177 26.2148H54.7208C55.2823 26.2148 55.7374 25.76 55.7374 25.1992C55.7374 24.6384 55.2823 24.1836 54.7208 24.1836H53.1935L55.4934 20.6574C55.697 20.3452 55.7132 19.9467 55.5353 19.619C55.3575 19.2915 55.0145 19.0874 54.6415 19.0874H51.4223C50.8608 19.0874 50.4056 19.5422 50.4056 20.103C50.4056 20.6638 50.8608 21.1186 51.4223 21.1186H52.7658L50.4659 24.6448C50.2622 24.9571 50.2461 25.3556 50.4238 25.6831Z" fill="white"/>
<path d="M61.9833 21.041H58.854L62.6155 15.5923C62.83 15.2816 62.8544 14.8777 62.6787 14.5435C62.5032 14.2092 62.1565 14 61.7787 14H57.0458C56.4843 14 56.0291 14.4547 56.0291 15.0156C56.0291 15.5766 56.4843 16.0312 57.0458 16.0312H59.8426L56.081 21.48C55.8665 21.7908 55.8421 22.1946 56.0177 22.5288C56.1934 22.863 56.54 23.0723 56.9179 23.0723H61.9833C62.5448 23.0723 63 22.6175 63 22.0566C63 21.4958 62.5448 21.041 61.9833 21.041Z" fill="white"/>
<path d="M37.366 64.5964C37.2023 64.1971 36.785 63.9408 36.3546 63.972C35.9321 64.0026 35.567 64.2992 35.4502 64.7058C35.3336 65.1118 35.4891 65.5643 35.8348 65.8096C36.1777 66.0528 36.6403 66.0598 36.9909 65.8284C37.3899 65.5649 37.5497 65.0371 37.366 64.5964Z" fill="white"/>
</svg>
