<svg width="80" height="80" viewBox="0 0 80 80" fill="none" xmlns="http://www.w3.org/2000/svg">
<circle cx="40" cy="40" r="40" fill="#408858"/>
<path d="M58.6582 34.2705C58.6582 32.3838 57.9511 30.5787 56.6669 29.1875C55.6739 28.1119 54.4025 27.3537 53.0031 26.9874C52.7195 23.0873 49.4265 20 45.4197 20C43.5901 20 41.8618 20.6391 40.5 21.7895C39.1382 20.6391 37.4099 20 35.5803 20C31.5734 20 28.2805 23.0873 27.9969 26.9874C26.5975 27.3537 25.3261 28.1119 24.3331 29.1875C23.0489 30.5787 22.3418 32.3838 22.3418 34.2705C22.3418 35.5884 22.6944 36.8836 23.3501 38.0181C21.8446 39.6835 21 41.8458 21 44.1091C21 48.411 24.0022 52.0673 28.1381 53.006C28.8594 56.4413 31.9426 59 35.5803 59C37.4099 59 39.1382 58.3609 40.5 57.2105C41.8618 58.3609 43.5901 59 45.4197 59C49.0574 59 52.1406 56.4413 52.8619 53.006C56.9978 52.0673 60 48.411 60 44.1091C60 41.8458 59.1554 39.6834 57.6499 38.018C58.3056 36.8836 58.6582 35.5884 58.6582 34.2705ZM35.5803 56.3409C32.9898 56.3409 30.8339 54.3363 30.6723 51.7773C30.5124 49.5139 32.024 47.3961 34.2219 46.7799C34.9344 46.578 35.3468 45.842 35.1431 45.136C34.9393 44.43 34.1966 44.0212 33.4842 44.2232C30.6487 45.0266 28.5611 47.405 28.0817 50.2267C25.4973 49.3477 23.6835 46.9242 23.6835 44.1091C23.6835 42.2229 24.5118 40.4353 25.9561 39.2028C25.9586 39.2007 25.9613 39.199 25.9638 39.1969C26.7749 38.5068 27.7519 38.0213 28.7894 37.7932C29.5129 37.6341 29.969 36.9239 29.8085 36.2072C29.648 35.4904 28.9311 35.0383 28.2079 35.1973C27.2411 35.4099 26.3123 35.781 25.4633 36.2878C25.1747 35.6616 25.0254 34.9798 25.0254 34.2705C25.0254 31.7429 26.9373 29.6571 29.4725 29.4188C29.4759 29.4184 29.4791 29.4177 29.4826 29.4174C30.9457 29.2814 32.3497 29.7829 33.3833 30.7835C33.6444 31.0362 33.9827 31.1621 34.3209 31.1621C34.6694 31.1621 35.0179 31.0283 35.2807 30.7616C35.7985 30.2364 35.7887 29.3947 35.2585 28.8815C34.0162 27.6788 32.4272 26.9465 30.7205 26.7757C31.0893 24.4466 33.1279 22.6592 35.5804 22.6592C36.9489 22.6592 38.2295 23.2143 39.1583 24.1935V35.4454C38.0031 34.3854 36.2237 33.6971 36.1581 33.7102C35.4502 33.4921 34.695 33.8823 34.4747 34.5835C34.2545 35.2846 34.646 36.0289 35.3536 36.247C35.509 36.2968 39.1583 37.5103 39.1583 41.3393V54.8068C38.2295 55.7858 36.9488 56.3409 35.5803 56.3409ZM52.9184 50.2268C52.4389 47.4051 50.3513 45.0267 47.5159 44.2233C46.8039 44.0215 46.0608 44.43 45.857 45.1361C45.6533 45.8421 46.0657 46.578 46.7782 46.7799C48.9761 47.3961 50.4877 49.514 50.3278 51.7774C50.1661 54.3363 48.0102 56.3409 45.4197 56.3409C44.0512 56.3409 42.7705 55.7858 41.8418 54.8066V45.7709C41.8418 41.95 45.476 40.7335 45.6455 40.679C46.3493 40.4585 46.7416 39.7153 46.522 39.0161C46.3016 38.3151 45.5498 37.9235 44.842 38.1419C44.786 38.1235 42.9898 38.821 41.8418 39.877V24.1934C42.7706 23.2143 44.0512 22.6591 45.4197 22.6591C47.8722 22.6591 49.9108 24.4465 50.2796 26.7756C48.5728 26.9464 46.9838 27.6787 45.7415 28.8814C45.2115 29.3946 45.2016 30.2363 45.7194 30.7615C46.2376 31.287 47.0872 31.2964 47.6168 30.7834C48.6504 29.7828 50.0548 29.2812 51.5175 29.4173C51.5209 29.4176 51.5242 29.4184 51.5276 29.4187C54.0628 29.657 55.9747 31.7429 55.9747 34.2704C55.9747 34.9797 55.8254 35.6615 55.5368 36.2877C54.6877 35.781 53.7589 35.4098 52.7922 35.1972C52.0683 35.0376 51.3521 35.4902 51.1916 36.2071C51.0311 36.9239 51.4873 37.6341 52.2107 37.7931C53.2482 38.0212 54.2252 38.5067 55.0363 39.1968C55.0388 39.1989 55.0415 39.2006 55.044 39.2028C56.4882 40.4354 57.3165 42.2229 57.3165 44.1091C57.3165 46.9242 55.5026 49.3477 52.9184 50.2268Z" fill="white"/>
</svg>
