<svg width="80" height="80" viewBox="0 0 80 80" fill="none" xmlns="http://www.w3.org/2000/svg">
<circle cx="40" cy="40" r="40" fill="#D25627"/>
<path d="M24.7606 35.2561C25.157 35.2561 25.4783 34.9348 25.4783 34.5383V33.8522C25.4783 33.4557 25.157 33.1344 24.7606 33.1344C24.3642 33.1344 24.0428 33.4557 24.0428 33.8522V34.5383C24.0428 34.9347 24.3641 35.2561 24.7606 35.2561Z" fill="white"/>
<path d="M27.6316 35.2561C28.028 35.2561 28.3494 34.9348 28.3494 34.5383V33.8522C28.3494 33.4557 28.028 33.1344 27.6316 33.1344C27.2352 33.1344 26.9138 33.4557 26.9138 33.8522V34.5383C26.9138 34.9347 27.2351 35.2561 27.6316 35.2561Z" fill="white"/>
<path d="M28.3157 37.2393C28.596 36.9589 28.596 36.5044 28.3157 36.2242C28.0353 35.9439 27.5809 35.9438 27.3006 36.2241C26.6916 36.8332 25.7006 36.8334 25.0915 36.2241C24.8112 35.9439 24.3567 35.9438 24.0765 36.2242C23.7962 36.5045 23.7962 36.959 24.0765 37.2393C24.6609 37.8235 25.4285 38.1157 26.1961 38.1157C26.9637 38.1158 27.7313 37.8236 28.3157 37.2393Z" fill="white"/>
<path d="M45.1382 42.9838C45.5346 42.9838 45.8559 42.6625 45.8559 42.266V41.55C45.8559 41.1535 45.5346 40.8323 45.1382 40.8323C44.7418 40.8323 44.4204 41.1535 44.4204 41.55V42.266C44.4204 42.6624 44.7418 42.9838 45.1382 42.9838Z" fill="white"/>
<path d="M48.1341 42.9838C48.5305 42.9838 48.8519 42.6625 48.8519 42.266V41.55C48.8519 41.1535 48.5305 40.8323 48.1341 40.8323C47.7377 40.8323 47.4164 41.1535 47.4164 41.55V42.266C47.4164 42.6624 47.7377 42.9838 48.1341 42.9838Z" fill="white"/>
<path d="M47.811 44.0474C47.4971 44.3611 47.0799 44.5341 46.6362 44.5341C46.1925 44.5341 45.7753 44.3611 45.4615 44.0474C45.1811 43.767 44.7267 43.7671 44.4464 44.0473C44.1661 44.3276 44.1661 44.7821 44.4464 45.0623C45.0314 45.6473 45.809 45.9695 46.6363 45.9695C47.4636 45.9695 48.2412 45.6473 48.8262 45.0623C49.1065 44.782 49.1065 44.3275 48.8262 44.0473C48.5457 43.7671 48.0912 43.767 47.811 44.0474Z" fill="white"/>
<path d="M40.915 31.9082C42.6967 31.9082 44.4783 31.2301 45.8346 29.8738C47.1487 28.5597 47.8724 26.8125 47.8724 24.9541C47.8724 23.0957 47.1487 21.3486 45.8346 20.0345C43.1219 17.3218 38.708 17.3218 35.9954 20.0345C34.6813 21.3486 33.9575 23.0957 33.9575 24.9541C33.9575 26.8125 34.6813 28.5597 35.9954 29.8738C37.3517 31.2301 39.1334 31.9082 40.915 31.9082ZM37.0105 21.0496C37.0901 20.9701 37.4253 20.9231 38.0227 21.1197C38.7263 21.3514 39.5981 21.8518 40.4773 22.5288C40.7915 22.7703 41.2422 22.7119 41.4839 22.3978C41.7258 22.0837 41.6672 21.6331 41.353 21.3911C40.4245 20.6763 39.5534 20.1646 38.7778 19.8638C39.4596 19.5786 40.1871 19.4349 40.915 19.4349C42.329 19.4349 43.7431 19.9731 44.8196 21.0496C45.8624 22.0925 46.4368 23.4792 46.4368 24.9541C46.4368 25.7054 46.2871 26.4335 46.0029 27.1052C45.5694 25.9926 44.7526 24.7936 43.8894 23.796C43.63 23.4961 43.1766 23.4634 42.877 23.7228C42.5772 23.9821 42.5444 24.4354 42.8038 24.7352C44.8044 27.0475 45.0563 28.6217 44.8195 28.8586C44.7411 28.937 44.2777 29.0487 43.2148 28.5495C42.1541 28.0511 40.9526 27.1591 39.8312 26.0377C38.71 24.9165 37.8179 23.7149 37.3196 22.6542C36.8202 21.5914 36.9319 21.1282 37.0105 21.0496ZM35.8244 22.8088C35.8813 22.9544 35.9457 23.1059 36.0203 23.2646C36.5876 24.4717 37.5805 25.8171 38.8162 27.0528C40.0519 28.2886 41.3972 29.2815 42.6044 29.8487C42.7617 29.9226 42.9116 29.9865 43.0558 30.0429C42.373 30.3291 41.6442 30.4734 40.915 30.4733C39.5011 30.4732 38.0868 29.9349 37.0105 28.8586C35.9676 27.8157 35.3932 26.429 35.3932 24.954C35.3931 24.205 35.5419 23.4789 35.8244 22.8088Z" fill="white"/>
<path d="M64.2821 57.8092C62.6012 57.8092 61.0478 56.9667 60.1268 55.5554C59.9943 55.3523 59.7682 55.2299 59.5257 55.2299C59.2832 55.2299 59.0571 55.3523 58.9246 55.5554C58.1081 56.8065 56.7942 57.6093 55.3354 57.7756V53.4526C55.3354 53.1826 55.3964 52.9108 55.5117 52.6666L56.1606 51.2936C57.4571 51.0064 58.6328 50.3232 59.5257 49.3275C60.7296 50.6702 62.4468 51.4487 64.2821 51.4487C64.6785 51.4487 64.9999 51.1274 64.9999 50.7309C64.9999 50.3344 64.6785 50.0131 64.2821 50.0131C62.6012 50.0131 61.0478 49.1706 60.1268 47.7594C59.9943 47.5564 59.7682 47.4339 59.5257 47.4339C59.2832 47.4339 59.0571 47.5564 58.9246 47.7594C58.4408 48.5007 57.7817 49.0833 57.022 49.4707L59.309 44.631C59.4784 44.2726 59.3251 43.8447 58.9668 43.6754C58.6081 43.5059 58.1805 43.6593 58.0111 44.0177L54.2138 52.0534C54.0084 52.4881 53.8999 52.972 53.8999 53.4527V57.7316C52.5634 57.4949 51.3734 56.7193 50.6139 55.5555C50.4814 55.3524 50.2553 55.23 50.0128 55.23C49.7703 55.23 49.5442 55.3524 49.4117 55.5555C48.4907 56.9667 46.9374 57.8093 45.2564 57.8093C43.5754 57.8093 42.022 56.9667 41.101 55.5555C40.9685 55.3524 40.7424 55.23 40.4999 55.23C40.2574 55.23 40.0313 55.3524 39.8988 55.5555C39.743 55.7942 39.5679 56.0151 39.3784 56.22V53.4532C39.3784 52.9722 39.2696 52.4879 39.064 52.0531L31.9385 36.9861L30.8999 34.759C30.7598 34.4586 30.7482 34.1228 30.8671 33.8132C30.986 33.504 31.2201 33.2621 31.5262 33.1324C32.1182 32.8815 32.8303 33.171 33.1133 33.778L33.3334 34.2501C33.5008 34.6093 33.9278 34.7648 34.2872 34.5972L35.1908 34.1759C35.2684 34.1395 35.3374 34.1574 35.3716 34.171C35.4133 34.1877 35.4693 34.2239 35.4993 34.301C35.541 34.4077 35.4741 34.5455 35.3536 34.6017L34.4794 35.0093C34.3069 35.0898 34.1734 35.2354 34.1083 35.4143C34.0432 35.5932 34.0518 35.7907 34.1322 35.9632L39.9686 48.4793C40.2533 49.0899 40.8725 49.4844 41.5461 49.4844H45.0831C45.4795 49.4844 45.8009 49.1631 45.8009 48.7666V48.1903H47.4712V48.7666C47.4712 49.1631 47.7926 49.4844 48.189 49.4844H51.726C52.3996 49.4844 53.0189 49.0899 53.3036 48.4793L59.1399 35.9632C59.3074 35.6039 59.152 35.1768 58.7928 35.0093L57.8893 34.5879C57.8116 34.5517 57.7807 34.4876 57.7692 34.4526C57.7553 34.41 57.7469 34.3438 57.7868 34.2711C57.8418 34.1707 57.9901 34.1335 58.1107 34.1895L58.9849 34.5972C59.1574 34.6777 59.3548 34.6862 59.5337 34.6212C59.7127 34.556 59.8584 34.4226 59.9387 34.25L60.1589 33.7779C60.4419 33.171 61.1538 32.8816 61.7458 33.1324C62.0521 33.2621 62.2861 33.504 62.405 33.8132C62.524 34.1227 62.5123 34.4586 62.3722 34.759L61.3352 36.9828L59.4469 40.979C59.2775 41.3374 59.4308 41.7653 59.7893 41.9346C60.1477 42.1039 60.5755 41.9506 60.7449 41.5922L62.6348 37.5928L63.6733 35.3657C63.9795 34.709 64.005 33.9747 63.745 33.2982C63.4852 32.622 62.9742 32.0936 62.3059 31.8105C61.0702 31.2866 59.6058 31.818 58.9475 32.9957L58.7174 32.8883C57.9087 32.5113 56.9469 32.8158 56.5275 33.5816C56.3071 33.9842 56.2624 34.4646 56.405 34.8996C56.5477 35.3348 56.8675 35.6953 57.2824 35.8888L57.5354 36.0068L54.2751 42.9985C54.2759 42.9741 54.2769 42.9498 54.2769 42.9252V42.7022C54.2769 42.0106 53.977 41.3879 53.5005 40.957V38.2085C53.5005 35.7496 51.5 33.7491 49.0411 33.7491H41.4245C40.5129 33.7491 39.7713 34.4907 39.7713 35.4022V40.9569C39.2948 41.3878 38.9949 42.0105 38.9949 42.7021V42.9251C38.9949 42.9497 38.996 42.9739 38.9967 42.9983L35.7365 36.0067L35.9601 35.9024C36.7687 35.5252 37.1537 34.5926 36.8367 33.7793C36.67 33.3515 36.3306 33.0085 35.9057 32.8382C35.4806 32.6677 34.9987 32.681 34.5838 32.8745L34.3244 32.9955C33.9849 32.388 33.4306 31.9531 32.804 31.7457V31.3708C32.804 28.0448 30.0981 25.3389 26.7721 25.3389H25.6196C22.2935 25.3389 19.5876 28.0448 19.5876 31.3708V33.2706C19.1307 33.6887 18.8436 34.2894 18.8436 34.9561V35.1698C18.8436 36.4281 19.8661 37.452 21.1239 37.4547C21.4987 38.6791 22.455 39.6516 23.6692 40.0496H22.033C19.7184 40.0496 17.8355 41.9326 17.8355 44.2471V49.8839C17.4732 49.9674 17.0991 50.0129 16.7178 50.0129C16.3214 50.0129 16 50.3341 16 50.7306C16 51.1271 16.3214 51.4484 16.7178 51.4484C18.5531 51.4484 20.2704 50.6699 21.4742 49.3272C22.6781 50.6699 24.3953 51.4484 26.2307 51.4484C28.0661 51.4484 29.7833 50.6699 30.9871 49.3272C32.191 50.6699 33.9082 51.4484 35.7436 51.4484C36.2108 51.4484 36.6713 51.397 37.1195 51.2985L37.7663 52.6663C37.8818 52.9108 37.9429 53.1826 37.9429 53.4528V57.2935C37.27 57.6268 36.521 57.809 35.7436 57.809C34.0626 57.809 32.5092 56.9665 31.5882 55.5552C31.4557 55.3521 31.2296 55.2297 30.9871 55.2297C30.7446 55.2297 30.5185 55.3521 30.386 55.5552C29.465 56.9665 27.9116 57.809 26.2307 57.809C24.5497 57.809 22.9963 56.9665 22.0753 55.5552C21.9428 55.3521 21.7167 55.2297 21.4742 55.2297C21.2317 55.2297 21.0057 55.3521 20.8731 55.5552C19.9521 56.9665 18.3987 57.809 16.7178 57.809C16.3214 57.809 16 58.1303 16 58.5268C16 58.9233 16.3214 59.2446 16.7178 59.2446C18.5532 59.2446 20.2704 58.466 21.4742 57.1233C22.6781 58.466 24.3953 59.2446 26.2307 59.2446C28.0661 59.2446 29.7833 58.466 30.9871 57.1233C32.191 58.466 33.9082 59.2446 35.7436 59.2446C37.5789 59.2446 39.2962 58.466 40.5 57.1233C41.7039 58.466 43.4211 59.2446 45.2564 59.2446C47.0918 59.2446 48.809 58.466 50.0129 57.1233C51.2168 58.466 52.9339 59.2446 54.7693 59.2446C56.6047 59.2446 58.3219 58.466 59.5258 57.1233C60.7297 58.466 62.4468 59.2446 64.2822 59.2446C64.6786 59.2446 65 58.9233 65 58.5268C65 58.1303 64.6785 57.8092 64.2821 57.8092ZM47.9949 46.7546H45.2773C43.8178 46.7546 42.6304 45.5674 42.6304 44.1079V40.1023C42.6304 39.6385 43.0078 39.2611 43.4717 39.2611H49.8004C50.2643 39.2611 50.6417 39.6385 50.6417 40.1023V44.1079C50.6418 45.5674 49.4544 46.7546 47.9949 46.7546ZM52.0026 47.8726C51.9527 47.9796 51.8441 48.0488 51.726 48.0488H49.0583C50.42 47.681 51.5018 46.625 51.9058 45.2786H51.9239C52.526 45.2786 53.0757 45.0511 53.4923 44.6779L52.0026 47.8726ZM52.0773 41.7985C52.5105 41.8718 52.8417 42.2487 52.8417 42.7024V42.9254C52.8417 43.379 52.5105 43.7559 52.0773 43.8292V41.7985ZM41.2071 35.4024C41.2071 35.2824 41.3047 35.1848 41.4247 35.1848H49.0413C50.7087 35.1848 52.0652 36.5413 52.0652 38.2086V39.8678C51.9473 38.7222 50.9766 37.8256 49.8004 37.8256H43.4717C42.2956 37.8256 41.325 38.722 41.207 39.8674L41.2071 35.4024ZM40.4306 42.7023C40.4306 42.2486 40.7618 41.8718 41.195 41.7984V43.8291C40.7618 43.7558 40.4306 43.3789 40.4306 42.9253V42.7023ZM41.3483 45.2785H41.3663C41.7703 46.625 42.8521 47.681 44.2138 48.0487H41.5461C41.428 48.0487 41.3195 47.9796 41.2696 47.8725L39.7798 44.6778C40.1966 45.051 40.7463 45.2785 41.3483 45.2785ZM30.9372 38.2267L31.9462 40.3601C31.4578 40.1606 30.924 40.0498 30.3648 40.0498H28.7179C29.6654 39.7404 30.4567 39.0827 30.9372 38.2267ZM20.952 36.0008C20.5682 35.9191 20.2794 35.5779 20.2794 35.1702V34.9565C20.2794 34.5488 20.5682 34.2075 20.952 34.1259V36.0008ZM22.3875 36.3033V32.4649C22.3875 32.0369 22.7357 31.6888 23.1637 31.6888H25.4745C25.8709 31.6888 26.1923 31.3675 26.1923 30.971C26.1923 30.5745 25.8709 30.2532 25.4745 30.2532H23.1637C22.1369 30.2532 21.2713 30.9566 21.0234 31.9069V31.3711C21.0234 28.8367 23.0853 26.7748 25.6198 26.7748H26.7722C29.3067 26.7748 31.3687 28.8367 31.3687 31.3711V31.6792C31.3456 31.6847 31.3225 31.6902 31.2996 31.6963C30.9866 30.855 30.1775 30.2532 29.2284 30.2532H28.8241C28.4277 30.2532 28.1064 30.5745 28.1064 30.971C28.1064 31.3675 28.4277 31.6888 28.8241 31.6888H29.2284C29.6564 31.6888 30.0045 32.037 30.0045 32.4649V32.5037C29.8025 32.7348 29.6408 33.0024 29.5271 33.2983C29.2671 33.9747 29.2926 34.709 29.5988 35.3658L30.0045 36.2358V36.3034C30.0045 37.6854 28.8801 38.8098 27.4981 38.8098H24.894C23.5118 38.8098 22.3875 37.6853 22.3875 36.3033ZM32.0846 48.3973V44.8147C32.0846 44.4182 31.7633 44.097 31.3669 44.097C30.9705 44.097 30.6491 44.4182 30.6491 44.8147V47.5188C30.5441 47.5749 30.453 47.6567 30.3859 47.7595C29.4649 49.1707 27.9115 50.0132 26.2306 50.0132C24.5496 50.0132 22.9963 49.1707 22.0752 47.7595C21.995 47.6367 21.8803 47.5439 21.7487 47.4894V44.8147C21.7487 44.4182 21.4273 44.097 21.0309 44.097C20.6345 44.097 20.3131 44.4182 20.3131 44.8147V48.4676C20.003 48.795 19.6518 49.0753 19.2709 49.3045V44.2475C19.2709 42.7245 20.51 41.4855 22.0329 41.4855H24.7078C25.1042 41.4855 25.4256 41.1642 25.4256 40.7677V40.2454H26.9663V40.7677C26.9663 41.1642 27.2877 41.4855 27.6841 41.4855H30.3648C31.8878 41.4855 33.1267 42.7245 33.1267 44.2475V49.2674C32.7436 49.029 32.3936 48.736 32.0846 48.3973ZM35.7435 50.0131C35.34 50.0131 34.9441 49.9634 34.5623 49.8701V45.892L36.4853 49.958C36.2414 49.9946 35.9936 50.0131 35.7435 50.0131Z" fill="white"/>
<path d="M49.9745 22.3991C50.3709 22.3991 50.6923 22.0777 50.6923 21.6813C50.6923 21.2849 50.3709 20.9635 49.9745 20.9635C49.5781 20.9635 49.2567 21.2849 49.2567 21.6813C49.2567 22.0777 49.5781 22.3991 49.9745 22.3991Z" fill="white"/>
<path d="M53.2284 30.2467C53.6248 30.2467 53.9462 29.9254 53.9462 29.529C53.9462 29.1325 53.6248 28.8112 53.2284 28.8112C52.832 28.8112 52.5107 29.1325 52.5107 29.529C52.5107 29.9254 52.832 30.2467 53.2284 30.2467Z" fill="white"/>
<path d="M62.0331 47.0905C62.4295 47.0905 62.7509 46.7691 62.7509 46.3727C62.7509 45.9763 62.4295 45.6549 62.0331 45.6549C61.6367 45.6549 61.3153 45.9763 61.3153 46.3727C61.3153 46.7691 61.6367 47.0905 62.0331 47.0905Z" fill="white"/>
<path d="M27.0058 21.4421C27.4022 21.4421 27.7235 21.1207 27.7235 20.7243C27.7235 20.3279 27.4022 20.0065 27.0058 20.0065C26.6094 20.0065 26.288 20.3279 26.288 20.7243C26.288 21.1207 26.6094 21.4421 27.0058 21.4421Z" fill="white"/>
<path d="M19.7323 25.4616C20.1287 25.4616 20.4501 25.1402 20.4501 24.7438C20.4501 24.3474 20.1287 24.026 19.7323 24.026C19.3359 24.026 19.0146 24.3474 19.0146 24.7438C19.0146 25.1402 19.3359 25.4616 19.7323 25.4616Z" fill="white"/>
</svg>
