<svg width="97" height="152" viewBox="0 0 97 152" fill="none" xmlns="http://www.w3.org/2000/svg">
<g clip-path="url(#clip0_5_1797)">
<path d="M33.5432 66.9717C33.8932 67.3837 34.2317 67.793 34.5817 68.2051C35.6141 68.4528 36.7113 68.5824 37.6651 69.0057C38.4438 69.3505 39.0653 70.0464 39.7484 70.587C43.0217 70.2424 46.3093 69.889 49.5825 69.5444C50.6454 67.7945 52.5622 67.7441 54.2377 67.2834C66.4747 63.9618 76.7194 57.7198 84.3598 47.3655C87.9525 42.5044 89.8126 37.179 89.9843 31.2054C90.0029 30.42 89.7865 29.6026 89.5706 28.8339C88.752 25.9763 87.3018 23.5262 85.0401 21.5254C80.9957 17.9547 76.3481 15.3813 71.5283 13.0705C70.5166 12.5847 69.3585 12.3554 68.8385 11.1857C68.3301 10.9786 67.8217 10.7716 67.3019 10.5618C62.7304 9.4406 58.1562 8.33088 53.5847 7.20967C53.0322 7.18646 52.4825 7.15177 51.93 7.12856C50.1965 8.13429 48.356 8.06934 46.4866 7.6694C46.0066 7.74864 45.5266 7.82788 45.0351 7.90437C44.3488 8.89404 43.4304 9.23264 42.2714 8.90593C39.1432 10.4154 36.3425 12.3802 33.962 14.9197C33.8065 16.0732 33.0712 16.7109 32.0386 17.0707C31.624 17.7367 31.198 18.4 30.7806 19.0775C30.1313 20.6715 29.4732 22.2512 28.8238 23.8451C28.5691 24.1485 28.3258 24.4547 28.0738 24.7466C26.4656 28.5164 25.7921 32.4861 25.3682 36.528C26.5187 39.0641 26.2848 41.6569 25.7049 44.2761C26.422 47.6074 27.1391 50.9388 27.8676 54.2729C28.7723 54.9517 29.1607 55.8104 28.819 56.9314C28.9267 57.1395 28.9859 57.3481 29.0023 57.5829C29.9438 58.2098 30.3863 59.045 30.1363 60.188C30.8246 61.6169 31.5102 63.0573 32.21 64.4889C33.2818 64.9769 33.7271 65.8007 33.546 66.9602L33.5432 66.9717ZM78.0527 34.7704C76.8773 34.2088 76.56 33.3064 77.0069 32.1013C76.009 29.9906 75.0111 27.8799 74.0105 25.7807C72.7764 25.0593 72.6895 24.0056 73.4672 22.9893C74.3637 21.8313 75.0053 20.0168 77.1049 20.873C77.2256 20.9262 77.2902 21.1118 77.3916 21.2455C83.6782 22.8026 85.7516 25.1835 86.1884 31.3517C86.2098 31.8186 86.2225 32.2712 86.2439 32.7381C85.7959 37.5882 83.1172 41.3199 80.076 44.843C79.773 45.1956 79.3636 45.4862 78.9652 45.7309C78.2653 46.1705 77.4323 46.4567 76.797 45.8182C76.4043 45.4323 76.0627 44.682 76.1523 44.1568C76.3528 42.9168 76.8111 41.7145 77.1635 40.4989C76.1059 38.4346 76.2162 37.975 78.0834 36.5639C78.0808 35.9679 78.0782 35.3719 78.0757 34.7759L78.0527 34.7704Z" fill="#FA961B"/>
<path d="M68.8385 11.1857C69.3585 12.3554 70.5281 12.5875 71.5283 13.0705C76.3481 15.3813 80.9957 17.9547 85.0401 21.5254C87.3018 23.5262 88.7492 25.9878 89.5706 28.8339C89.7865 29.6026 90.0029 30.42 89.9843 31.2054C89.8126 37.179 87.9525 42.5044 84.3597 47.3655C76.7194 57.7198 66.472 63.9733 54.2377 67.2834C52.5622 67.7441 50.6482 67.783 49.5825 69.5444C51.3926 70.3432 53.1109 69.5526 54.7602 69.0492C61.5803 66.9674 68.2477 64.4601 74.0346 60.162C80.4499 55.4192 86.1756 50.0613 89.6562 42.6337C92.4238 36.7119 92.8482 30.8476 90.0955 24.877C89.6314 23.8786 88.9755 22.8707 88.1649 22.1537C84.7839 19.1552 81.3914 16.154 77.1992 14.2611C75.2942 13.403 73.532 12.2025 71.6073 11.3762C70.8057 11.0259 69.7746 11.228 68.8385 11.1857Z" fill="#E3ACAB"/>
<path d="M32.0511 76.5775C31.2973 79.2643 31.2505 81.9871 31.4846 84.753C32.1873 93.0993 30.1484 100.788 25.6023 107.802C23.0176 111.799 19.3071 114.724 15.7319 117.742C12.6424 120.355 9.47167 122.85 7.04362 126.144C5.0875 128.785 3.50762 131.578 3.40973 134.969C3.39994 135.464 3.87381 135.967 4.39248 136.991C4.90133 135.679 5.31546 134.964 5.44602 134.218C6.21601 129.846 8.69226 126.503 11.8163 123.595C14.177 121.391 16.6822 119.343 19.1962 117.31C26.5162 111.375 31.106 103.824 32.9963 94.5814C33.6209 91.5234 33.5502 88.4808 33.3993 85.419C33.3332 84.1272 33.1698 82.8364 33.2238 81.5493C33.2762 80.0672 33.5836 78.6343 35.1509 77.9167C34.6233 77.4864 34.0815 77.0647 33.5425 76.6316C33.0473 76.6222 32.5522 76.6127 32.0571 76.6033L32.0511 76.5775Z" fill="#A7C5C7"/>
<path d="M33.5365 76.6059C34.0756 77.039 34.6059 77.4579 35.1449 77.891C35.4294 78.02 35.7001 78.2065 35.9896 78.2638C37.9618 78.6398 38.7705 78.202 39.0101 76.5462C39.3039 74.5632 39.5147 72.5723 39.7484 70.587C39.0538 70.0437 38.4323 69.3478 37.6651 69.0057C36.6998 68.5797 35.6141 68.4528 34.5817 68.2051C33.7868 70.153 32.1084 70.9289 30.2832 71.6089C29.3135 71.9594 29.3488 72.0651 28.2955 74.2304C29.588 74.7593 30.8718 75.2739 32.1441 75.7857C32.6015 76.0535 33.0676 76.3354 33.525 76.6031L33.5365 76.6059Z" fill="#F79E21"/>
<path d="M53.5962 7.21242C58.1677 8.33363 62.7419 9.44335 67.3133 10.5646C67.0039 9.57897 66.3002 8.97268 65.3394 8.72998C62.2963 7.96336 59.2643 7.15078 56.1941 6.54777C55.4058 6.39507 54.4668 6.97172 53.5962 7.21242Z" fill="#E3ACAB"/>
<path d="M25.7163 44.2788C26.2935 41.6712 26.5302 39.0669 25.3796 36.5307C24.3034 39.9542 24.3946 41.7988 25.7163 44.2788Z" fill="#E3ACAB"/>
<path d="M46.4981 7.67216C48.3674 8.0721 50.208 8.13704 51.9415 7.13131C49.9779 5.80958 48.1785 6.1798 46.4981 7.67216Z" fill="#E3ACAB"/>
<path d="M28.8353 23.8479C29.4847 22.2539 30.1427 20.6742 30.7921 19.0803C28.2997 19.7095 28.4798 21.8913 28.0732 23.7379C28.331 23.7755 28.5774 23.8103 28.8353 23.8479Z" fill="#E3ACAB"/>
<path d="M33.5432 66.9717C33.7271 65.8007 33.2818 64.9769 32.2073 64.5004C31.9123 65.7298 32.3718 66.5448 33.5432 66.9717Z" fill="#E3ACAB"/>
<path d="M30.145 60.2023C30.395 59.0593 29.9552 58.2125 29.011 57.5972C28.5729 58.8165 28.9585 59.6867 30.145 60.2023Z" fill="#E3ACAB"/>
<path d="M28.8304 56.9341C29.1864 55.8044 28.7838 54.9545 27.8791 54.2756C27.3776 55.4555 27.6977 56.3464 28.8304 56.9341Z" fill="#E3ACAB"/>
<path d="M32.0473 17.0849C33.0799 16.7251 33.8152 16.0874 33.9707 14.9339C32.5977 14.9933 31.9027 15.665 32.0473 17.0849Z" fill="#E3ACAB"/>
<path d="M42.2829 8.90869C43.4419 9.2354 44.3602 8.8968 45.0466 7.90713C43.8289 7.42052 42.9105 7.75913 42.2829 8.90869Z" fill="#E3ACAB"/>
<path d="M28.8353 23.8479C28.5747 23.8218 28.3283 23.787 28.0731 23.7379C28.0763 24.0789 28.0821 24.4084 28.0852 24.7493C28.34 24.4459 28.5805 24.1513 28.8353 23.8479Z" fill="#E37378"/>
<path d="M33.5365 76.6059C33.0791 76.3382 32.6244 76.059 32.1555 75.7885C32.0949 76.0413 32.0544 76.311 32.0397 76.5748C32.5348 76.5842 33.0299 76.5937 33.525 76.6031L33.5365 76.6059Z" fill="#E3ACAB"/>
<path d="M86.1769 31.349C85.7374 25.1923 83.664 22.8113 77.3801 21.2428C75.9668 22.5319 74.643 23.9033 74.0133 25.7693C75.0111 27.88 76.009 29.9907 77.0069 32.1014C78.2365 32.6394 78.6621 33.4949 78.0527 34.7704C78.0553 35.3664 78.0579 35.9624 78.0604 36.5584C78.79 38.1187 78.384 39.4065 77.1405 40.4934C76.7882 41.709 76.3298 42.9113 76.1294 44.1513C76.054 44.6678 76.3841 45.4153 76.774 45.8127C77.4209 46.4539 78.2423 46.165 78.9423 45.7254C79.3434 45.4693 79.7386 45.1874 80.053 44.8376C83.0942 41.3144 85.773 37.5827 86.221 32.7326C86.1995 32.2657 86.1868 31.8131 86.1654 31.3462L86.1769 31.349Z" fill="#E3E3EB"/>
<path d="M73.999 25.778C74.643 23.9033 75.9526 22.5406 77.3659 21.2515C77.276 21.1206 77.2141 20.9235 77.0792 20.879C74.9796 20.0228 74.338 21.8373 73.4415 22.9953C72.6638 24.0116 72.7507 25.0653 73.9848 25.7867L73.999 25.778Z" fill="#E37378"/>
<path d="M77.1263 40.5021C78.3725 39.4038 78.7785 38.116 78.0462 36.5672C76.179 37.9783 76.0688 38.4378 77.1263 40.5021Z" fill="#E37378"/>
<path d="M78.0527 34.7704C78.6593 33.5064 78.2365 32.6394 77.0069 32.1013C76.56 33.3064 76.8773 34.2088 78.0527 34.7704Z" fill="#E37378"/>
</g>
<defs>
<clipPath id="clip0_5_1797">
<rect width="65" height="139" fill="white" transform="matrix(-0.972399 -0.233323 -0.233323 0.972399 96.5776 16.1647)"/>
</clipPath>
</defs>
</svg>
