<svg width="112" height="101" viewBox="0 0 112 101" fill="none" xmlns="http://www.w3.org/2000/svg">
<g clip-path="url(#clip0_5_2377)">
<path d="M16.3059 30.4254C17.3298 29.6358 18.3693 28.8461 19.3933 28.0564C19.8122 27.7468 20.2311 27.4371 20.65 27.1274L20.8517 26.9881C21.255 26.6164 21.6739 26.2603 22.0773 25.8887C22.248 25.5481 22.3411 25.1919 22.3256 24.8049C23.9856 24.3403 25.6612 23.8603 27.3213 23.3958C28.5004 23.7365 29.3692 23.3339 29.9898 22.312C30.3466 22.1726 30.7034 22.0642 31.0603 21.9713C32.2549 22.3739 33.1547 22.0333 33.6822 20.8565C34.5045 19.6952 34.8303 18.4875 34.1011 17.1559C34.3649 16.0256 34.6286 14.8953 34.8924 13.7805C36.0405 12.9444 36.4904 11.876 35.9939 10.4979C36.2111 9.86311 36.4438 9.24376 36.6611 8.60893C36.9713 8.08249 37.2972 7.55604 37.6074 7.0296L37.6385 6.90573C40.1829 5.24898 42.7273 3.59222 45.2717 1.91999C45.7061 1.91999 46.0939 1.8116 46.4508 1.57935C47.3661 1.57935 48.2815 1.57935 49.2124 1.56386C52.517 1.57935 55.8061 1.61031 59.1107 1.6258C59.6072 1.51741 60.1036 1.40903 60.6156 1.28516C61.1431 1.43999 61.6706 1.59483 62.1981 1.74967C62.9428 2.07482 63.672 2.39998 64.4167 2.72514L64.9752 2.95739C65.6424 3.329 66.3095 3.68513 66.9921 4.05673L67.4265 4.31996C67.7213 4.53673 68.0316 4.76898 68.3264 4.98575C68.3264 4.98575 68.6212 5.49672 68.6056 5.49672C68.8694 6.53412 69.5055 7.10702 70.6225 7.04508L70.7622 7.16895C71.15 7.54056 71.5224 7.91217 71.9103 8.29926L72.0344 8.43861C71.9878 9.55344 72.5774 10.1573 73.6013 10.4205L73.772 10.6528C74.0823 11.0863 74.3771 11.5199 74.6874 11.9534L74.7649 12.0773C74.5633 13.2076 75.1063 13.9198 76.0682 14.3998C76.0682 14.3998 76.1457 14.6011 76.1457 14.5856C75.8199 15.7159 76.3009 16.5211 77.2007 17.1559C77.3093 17.5275 77.4024 17.8991 77.4645 18.2707C77.0766 20.5778 76.8284 22.8539 78.4574 24.8668C78.8608 24.8978 79.2642 24.9442 79.6676 24.9752C80.0709 25.1145 80.4898 25.161 80.9242 25.099C82.3206 26.1674 83.5462 25.9197 84.6012 24.5881L84.896 24.3403C86.6026 24.4952 88.2937 24.65 90.0003 24.8049C92.6067 25.579 95.1977 26.3532 97.8041 27.1274C102.148 28.49 105.391 31.277 107.92 34.9621C107.733 36.1079 108.277 36.8357 109.285 37.2692L109.394 37.486C109.114 38.6008 109.58 39.3595 110.526 39.9169L110.573 40.0718C110.2 41.9298 110.449 43.6175 111.783 45.0575L111.985 45.1504C111.845 46.8226 111.69 48.5104 111.55 50.1826C111.224 51.5297 110.898 52.8767 110.557 54.2083C110.418 54.5645 110.324 54.9206 110.231 55.2767C109.968 55.8032 109.704 56.3296 109.425 56.8561C105.468 63.514 99.3091 66.4095 91.862 67.0908C90.8226 67.1837 89.7365 67.1217 88.7746 67.4314C88.061 67.6637 87.5024 68.3914 86.8663 68.8869C86.6802 69.4753 86.494 70.0791 86.3078 70.6675L81.8551 79.4158C78.5195 82.1099 75.4631 85.2531 71.1656 86.5073C69.8158 85.9344 68.7453 86.3989 67.8454 87.4363C64.7115 88.2569 61.5775 88.3034 58.4281 87.5292C55.1545 85.377 51.3999 84.4944 47.6764 83.5654C47.3661 83.4106 47.0714 83.2402 46.7921 83.0235C44.1236 79.0906 43.1151 78.1151 39.1589 75.5603C38.9572 75.2971 38.7866 75.0339 38.6314 74.7397C38.9262 72.4481 37.3437 71.9372 35.6061 71.5655C35.0941 70.3888 34.6131 69.1656 33.0306 69.0882C32.6428 68.9488 32.2549 68.8094 31.8515 68.6701C30.7655 68.5772 29.6795 68.4843 28.5935 68.3914C27.3988 67.3849 26.0646 67.1527 24.5907 67.7101C23.6443 67.3075 22.7444 66.7346 21.767 66.5179C19.2381 65.9759 17.3298 64.7218 15.9956 62.4921C15.5922 61.7953 14.9251 61.2534 14.3821 60.6496C13.808 57.5064 12.2411 54.8587 10.2552 52.4277C10.1 51.7 9.9604 50.9723 9.80526 50.26C11.0775 48.1233 11.0154 46.002 9.69666 43.8962C9.9604 42.7659 10.2086 41.6356 10.4724 40.5208C12.6444 37.2847 15.0802 34.2034 16.2438 30.3945L16.3059 30.4254ZM61.8258 55.0135C62.2291 54.7038 62.648 54.4096 63.0514 54.1C64.9287 53.0626 65.7975 51.2974 66.4957 49.4084C68.5901 45.7543 67.9075 43.3233 64.2926 41.5427C61.3913 38.0124 57.6368 37.0989 53.4479 38.4615C51.5085 39.0963 49.833 40.5363 48.0488 41.6046C47.7075 42.0382 47.3661 42.4872 47.0248 42.9207C46.8542 43.2459 46.6835 43.5711 46.5439 43.8962C44.6045 46.0175 44.7131 48.1233 46.6525 50.1826C47.9402 52.3658 49.5227 54.2548 51.9274 55.2922C52.4704 56.1593 53.1996 56.5774 54.2391 56.1903C55.9457 56.1128 57.6523 56.0354 59.3589 55.958C60.3208 56.3606 60.988 56.0199 61.4689 55.1683L61.8258 54.967V55.0135Z" fill="#F11808"/>
<path d="M59.1262 1.64124C55.8216 1.62576 52.5325 1.59479 49.2279 1.57931C49.1814 1.26963 49.1658 0.975445 49.1814 0.665771C52.517 0.681255 55.8682 0.712222 59.2038 0.727706C59.2038 1.03738 59.2038 1.33157 59.1262 1.62576V1.64124Z" fill="#EE541E"/>
<path d="M97.8041 27.1429C95.1976 26.3687 92.6067 25.5945 90.0002 24.8203C90.4657 24.619 90.9156 24.4332 91.381 24.2319C93.7703 24.65 96.4388 24.4642 97.8041 27.1429Z" fill="#E37378"/>
<path d="M78.4574 24.8823C76.8284 22.8849 77.0921 20.5933 77.4645 18.2863C79.0625 19.6953 78.5039 21.6617 78.7832 23.4113C78.6746 23.8913 78.566 24.3868 78.4574 24.8823Z" fill="#E37378"/>
<path d="M91.3811 24.2319C90.9157 24.4332 90.4657 24.619 90.0003 24.8203C88.2937 24.6655 86.6026 24.5106 84.896 24.3558C87.0215 22.7919 89.1935 23.2719 91.3811 24.2319Z" fill="#E3ACAB"/>
<path d="M84.6012 24.6035C83.5306 25.9351 82.3205 26.1828 80.9242 25.1145C82.1498 24.9442 83.3755 24.7738 84.6012 24.6035Z" fill="#E37378"/>
<path d="M49.1814 0.665855C49.1659 0.975529 49.1814 1.2852 49.2279 1.57939C48.3126 1.57939 47.3972 1.57939 46.4818 1.59488C46.3888 1.17682 46.4043 0.743274 46.5284 0.340698C47.4127 0.449084 48.2971 0.55747 49.1814 0.665855Z" fill="#E3ACAB"/>
<path d="M64.4167 2.74063C63.672 2.41547 62.9428 2.09032 62.1981 1.76516C63.1911 1.5329 63.9823 1.73419 64.4167 2.74063Z" fill="#E3ACAB"/>
<path d="M66.9921 4.08766C66.325 3.71605 65.6579 3.35993 64.9752 2.98832C65.9526 2.818 66.6663 3.09671 66.9921 4.08766Z" fill="#E3ACAB"/>
<path d="M70.638 7.06053C69.5209 7.12247 68.9004 6.54957 68.6211 5.51217C69.7381 5.43475 70.3587 6.02313 70.638 7.06053Z" fill="#E37378"/>
<path d="M73.6013 10.4205C72.5773 10.1573 71.9878 9.55342 72.0343 8.4386C73.0893 8.68634 73.6633 9.30568 73.6013 10.4205Z" fill="#E37378"/>
<path d="M76.0682 14.3998C75.1063 13.9198 74.5633 13.2076 74.765 12.0773C75.8665 12.4798 76.2699 13.2695 76.0682 14.3998Z" fill="#E37378"/>
<path d="M77.2162 17.1714C76.3164 16.5365 75.8354 15.7314 76.1612 14.6011C77.2783 15.143 77.5265 16.0411 77.2162 17.1714Z" fill="#E37378"/>
<path d="M78.4574 24.8823C78.566 24.3868 78.6746 23.9069 78.7832 23.4114C79.078 23.9378 79.3728 24.4643 79.6675 24.9752C79.2642 24.9443 78.8608 24.8978 78.4574 24.8668V24.8823Z" fill="#E3ACAB"/>
<path d="M68.3264 5.01675C68.0316 4.79998 67.7213 4.56772 67.4265 4.35095C67.7368 4.56772 68.0316 4.79998 68.3264 5.01675Z" fill="#E3ACAB"/>
<path d="M59.1262 1.64122C59.1883 1.34703 59.2193 1.03735 59.2038 0.743164C59.6847 0.928968 60.1502 1.13026 60.6311 1.31606C60.1347 1.42445 59.6382 1.53283 59.1262 1.6567V1.64122Z" fill="#E3ACAB"/>
<path d="M0.434385 70.6984C0.403355 69.4133 0.387841 68.1436 0.356812 66.8585C0.868794 66.0223 1.39629 65.1862 1.90827 64.3501C2.74606 63.7462 3.59937 63.1579 4.43715 62.554C9.61904 62.4921 12.8926 65.2327 14.9716 69.7229C14.9095 71.9371 15.406 73.919 17.2833 75.328C17.4539 75.5448 17.5315 75.7925 17.5005 76.0558C16.9574 79.4467 17.9504 82.5125 19.4553 86.3679C20.3086 85.0673 20.6965 84.4634 21.0999 83.875C21.4412 83.6273 21.7825 83.3795 22.1238 83.1318C23.1478 83.7511 23.6908 84.6337 23.6132 85.8569C23.8304 86.9718 24.5131 87.653 25.6456 87.6066C27.2592 87.5292 28.8416 87.2659 29.9277 85.8724C30.238 85.7331 30.5793 85.6402 30.9206 85.5937C34.0856 85.6556 37.2351 85.7176 40.4 85.7795C42.9755 86.3214 45.163 87.4672 46.5904 89.7743C46.5904 91.493 46.6059 93.1962 46.6214 94.9149C45.5199 95.6736 44.4028 96.4168 43.3013 97.1755C40.9741 96.3858 38.6624 95.9833 36.4128 97.3923C34.2718 97.0516 32.1307 96.711 29.9897 96.3858C29.3381 95.2865 28.5313 94.9304 27.4919 95.9058C24.7768 95.6581 22.279 93.862 19.3932 94.7136C19.0674 95.1471 18.7571 95.5962 18.4313 96.0297C17.6401 97.3768 16.8488 98.7239 16.0421 100.071C15.5456 100.381 15.0647 100.69 14.5682 101C12.722 100.799 11.9307 99.7148 12.5513 98.0271C13.2495 96.1071 14.2579 94.28 15.1267 92.422C15.8559 91.7717 15.7008 91.3381 14.8009 91.0749C11.7135 87.715 8.6261 84.355 5.53869 80.9951C5.77141 79.4931 5.05774 78.5951 3.69245 78.1151C2.91672 76.6132 2.14099 75.1113 1.34975 73.5939C1.78416 72.3861 1.45835 71.4262 0.434385 70.6829V70.6984Z" fill="#48635B"/>
<path d="M16.3058 30.4255C15.1422 34.2345 12.7064 37.3157 10.5344 40.5518C10.2241 36.3402 12.241 33.1816 15.1578 30.4564C15.3594 30.2706 15.9025 30.4255 16.2903 30.4255H16.3058Z" fill="#E37378"/>
<path d="M52.1291 87.0338C50.8413 85.6558 48.2814 85.888 47.7074 83.5964C51.4464 84.5255 55.1854 85.408 58.459 87.5603C56.2249 88.737 54.239 87.0957 52.1291 87.0183V87.0338Z" fill="#E37378"/>
<path d="M45.3027 1.9355C42.7583 3.59226 40.2139 5.26449 37.6695 6.92124C37.3902 5.52771 38.0574 4.55224 39.0658 3.74709C39.8571 3.11226 40.6793 2.53937 41.4861 1.9355C42.3239 1.76518 43.1617 1.57938 43.9995 1.40906C44.4339 1.57938 44.8528 1.76518 45.2872 1.9355H45.3027Z" fill="#E3ACAB"/>
<path d="M14.4441 60.6806C13.4202 60.1386 12.3962 59.5812 11.3722 59.0393C11.4033 56.7787 9.46395 54.8432 10.3017 52.4587C12.2876 54.8897 13.8546 57.5374 14.4286 60.6806H14.4441Z" fill="#E37378"/>
<path d="M36.3973 97.3923C38.647 95.9678 40.9586 96.3859 43.2858 97.1755C41.0362 98.8168 38.74 98.8633 36.3973 97.3923Z" fill="#86959D"/>
<path d="M9.7587 43.9272C11.0774 46.033 11.1395 48.1388 9.86731 50.291C8.23827 48.2007 8.28481 46.0795 9.7587 43.9272Z" fill="#E37378"/>
<path d="M27.4763 95.906C28.5313 94.9305 29.3226 95.2866 29.9742 96.386C28.9502 97.2066 28.1434 96.8969 27.4763 95.906Z" fill="#86959D"/>
<path d="M46.5903 89.7899C46.9472 89.7899 47.304 89.8363 47.6609 89.8828C47.8625 91.6789 48.5297 93.5679 46.6059 94.915C46.6059 93.1963 46.5903 91.4931 46.5748 89.7744L46.5903 89.7899Z" fill="#86959D"/>
<path d="M67.892 87.4672C68.7918 86.4298 69.8468 85.9652 71.2121 86.5381C70.3898 87.8542 69.2728 88.133 67.892 87.4672Z" fill="#E37378"/>
<path d="M3.69245 78.1152C5.05774 78.5952 5.77141 79.4933 5.53869 80.9952C3.89414 80.701 3.33562 79.6946 3.69245 78.1152Z" fill="#86959D"/>
<path d="M0.434419 70.6985C1.45838 71.4417 1.78419 72.4017 1.34978 73.6094C0.155156 72.9281 -0.480943 72.061 0.434419 70.6985Z" fill="#86959D"/>
<path d="M1.90828 64.3501C1.39629 65.1862 0.868798 66.0223 0.356815 66.8585C-0.294798 64.9385 -0.23274 64.8456 1.90828 64.3501Z" fill="#86959D"/>
<path d="M44.015 1.40901C43.1772 1.57933 42.3394 1.76514 41.5016 1.93546C41.8429 1.28514 42.1842 0.650314 42.5256 0C43.022 0.46451 43.5185 0.944504 44.015 1.40901Z" fill="#E6E8EF"/>
<path d="M35.9939 10.4979C36.4904 11.876 36.0404 12.9443 34.8923 13.7805C34.1011 12.294 34.4579 11.1947 35.9939 10.4979Z" fill="#E37378"/>
<path d="M14.8009 91.075C15.7008 91.3382 15.8404 91.7717 15.1267 92.422C15.0181 91.973 14.9095 91.524 14.8009 91.075Z" fill="#86959D"/>
<path d="M32.6737 75.8081C32.1462 76.4429 31.6032 77.0932 31.0757 77.7281C28.0969 79.7874 26.6696 83.0854 24.6216 85.9034C24.2803 85.8725 23.9545 85.8725 23.6132 85.8725C23.7063 84.6493 23.1477 83.7667 22.1238 83.1474C24.6527 78.5642 28.0814 74.6933 31.5101 70.8069C32.0376 70.2494 32.5496 69.692 33.0771 69.1191C34.6596 69.1966 35.1405 70.4043 35.6525 71.5965C35.4198 71.8907 35.2491 72.2159 35.1561 72.572C34.3338 73.6559 33.496 74.7397 32.6737 75.8081Z" fill="#7FA260"/>
<path d="M42.7427 81.444C41.6256 79.4466 39.1278 78.2853 39.1899 75.5757C43.1461 78.1305 44.17 79.1214 46.823 83.0388C45.4578 82.4969 44.108 81.9704 42.7427 81.4285V81.444Z" fill="#E37378"/>
<path d="M66.5112 49.4238C65.782 46.8071 65.0373 44.1748 64.3081 41.5581C67.923 43.3387 68.6057 45.7697 66.5112 49.4238Z" fill="#E37378"/>
<path d="M28.6555 68.4224C27.2074 69.1759 25.8732 68.9488 24.6527 67.7411C26.1266 67.1837 27.4453 67.4159 28.6555 68.4224Z" fill="#E3ACAB"/>
<path d="M35.1561 72.5565C35.2492 72.2004 35.4199 71.8752 35.6526 71.5811C37.3747 71.9527 38.9572 72.4636 38.6779 74.7552C38.2901 74.941 37.9022 75.0029 37.4833 74.941C36.7076 74.1513 35.9319 73.3462 35.1561 72.5565Z" fill="#E37378"/>
<path d="M46.5438 43.9272C46.5748 46.0175 46.6059 48.1233 46.6524 50.2136C44.7131 48.1543 44.62 46.0485 46.5438 43.9272Z" fill="#E37378"/>
<path d="M59.3589 56.0045C60.057 55.7413 60.7707 55.4781 61.4689 55.2148C60.9879 56.0664 60.3208 56.4071 59.3589 56.0045Z" fill="#E3ACAB"/>
<path d="M51.9274 55.3232C52.7031 55.6329 53.4633 55.9271 54.239 56.2213C53.1996 56.5929 52.4704 56.1903 51.9274 55.3232Z" fill="#E3ACAB"/>
<path d="M31.0758 21.9713C31.9446 21.5997 32.829 21.2281 33.6978 20.8564C33.1703 22.0332 32.2859 22.3738 31.0758 21.9713Z" fill="#E37378"/>
<path d="M27.3368 23.3958C27.9419 22.3274 28.8417 22.0023 30.0053 22.312C29.3847 23.3339 28.5159 23.7365 27.3368 23.3958Z" fill="#E37378"/>
<path d="M33.0771 69.1191C32.5496 69.6765 32.0376 70.234 31.5101 70.8068C31.6342 70.1101 31.7739 69.4133 31.898 68.7166C32.2859 68.8559 32.6892 68.9953 33.0771 69.1346V69.1191Z" fill="#E3ACAB"/>
<path d="M17.516 76.0713C18.028 77.7745 18.571 79.4777 19.052 81.1964C19.3778 82.3886 19.7036 83.5344 21.1154 83.8905C20.7276 84.4944 20.3242 85.0983 19.4709 86.3834C17.966 82.528 16.973 79.4622 17.516 76.0713Z" fill="#7FA260"/>
<path d="M30.9207 85.6093C30.9672 85.2377 31.0603 84.8816 31.2309 84.5564C34.2098 84.6183 37.2041 84.6958 40.1829 84.7577C40.276 85.0983 40.338 85.4544 40.4001 85.7951C37.2351 85.7332 34.0856 85.6712 30.9207 85.6093Z" fill="#86959D"/>
<path d="M14.9716 69.7229C16.6937 71.2093 17.3143 73.1448 17.2832 75.3435C15.406 73.919 14.894 71.9371 14.9716 69.7229Z" fill="#7FA260"/>
<path d="M24.6217 85.888C26.3904 85.888 28.1591 85.888 29.9277 85.888C28.8262 87.2816 27.2592 87.5448 25.6457 87.6222C24.5131 87.6687 23.8305 86.9874 23.6133 85.8726C23.9546 85.8726 24.2804 85.8726 24.6217 85.9035V85.888Z" fill="#86959D"/>
</g>
<defs>
<clipPath id="clip0_5_2377">
<rect width="112" height="101" fill="white"/>
</clipPath>
</defs>
</svg>
