<svg width="21" height="20" viewBox="0 0 21 20" fill="none" xmlns="http://www.w3.org/2000/svg">
<path d="M20.4414 5.87891C20.4154 5.34505 20.3633 4.88607 20.2852 4.50195C20.207 4.11784 20.1029 3.76953 19.9727 3.45703C19.8424 3.11849 19.6829 2.79948 19.4941 2.5C19.3053 2.20052 19.0807 1.92708 18.8203 1.67969C18.5729 1.43229 18.2995 1.21094 18 1.01562C17.7005 0.820312 17.3815 0.657553 17.043 0.527344C16.7305 0.410156 16.3822 0.309244 15.998 0.224609C15.6139 0.139975 15.1549 0.0846348 14.6211 0.0585938C14.0872 0.0325527 13.6055 0.0162754 13.1758 0.00976562C12.7461 0.00325584 11.8542 0 10.5 0C9.14583 0 8.25391 0.00325584 7.82422 0.00976562C7.39453 0.0162754 6.91276 0.0325527 6.37891 0.0585938C5.84505 0.0846348 5.38607 0.136719 5.00195 0.214844C4.61784 0.292969 4.26953 0.397135 3.95703 0.527344C3.61849 0.657553 3.29948 0.817057 3 1.00586C2.70052 1.19466 2.42708 1.41927 2.17969 1.67969C1.91927 1.92708 1.69141 2.20052 1.49609 2.5C1.30078 2.79948 1.14453 3.11849 1.02734 3.45703C0.897135 3.76953 0.792969 4.11784 0.714844 4.50195C0.636719 4.88607 0.584635 5.34505 0.558594 5.87891C0.532552 6.41276 0.516276 6.89453 0.509766 7.32422C0.503255 7.75391 0.5 8.64583 0.5 10C0.5 11.3542 0.503255 12.2461 0.509766 12.6758C0.516276 13.1055 0.532552 13.5872 0.558594 14.1211C0.584635 14.6549 0.636719 15.1139 0.714844 15.498C0.792969 15.8822 0.897135 16.2305 1.02734 16.543C1.14453 16.8815 1.30078 17.2005 1.49609 17.5C1.69141 17.7995 1.91927 18.0729 2.17969 18.3203C2.42708 18.5807 2.70052 18.8086 3 19.0039C3.29948 19.1992 3.61198 19.3555 3.9375 19.4727C4.26302 19.6029 4.61784 19.707 5.00195 19.7852C5.38607 19.8633 5.84505 19.9154 6.37891 19.9414C6.91276 19.9674 7.39128 19.9837 7.81445 19.9902C8.23763 19.9967 9.13281 20 10.5 20C11.8542 20 12.7461 19.9967 13.1758 19.9902C13.6055 19.9837 14.0872 19.9674 14.6211 19.9414C15.1549 19.9154 15.6139 19.8633 15.998 19.7852C16.3822 19.707 16.7305 19.6029 17.043 19.4727C17.7201 19.2122 18.3125 18.8281 18.8203 18.3203C19.3281 17.8125 19.7122 17.2201 19.9727 16.543C20.0898 16.2305 20.1908 15.8822 20.2754 15.498C20.36 15.1139 20.4154 14.6549 20.4414 14.1211C20.4544 13.5872 20.4674 13.1055 20.4805 12.6758C20.4935 12.2461 20.5 11.3542 20.5 10C20.5 8.64583 20.4967 7.75391 20.4902 7.32422C20.4837 6.89453 20.4674 6.41276 20.4414 5.87891ZM18.6445 14.043C18.6185 14.5378 18.5697 14.9284 18.498 15.2148C18.4264 15.5013 18.3581 15.7292 18.293 15.8984C18.1237 16.3411 17.873 16.7253 17.541 17.0508C17.209 17.3763 16.8281 17.6237 16.3984 17.793C16.2161 17.8711 15.9818 17.9427 15.6953 18.0078C15.4089 18.0729 15.0247 18.1185 14.543 18.1445C14.0091 18.1706 13.5371 18.1868 13.127 18.1934C12.7168 18.1999 11.8411 18.2031 10.5 18.2031C9.17188 18.2031 8.29948 18.1999 7.88281 18.1934C7.46615 18.1868 6.99089 18.1706 6.45703 18.1445C5.97526 18.1185 5.59115 18.0729 5.30469 18.0078C5.01823 17.9427 4.78385 17.8711 4.60156 17.793C4.39323 17.7148 4.19141 17.6139 3.99609 17.4902C3.80078 17.3665 3.61849 17.2201 3.44922 17.0508C3.29297 16.8945 3.14974 16.7188 3.01953 16.5234C2.88932 16.3281 2.78516 16.1198 2.70703 15.8984C2.64193 15.7292 2.57357 15.5013 2.50195 15.2148C2.43034 14.9284 2.38802 14.5378 2.375 14.043C2.34896 13.5221 2.33268 13.0534 2.32617 12.6367C2.31966 12.2201 2.31641 11.3411 2.31641 10C2.31641 8.67188 2.31966 7.79948 2.32617 7.38281C2.33268 6.96615 2.34896 6.4974 2.375 5.97656C2.38802 5.48177 2.43034 5.09115 2.50195 4.80469C2.57357 4.51823 2.64193 4.29036 2.70703 4.12109C2.78516 3.89974 2.88932 3.69141 3.01953 3.49609C3.14974 3.30078 3.29948 3.125 3.46875 2.96875C3.625 2.79948 3.80078 2.65299 3.99609 2.5293C4.19141 2.4056 4.39323 2.30469 4.60156 2.22656C4.78385 2.14844 5.01823 2.07682 5.30469 2.01172C5.59115 1.94662 5.97526 1.90104 6.45703 1.875C6.99089 1.84896 7.46615 1.83268 7.88281 1.82617C8.29948 1.81966 9.17188 1.81641 10.5 1.81641C11.8411 1.81641 12.7201 1.81966 13.1367 1.82617C13.5534 1.83268 14.0221 1.84896 14.543 1.875C15.0378 1.90104 15.4284 1.94662 15.7148 2.01172C16.0013 2.07682 16.2292 2.14844 16.3984 2.22656C16.6198 2.30469 16.8281 2.4056 17.0234 2.5293C17.2188 2.65299 17.3945 2.79948 17.5508 2.96875C17.7201 3.125 17.8665 3.30078 17.9902 3.49609C18.1139 3.69141 18.2148 3.89974 18.293 4.12109C18.3581 4.29036 18.4264 4.51823 18.498 4.80469C18.5697 5.09115 18.6185 5.48177 18.6445 5.97656C18.6706 6.4974 18.6868 6.96615 18.6934 7.38281C18.6999 7.79948 18.7031 8.67188 18.7031 10C18.7031 11.3411 18.6999 12.2201 18.6934 12.6367C18.6868 13.0534 18.6706 13.5221 18.6445 14.043ZM10.5 4.86328C9.78385 4.86328 9.11979 5 8.50781 5.27344C7.88281 5.53385 7.33594 5.89844 6.86719 6.36719C6.39844 6.83594 6.03385 7.38281 5.77344 8.00781C5.5 8.63281 5.36328 9.29688 5.36328 10C5.36328 10.7161 5.5 11.3802 5.77344 11.9922C6.03385 12.6172 6.39844 13.1641 6.86719 13.6328C7.33594 14.1016 7.88281 14.4661 8.50781 14.7266C9.11979 15 9.78385 15.1367 10.5 15.1367C11.2031 15.1367 11.8672 15 12.4922 14.7266C13.1172 14.4661 13.6641 14.1016 14.1328 13.6328C14.6016 13.1641 14.9661 12.6172 15.2266 11.9922C15.5 11.3802 15.6367 10.7161 15.6367 10C15.6367 9.29688 15.5 8.63281 15.2266 8.00781C14.9661 7.38281 14.6016 6.83594 14.1328 6.36719C13.6641 5.89844 13.1172 5.53385 12.4922 5.27344C11.8672 5 11.2031 4.86328 10.5 4.86328ZM10.5 13.3398C9.57552 13.3398 8.78776 13.0143 8.13672 12.3633C7.48568 11.7122 7.16016 10.9245 7.16016 10C7.16016 9.07552 7.48568 8.28776 8.13672 7.63672C8.78776 6.98568 9.57552 6.66016 10.5 6.66016C11.4245 6.66016 12.2122 6.98568 12.8633 7.63672C13.5143 8.28776 13.8398 9.07552 13.8398 10C13.8398 10.9245 13.5143 11.7122 12.8633 12.3633C12.2122 13.0143 11.4245 13.3398 10.5 13.3398ZM17.043 4.66797C17.043 4.99349 16.9258 5.27344 16.6914 5.50781C16.457 5.74219 16.1706 5.85938 15.832 5.85938C15.5065 5.85938 15.2266 5.74219 14.9922 5.50781C14.7578 5.27344 14.6406 4.99349 14.6406 4.66797C14.6406 4.32943 14.7578 4.04297 14.9922 3.80859C15.2266 3.57422 15.5065 3.45703 15.832 3.45703C16.1706 3.45703 16.457 3.57422 16.6914 3.80859C16.9258 4.04297 17.043 4.32943 17.043 4.66797Z" fill="#FFDD5E"/>
</svg>
