<svg width="82" height="75" viewBox="0 0 82 75" fill="none" xmlns="http://www.w3.org/2000/svg">
<g clip-path="url(#clip0_5_2321)">
<path d="M37.3613 3.5032C39.3376 4.06053 41.3138 4.60458 43.3034 5.16191C44.5719 6.05097 45.8271 6.94004 47.0956 7.81583C47.4428 8.16084 47.7899 8.51912 48.1505 8.86413C48.4442 10.284 49.2187 11.3456 50.5406 11.9958V12.009C51.0213 12.9379 51.4887 13.8535 51.9694 14.7824C52.3299 15.6449 52.6771 16.4942 53.0376 17.3567C52.8106 18.5908 53.3047 19.4533 54.3863 20.0239L54.5198 20.1964C54.8937 21.3376 55.6548 21.9082 56.8699 21.6295C57.8447 21.4039 58.2452 20.7007 58.1785 19.7187C58.2319 18.3785 58.2986 17.0382 58.3521 15.6847L58.7126 15.8042L59.0865 15.7378C59.7007 15.7113 60.3149 15.6715 60.9292 15.6449C62.5716 16.2686 64.214 16.8923 65.843 17.5159C67.2317 19.3471 69.1946 20.2362 71.3444 20.8201C73.1203 22.6646 74.9096 24.5223 76.6856 26.3668C77.6603 27.9459 78.6351 29.525 79.6098 31.1041C80.1172 33.1343 80.638 35.1778 81.1454 37.2081C79.6766 39.5435 80.4511 42.1975 80.0772 44.6789C79.4362 46.5764 78.782 48.474 78.141 50.3716C77.9407 50.5971 77.8072 50.8493 77.7404 51.1412C76.5253 51.5526 75.9111 52.3753 76.0046 53.6757C75.5239 54.3259 75.0432 54.9894 74.5624 55.6396C72.7999 56.1571 71.7183 57.232 71.6248 59.1428C71.1041 59.7532 70.5833 60.3769 70.0492 60.9873C68.4335 61.7569 68.34 61.9427 68.9275 63.4024C69.1412 65.207 69.7821 66.7728 71.0373 68.1529C72.466 69.732 73.7346 71.457 75.0832 73.1157C74.9897 73.6863 74.8829 74.2569 74.7894 74.8275C73.5476 75.146 72.4126 75.1327 71.3177 74.2304C70.1026 73.2484 68.7272 72.4655 67.432 71.5897C66.8845 71.1518 66.3771 70.4353 65.7629 70.3158C61.2363 69.4799 56.7764 69.4798 52.6637 72.0011C49.3255 72.439 46.0007 73.0626 42.6491 73.2617C40.566 73.3811 38.4429 72.8636 36.3332 72.6247C35.986 72.2399 35.7056 71.6163 35.2916 71.5101C31.0855 70.5016 27.3467 68.551 23.7548 66.2155C23.2207 65.8705 22.4195 65.9103 21.7385 65.7776C20.2964 64.2516 18.8676 62.7389 17.4255 61.2129C17.3587 60.6953 17.332 60.1646 17.1985 59.647C16.7044 57.6301 16.7044 57.6301 18.7608 56.6481C19.9091 56.3827 21.0575 56.1173 22.2058 55.8519C22.7266 55.4008 23.6479 54.9629 23.6613 54.4984C23.688 53.7022 23.3942 52.5345 22.8067 52.1232C21.645 51.3137 20.243 50.5706 18.8676 50.4246C14.7416 49.9735 11.0962 48.4873 7.78473 46.0722C7.51767 45.8732 7.09038 45.8997 6.72985 45.8201C6.18238 45.1699 5.63491 44.5064 5.08745 43.8562C4.51327 41.2288 4.40645 38.4422 2.75069 36.1465C2.88422 35.3636 3.01775 34.5807 3.15128 33.7978C3.56522 33.7447 3.97916 33.7049 4.3931 33.6518C5.1008 34.0499 5.82185 34.4613 6.52956 34.8594C7.01026 35.7352 7.77137 36.0138 8.73278 35.8546C10.9227 35.1248 11.0028 34.5409 9.18678 32.7495C8.67937 32.0197 8.17196 31.2766 7.66455 30.5467C7.23726 29.3923 6.98355 28.1317 6.36932 27.0833C3.97916 22.9963 2.25664 18.7102 1.82934 13.9597C1.77593 13.2962 1.28188 12.6725 0.988113 12.0356C0.988113 10.9475 0.988113 9.85936 0.988113 8.77125C1.29523 7.9618 1.78929 7.17889 1.8694 6.3429C2.05634 4.27284 2.87087 2.60087 4.43315 1.24736C6.60967 1.16774 8.77284 1.07486 10.9494 0.995239C13.1793 1.73834 15.4493 2.37528 17.6124 3.25108C19.6154 4.06053 21.4981 5.17518 23.4476 6.10405C25.5173 7.09927 27.2265 8.85087 29.4164 9.12953C31.1122 8.04142 30.4312 6.71445 30.4312 5.53346C30.5247 5.17518 30.6181 4.8169 30.7116 4.45861C31.2858 4.25957 31.8466 4.06053 32.4208 3.86148C32.9549 3.72879 33.489 3.59609 34.0231 3.47666C34.7041 3.46339 35.3851 3.43685 36.0795 3.42358C36.4934 3.43685 36.894 3.46339 37.3079 3.47666L37.3613 3.5032ZM34.1834 52.9326C32.3807 51.181 31.9801 51.1943 30.5247 53.1184C30.9075 54.6754 32.0781 55.529 34.0365 55.6794C35.4919 56.0642 36.9474 56.4491 38.4029 56.8339C38.7901 56.887 39.164 56.94 39.5512 57.0064C40.2456 57.0462 40.9399 57.0727 41.6476 57.1125C43.1698 58.1476 44.6654 58.1476 46.1475 57.0064C50.0021 56.4933 53.4026 57.5018 56.3491 60.0319C57.5776 61.0934 58.7393 62.2479 60.0612 63.1502C60.5019 63.4422 61.5968 63.3227 62.0241 62.9512C62.398 62.6194 62.5849 61.4119 62.3045 61.0934C60.7422 59.3684 59.0865 57.6831 57.2972 56.1837C54.3596 53.7022 53.999 53.1449 55.7082 49.8408C58.4989 44.44 59.0731 38.8535 57.8981 33.0016C57.6711 32.431 57.5909 31.5021 57.2037 31.3429C56.4159 31.0244 55.9886 31.7012 55.8951 32.4841C55.6281 34.7797 55.3877 37.0754 55.0806 39.3578C54.64 42.569 53.7453 45.6078 51.689 48.2219C50.8878 48.2352 50.0866 48.2617 49.2988 48.275C47.2024 46.2712 45.1194 44.2277 42.9829 42.2505C41.1536 40.552 40.6996 38.7208 41.7945 36.3986C43.6238 32.5372 44.2648 28.4501 43.5704 24.2038C43.023 22.4788 42.7025 22.4257 41.4073 23.7659C41.1669 24.8275 40.98 25.8891 40.6862 26.9374C40.1387 28.8482 39.6447 30.7988 38.8836 32.6301C38.2293 34.2091 36.7605 34.4347 35.2382 33.5324C33.3021 32.3912 32.4608 30.7856 32.7412 28.5297C33.1018 25.637 33.3955 22.7309 32.3807 19.8912C32.8481 18.9093 32.4475 18.1263 31.8065 17.3965C31.7131 16.4013 31.2457 15.6051 30.1909 15.6847C29.0425 15.7643 28.6019 16.4013 29.4431 17.4496C29.6434 18.5908 29.8437 19.7187 30.044 20.8599C29.9639 22.0011 29.8837 23.1423 29.817 24.2835C28.7621 24.1508 27.7206 24.0048 26.6657 23.8721C24.2889 21.0457 21.8987 18.2325 19.5219 15.4061C19.6554 13.7872 18.6673 12.7123 17.4789 11.9294C16.2237 11.1067 15.5561 11.7835 15.3959 13.1237C15.743 13.5218 16.0769 13.9066 16.424 14.3047L16.3706 14.2649C15.9567 15.8705 16.9982 16.9453 17.786 18.0998C19.5753 20.7537 21.3913 23.3811 23.1806 26.0218C22.7934 26.4729 22.4195 26.9374 22.0322 27.3885C20.9507 27.2559 19.8691 27.1099 18.7875 26.9772C18.3335 26.6056 17.8929 26.2208 17.4389 25.8493C17.1317 26.3403 16.8246 26.8312 16.5175 27.3222C16.384 28.2378 16.5576 29.1534 17.4789 29.4719C18.9077 29.9761 20.4032 30.2813 21.872 30.6662C22.8201 31.7145 23.9818 31.7808 25.2369 31.3562C27.547 31.3827 29.3096 32.3912 30.6716 34.2224C31.7131 35.629 32.8347 36.9825 33.9163 38.3625C33.6225 39.1056 33.3421 39.8355 33.0484 40.5786C29.6834 40.6184 26.3185 40.6582 22.9536 40.6847C22.1791 39.4108 20.9907 39.2516 19.7088 39.5966C19.2682 39.716 18.6139 40.2336 18.6273 40.552C18.654 41.1492 18.9611 41.8525 19.3884 42.2638C19.6821 42.5557 20.3898 42.4363 20.9106 42.5027C22.326 42.9406 23.7548 43.3785 25.1702 43.8164C26.8927 45.3026 28.8556 44.9974 30.8451 44.586C31.8333 44.586 32.808 44.5727 33.7961 44.5595C34.624 44.4002 35.4385 44.241 36.2664 44.0818C36.9474 44.0021 37.6284 43.9225 38.3094 43.8562C38.7634 44.1083 39.2307 44.3471 39.6847 44.5993C41.9147 46.7755 44.1313 48.9384 46.3612 51.1147C46.4547 51.6853 46.5481 52.2559 46.6416 52.8265C44.9057 53.0918 43.1832 53.5165 41.4473 53.5961C38.977 53.7022 36.4934 53.5563 34.0231 53.5165L34.2635 53.2776L34.17 52.9459L34.1834 52.9326Z" fill="#EE541E"/>
<path d="M30.4713 5.55996C30.4713 6.74095 31.1523 8.06792 29.4564 9.15603C27.2666 8.87737 25.5574 7.1125 23.4877 6.13055C21.5382 5.18841 19.6554 4.08703 17.6525 3.27758C15.4893 2.40178 13.2193 1.76484 10.9894 1.02174C10.936 0.703269 10.9093 0.398067 10.9093 0.0795956C13.7401 -0.278685 16.197 0.942122 18.7074 1.89754C20.0427 2.41505 21.418 2.97238 22.5664 3.79509C24.8631 5.42726 27.2132 5.36091 29.6968 4.49839C29.9639 4.85667 30.2176 5.21495 30.4846 5.57323L30.4713 5.55996Z" fill="#E3ACAB"/>
<path d="M6.75656 45.8334C7.10374 45.913 7.54438 45.8865 7.81144 46.0855C11.123 48.5006 14.7549 49.9868 18.8943 50.4379C20.2697 50.5839 21.6717 51.327 22.8334 52.1365C23.4209 52.5478 23.7147 53.7023 23.688 54.5117C23.6747 54.9762 22.7533 55.4141 22.2325 55.8652C22.1524 53.4236 20.737 52.2559 18.4136 52.2028C14.8083 52.1099 11.7505 50.5972 8.77285 48.819C7.67791 48.1688 6.70315 47.3196 6.76991 45.8334H6.75656Z" fill="#E37378"/>
<path d="M1.02817 12.0488C1.32194 12.6858 1.80264 13.3094 1.86941 13.9729C2.2967 18.7367 4.01922 23.0095 6.40938 27.0966C7.02362 28.1449 7.27732 29.3922 7.70461 30.56C6.95685 30.1221 5.92868 29.87 5.51474 29.2197C2.83081 25.0265 1.24182 20.3822 0.160238 15.5653C-0.120172 14.3445 -0.120172 13.0042 1.02817 12.0488Z" fill="#E3ACAB"/>
<path d="M21.7385 65.7776C22.4195 65.9103 23.2207 65.8705 23.7548 66.2155C27.3467 68.5509 31.0855 70.5016 35.2916 71.5101C35.7056 71.6162 35.9993 72.2399 36.3332 72.6247C33.9029 73.5536 31.7264 72.4655 29.6834 71.5233C26.679 70.1566 23.3275 69.1083 21.7251 65.7776H21.7385Z" fill="#E37378"/>
<path d="M52.6771 72.0011C56.7898 69.4666 61.2363 69.4666 65.7763 70.3158C66.3905 70.4353 66.8845 71.1518 67.4454 71.5897C65.6561 71.7091 63.8668 71.802 62.0775 71.948C59.5805 72.1603 57.0835 72.4655 54.5732 72.6115C53.959 72.6513 53.3047 72.2134 52.6771 72.0011Z" fill="#E3ACAB"/>
<path d="M4.47322 1.2606C2.91093 2.6141 2.08305 4.28608 1.90947 6.35614C1.82935 7.17886 1.33529 7.97504 1.02818 8.78448C-0.974754 6.59499 0.654296 4.49839 1.26853 2.41506C1.70917 0.915589 2.84417 0.14595 4.48657 0.265376C4.48657 0.597117 4.47322 0.928858 4.47322 1.2606Z" fill="#E3ACAB"/>
<path d="M18.7741 56.6481C16.7044 57.63 16.7178 57.63 17.2119 59.647C17.332 60.1513 17.3587 60.6821 17.4389 61.2128C15.1155 60.2707 14.4879 58.3731 14.3276 56.0775C16.1169 54.8567 17.4522 55.6927 18.7875 56.6481H18.7741Z" fill="#E37378"/>
<path d="M2.76404 36.1465C4.43315 38.4554 4.52662 41.2288 5.10079 43.8561C2.47028 41.5472 1.92281 39.7956 2.76404 36.1465Z" fill="#E3ACAB"/>
<path d="M80.0905 44.6788C80.4644 42.1841 79.69 39.5435 81.1588 37.208C82.8412 39.716 81.5727 42.1841 81.0252 44.6523C80.7181 44.6788 80.411 44.6921 80.0905 44.6788Z" fill="#E37378"/>
<path d="M71.3444 20.8068C69.1946 20.223 67.2317 19.3339 65.843 17.5027C68.2999 17.569 70.5699 17.9539 71.3444 20.8068Z" fill="#E3ACAB"/>
<path d="M80.0905 44.6789C80.3977 44.6789 80.7048 44.6789 81.0252 44.6523C80.7582 46.8949 80.8249 49.31 78.1544 50.3716C78.8087 48.474 79.4496 46.5764 80.0905 44.6789Z" fill="#E3ACAB"/>
<path d="M79.6232 31.0908C78.6484 29.5117 77.6737 27.9326 76.6989 26.3535C79.4095 27.4549 79.6232 27.7866 79.6232 31.0908Z" fill="#E3ACAB"/>
<path d="M47.0956 7.81581C45.8271 6.92675 44.5719 6.03768 43.3034 5.16188C46.0007 4.79033 46.3211 5.00265 47.0956 7.81581Z" fill="#E3ACAB"/>
<path d="M9.22684 32.7627C11.0428 34.5541 10.9627 35.138 8.77285 35.8678C8.3322 35.4697 7.90491 35.0849 7.46426 34.6868C8.05179 34.0498 8.63932 33.4129 9.22684 32.7627Z" fill="#E3ACAB"/>
<path d="M71.6248 59.1295C71.7183 57.232 72.7999 56.1571 74.5624 55.6263C74.6025 57.6301 73.561 58.758 71.6248 59.1295Z" fill="#E3ACAB"/>
<path d="M58.1785 19.6921C58.2452 20.6741 57.8447 21.3774 56.8699 21.603C55.6681 21.8816 54.8937 21.311 54.5198 20.1698C55.7349 20.0106 56.95 19.8514 58.1785 19.6921Z" fill="#E3ACAB"/>
<path d="M4.47321 1.26067C4.47321 0.928933 4.47321 0.597192 4.48656 0.265451C6.62302 0.199103 8.75948 0.132754 10.8959 0.0664062C10.8959 0.384878 10.936 0.703349 10.9761 1.00855C8.79954 1.08817 6.63637 1.18106 4.45985 1.26067H4.47321Z" fill="#E37378"/>
<path d="M50.5273 11.9958C49.2053 11.3456 48.4309 10.284 48.1371 8.86414C50.2335 9.47454 50.2736 9.52762 50.5273 11.9958Z" fill="#E3ACAB"/>
<path d="M51.9694 14.7691C51.4887 13.8402 51.0213 12.9246 50.5406 11.9957C51.7602 12.5531 52.2364 13.4775 51.9694 14.7691Z" fill="#E3ACAB"/>
<path d="M54.3863 20.0106C53.3047 19.44 52.8106 18.5775 53.0376 17.3434C54.3863 17.7813 54.867 18.6571 54.3863 20.0106Z" fill="#E3ACAB"/>
<path d="M76.0046 53.6624C75.9111 52.362 76.5253 51.5393 77.7404 51.1279C77.9808 52.5345 77.42 53.3838 76.0046 53.6624Z" fill="#E3ACAB"/>
<path d="M68.9409 63.3891C68.3534 61.9427 68.4468 61.7569 70.0625 60.974C70.2495 62.0356 69.929 62.8583 68.9409 63.3891Z" fill="#E3ACAB"/>
<path d="M59.0865 15.7245L58.7126 15.7908L58.3521 15.6714C58.6592 14.0392 59.5405 14.3312 60.5419 15.0345C60.0612 15.2601 59.5672 15.4989 59.0865 15.7245Z" fill="#E3ACAB"/>
<path d="M7.4509 34.6868C7.89155 35.0849 8.31884 35.4697 8.75948 35.8678C7.79808 36.0271 7.03696 35.7484 6.55626 34.8726C6.83667 34.7134 7.13043 34.647 7.4509 34.6868Z" fill="#E37378"/>
<path d="M74.7894 74.8142C74.8829 74.2436 74.9897 73.673 75.0832 73.1024C76.0313 74.3232 76.0046 74.4692 74.7894 74.8142Z" fill="#E3ACAB"/>
<path d="M4.4198 33.6651C4.00586 33.7181 3.59192 33.7579 3.17798 33.811C3.49845 32.9485 3.91239 32.9352 4.4198 33.6651Z" fill="#E3ACAB"/>
<path d="M59.0865 15.7246C59.5672 15.499 60.0612 15.2734 60.5419 15.0345C60.7556 15.1805 60.8891 15.3796 60.9292 15.6317C60.3149 15.6582 59.7007 15.6848 59.0865 15.7246Z" fill="#E37378"/>
<path d="M30.4713 5.55995C30.2042 5.20167 29.9505 4.84339 29.6834 4.48511C30.044 4.48511 30.4045 4.48511 30.765 4.48511C30.6716 4.84339 30.5781 5.20167 30.4846 5.55995H30.4713Z" fill="#E37378"/>
<path d="M34.0765 3.50317C33.5424 3.63587 33.0083 3.76857 32.4742 3.88799C33.0083 3.7553 33.5424 3.6226 34.0765 3.50317Z" fill="#E37378"/>
<path d="M29.8036 24.2702C29.8837 23.129 29.9638 21.9878 30.0306 20.8466C30.8051 20.5282 31.5929 20.2097 32.3674 19.8912C33.3688 22.7309 33.0884 25.637 32.7279 28.5298C32.4475 30.7856 33.2754 32.3912 35.2249 33.5324C36.7338 34.4215 38.2159 34.2092 38.8702 32.6301C39.6313 30.7989 40.112 28.8482 40.6729 26.9374C40.9666 25.9024 41.1669 24.8275 41.3939 23.766C42.115 23.9119 42.836 24.0579 43.5571 24.1906C44.2514 28.4369 43.6105 32.5239 41.7811 36.3854C40.6862 38.7076 41.1402 40.5521 42.9695 42.2373C45.106 44.2145 47.1757 46.2447 49.2855 48.2617C49.6994 48.7129 50.1 49.1641 50.5139 49.6152C50.9012 49.1508 51.2884 48.6731 51.6756 48.2086C53.7186 45.5945 54.6266 42.5558 55.0673 39.3445C55.3744 37.0621 55.6147 34.7665 55.8818 32.4709C56.5494 32.6434 57.2171 32.8159 57.8847 32.9884C59.0598 38.8403 58.4856 44.4401 55.6948 49.8275C53.9857 53.145 54.3462 53.689 57.2838 56.1704C59.0731 57.6699 60.7289 59.3551 62.2912 61.0802C62.5849 61.3987 62.398 62.6062 62.0107 62.9379C61.5835 63.2962 60.4885 63.4289 60.0479 63.137C58.7126 62.2347 57.5642 61.0669 56.3358 60.0186C53.3892 57.4885 49.9887 56.4801 46.1342 56.9931C44.6387 57.033 43.1431 57.0728 41.6343 57.0993C40.9399 57.0595 40.2456 57.033 39.5379 56.9931C39.1506 56.9401 38.7767 56.887 38.3895 56.8206C36.934 56.4358 35.4786 56.051 34.0231 55.6662C34.0231 54.9364 34.0231 54.2198 34.0231 53.49C36.5068 53.5298 38.977 53.6757 41.4473 53.5696C43.1832 53.49 44.9057 53.0653 46.6282 52.7999C47.4294 52.0966 47.2158 51.5393 46.3478 51.0882C44.1179 48.9119 41.9013 46.749 39.6714 44.5728C39.2174 44.3206 38.75 44.0818 38.296 43.8297C37.615 43.9093 36.934 43.9889 36.2531 44.0553C35.4252 44.2145 34.6106 44.3737 33.7828 44.533C32.7947 44.533 31.8199 44.5462 30.8318 44.5595C29.0559 43.4581 27.1197 43.5775 25.1568 43.7899C23.7414 43.352 22.3127 42.9141 20.8972 42.4762C21.5782 41.8658 22.2592 41.2686 22.9402 40.6582C26.3052 40.6184 29.6701 40.5786 33.035 40.5521C33.6492 40.3265 34.5572 40.2867 34.8109 39.8488C35.1848 39.2251 34.7308 38.5351 33.9029 38.336C32.8214 36.956 31.6997 35.6025 30.6582 34.1959C29.2962 32.3647 27.5203 31.3562 25.2236 31.3297C24.2622 30.3477 23.0871 30.3743 21.8587 30.6396C22.2592 29.724 22.6732 28.8084 23.0738 27.8928C23.6079 27.7203 24.142 27.5611 24.6761 27.3886C25.277 26.9374 25.8779 26.4995 26.4787 26.0483C29.2695 26.5261 29.3229 26.4862 29.8036 24.2569V24.2702Z" fill="#D7D9E4"/>
<path d="M26.4788 26.0616C25.8779 26.5127 25.277 26.9506 24.6761 27.4018C24.1821 26.9374 23.6747 26.4729 23.1806 26.0085C21.378 23.3678 19.562 20.7404 17.7727 18.0865C16.9849 16.9321 15.9433 15.8439 16.3573 14.2516C17.3988 14.6364 18.4537 15.0212 19.4952 15.406C21.872 18.2325 24.2622 21.0456 26.639 23.8721C26.5856 24.6019 26.5322 25.345 26.4654 26.0748L26.4788 26.0616Z" fill="#E3ACAB"/>
<path d="M23.0871 27.906C22.6865 28.8216 22.2726 29.7372 21.872 30.6528C20.4032 30.268 18.9077 29.9628 17.4789 29.4586C16.5576 29.1268 16.384 28.2245 16.5175 27.3089C17.2786 27.1895 18.0264 27.0833 18.7875 26.9639C19.8691 27.0966 20.9507 27.2425 22.0322 27.3752C22.3794 27.5477 22.7399 27.7202 23.1005 27.906H23.0871Z" fill="#E3ACAB"/>
<path d="M19.5085 15.3928C18.467 15.0079 17.4121 14.6231 16.3706 14.2383L16.424 14.2781C16.0769 13.88 15.743 13.4952 15.3959 13.0971C15.5561 11.7569 16.2237 11.0801 17.4789 11.9028C18.6673 12.6857 19.6421 13.7473 19.5219 15.3795L19.5085 15.3928Z" fill="#E37378"/>
<path d="M22.9669 40.6848C22.2859 41.2952 21.6049 41.8923 20.9239 42.5027C20.4032 42.4364 19.7088 42.5558 19.4151 42.2638C18.9878 41.8525 18.6807 41.1492 18.654 40.5521C18.654 40.2336 19.2949 39.7161 19.7355 39.5967C21.0174 39.2516 22.2058 39.4109 22.9803 40.6848H22.9669Z" fill="#E3ACAB"/>
<path d="M32.3674 19.8911C31.5929 20.2096 30.8051 20.5281 30.0306 20.8466C29.8303 19.7054 29.63 18.5774 29.4297 17.4363C30.2176 17.423 31.0054 17.3964 31.7932 17.3832C32.4208 18.113 32.8214 18.9092 32.3674 19.8779V19.8911Z" fill="#E3ACAB"/>
<path d="M26.4787 26.0615C26.5322 25.3317 26.5856 24.5886 26.6523 23.8588C27.7072 23.9915 28.7621 24.1374 29.8036 24.2701C29.3229 26.4994 29.2695 26.526 26.4787 26.0615Z" fill="#E37378"/>
<path d="M31.7932 17.3965C31.0054 17.4097 30.2175 17.4363 29.4297 17.4496C28.5885 16.4013 29.0291 15.7643 30.1775 15.6847C31.2457 15.6051 31.7131 16.4013 31.7932 17.3965Z" fill="#E37378"/>
<path d="M34.0365 53.5032C34.0365 54.233 34.0365 54.9496 34.0365 55.6794C32.0781 55.529 30.9075 54.6754 30.5247 53.1184C31.7398 53.052 32.9682 52.999 34.1834 52.9326L34.2768 53.2644L34.0365 53.5032Z" fill="#E3ACAB"/>
<path d="M34.1834 52.9326C32.9682 52.999 31.7398 53.0653 30.5247 53.1184C31.9801 51.1943 32.3807 51.181 34.1834 52.9326Z" fill="#E37378"/>
<path d="M25.1835 43.803C27.133 43.5907 29.0826 43.4713 30.8585 44.5727C28.8823 44.984 26.906 45.276 25.1835 43.803Z" fill="#E37378"/>
<path d="M18.7741 26.9639C18.013 27.0833 17.2653 27.1894 16.5042 27.3089C16.8113 26.8179 17.1184 26.3269 17.4255 25.8359C17.8795 26.2075 18.3201 26.5923 18.7741 26.9639Z" fill="#E37378"/>
<path d="M57.8714 32.9883C57.2037 32.8158 56.5361 32.6432 55.8684 32.4707C55.9619 31.6878 56.4025 31.0111 57.177 31.3296C57.5642 31.4888 57.6444 32.4044 57.8714 32.9883Z" fill="#E37378"/>
<path d="M51.6623 48.2219C51.275 48.6864 50.8878 49.1641 50.5006 49.6285C50.0866 49.1773 49.686 48.7262 49.2721 48.275C50.0733 48.2617 50.8745 48.2352 51.6623 48.2219Z" fill="#E37378"/>
<path d="M41.6343 57.0992C43.1298 57.0594 44.6253 57.0196 46.1342 56.993C44.6654 58.1342 43.1698 58.1475 41.6343 57.0992Z" fill="#E37378"/>
<path d="M33.9297 38.3492C34.7575 38.5616 35.2115 39.2383 34.8377 39.862C34.5839 40.2866 33.676 40.3397 33.0617 40.5653C33.3555 39.8222 33.6359 39.0923 33.9297 38.3492Z" fill="#E37378"/>
<path d="M21.872 30.6529C23.1005 30.3743 24.2755 30.361 25.2369 31.3429C23.9818 31.7676 22.8201 31.7145 21.872 30.6529Z" fill="#E3ACAB"/>
<path d="M43.5437 24.2038C42.8227 24.0578 42.1016 23.9118 41.3806 23.7792C42.6891 22.4256 42.9963 22.492 43.5437 24.2038Z" fill="#E3ACAB"/>
<path d="M23.0871 27.9061C22.7266 27.7336 22.3794 27.5478 22.0189 27.3753C22.4061 26.9241 22.78 26.4597 23.1672 26.0085C23.6746 26.473 24.1687 26.9374 24.6761 27.4019C24.142 27.5611 23.6079 27.7336 23.0738 27.9061H23.0871Z" fill="#E37378"/>
<path d="M38.3895 56.8339C38.7767 56.8869 39.1506 56.94 39.5379 57.0064C39.1506 56.9533 38.7767 56.9002 38.3895 56.8339Z" fill="#E37378"/>
<path d="M46.3745 51.1013C47.2291 51.5525 47.4561 52.0965 46.6549 52.8131C46.5615 52.2425 46.468 51.6719 46.3745 51.1013Z" fill="#E37378"/>
</g>
<defs>
<clipPath id="clip0_5_2321">
<rect width="82" height="75" fill="white"/>
</clipPath>
</defs>
</svg>
