<svg width="41" height="37" viewBox="0 0 41 37" fill="none" xmlns="http://www.w3.org/2000/svg">
<path d="M20.5001 1.31726e-05C19.836 1.31726e-05 19.2989 0.484983 19.2989 1.084C19.2989 1.68301 19.836 2.16798 20.5001 2.16798C30.4354 2.16798 38.5976 9.46143 38.5976 18.4272C38.5976 19.0265 39.135 19.5111 39.7988 19.5111C40.4626 19.5111 41 19.0265 41 18.4272C41 8.26623 31.7598 1.31726e-05 20.5001 1.31726e-05Z" fill="white"/>
<path d="M34.994 19.5111C35.6581 19.5111 36.1952 19.0265 36.1952 18.4272C36.1952 10.6575 29.11 4.33594 20.5001 4.33594C19.836 4.33594 19.2989 4.82063 19.2989 5.41993C19.2989 6.01894 19.836 6.50363 20.5001 6.50363C27.7855 6.50363 33.7928 11.8527 33.7928 18.4272C33.7928 19.0265 34.3302 19.5111 34.994 19.5111Z" fill="white"/>
<path d="M20.5001 8.67159C19.836 8.67159 19.2989 9.15656 19.2989 9.75558C19.2989 10.3549 19.836 10.8396 20.5001 10.8396C25.1357 10.8396 28.9883 14.2439 28.9883 18.4272C28.9883 19.0265 29.5254 19.5111 30.1895 19.5111C30.8533 19.5111 31.3907 19.0265 31.3907 18.4272C31.3907 13.0476 26.4614 8.67159 20.5001 8.67159Z" fill="white"/>
<path d="M14.405 9.97576C14.7594 9.65819 14.8589 9.17661 14.6571 8.76588L10.6897 0.644475C10.4516 0.158658 9.86041 -0.0996342 9.28578 0.0358637L2.20995 1.93707C1.43574 2.11293 0.797598 2.55217 0.4119 3.17151C-0.0351097 3.89021 -0.12301 4.79523 0.171347 5.65366C4.80317 19.2283 18.9436 32.4591 34.7325 36.8433C36.5168 37.3443 38.3993 36.6206 38.8532 35.0056L40.959 28.6406C41.1114 28.1263 40.8264 27.5874 40.2868 27.3714L31.2909 23.8476C30.837 23.6633 30.2962 23.7556 29.9443 24.0794C28.1975 25.6896 26.8921 26.8633 26.4523 27.219V27.2179C21.787 24.461 13.9789 17.4338 10.8376 13.1281C11.396 12.5957 13.4174 10.8576 14.405 9.97576Z" fill="white"/>
</svg>
