<svg width="26" height="25" viewBox="0 0 26 25" fill="none" xmlns="http://www.w3.org/2000/svg">
<path d="M24.1159 17.1494V22.3337C24.1199 22.7149 24.041 23.0924 23.8846 23.4402C23.7282 23.7881 23.498 24.0981 23.2098 24.3488C22.9217 24.5996 22.5824 24.7851 22.2154 24.8927C21.8484 25.0003 21.4623 25.0274 21.0837 24.9721C15.8364 24.3005 10.9625 21.9086 7.22993 18.1731C3.4974 14.4376 1.11846 9.57104 0.467934 4.34011C0.412617 3.96407 0.439492 3.58057 0.546722 3.21585C0.653953 2.85112 0.839006 2.51378 1.08922 2.22691C1.33943 1.94004 1.6489 1.71042 1.99643 1.55375C2.34397 1.39708 2.72139 1.31706 3.10284 1.31918H8.227C8.55433 1.3172 8.87079 1.4361 9.11531 1.65291C9.35983 1.86973 9.51507 2.1691 9.55107 2.49325C9.68246 4.22214 10.1313 5.91231 10.8751 7.47976C11.0027 7.77661 11.0165 8.10976 10.9141 8.41611C10.8116 8.72245 10.5999 8.9807 10.319 9.14192L9.18033 9.78832C9.0162 9.87826 8.87309 10.0019 8.76045 10.151C8.64782 10.3001 8.56822 10.4713 8.52692 10.6534C8.48563 10.8354 8.48357 11.0241 8.52088 11.207C8.5582 11.3899 8.63403 11.5628 8.74339 11.7143C10.0533 13.6261 11.7104 15.277 13.6292 16.5821C13.7813 16.6911 13.9549 16.7666 14.1384 16.8038C14.322 16.841 14.5114 16.8389 14.6941 16.7978C14.8768 16.7566 15.0487 16.6773 15.1983 16.5651C15.348 16.4529 15.4721 16.3103 15.5624 16.1468L16.2112 15.0123C16.3826 14.7288 16.6548 14.52 16.9737 14.4271C17.2925 14.3342 17.6347 14.3642 17.9325 14.511C19.5057 15.2521 21.2022 15.6993 22.9374 15.8302C23.2628 15.866 23.5633 16.0207 23.7809 16.2643C23.9985 16.5079 24.1179 16.8232 24.1159 17.1494Z" fill="#231F20"/>
<path d="M24.1159 10.5534C23.7647 10.5534 23.4279 10.4145 23.1796 10.1671C22.9313 9.91967 22.7918 9.58414 22.7918 9.23427C22.7918 7.48492 22.0943 5.80723 20.8527 4.57026C19.6112 3.33329 17.9273 2.63836 16.1714 2.63836C15.8203 2.63836 15.4835 2.49938 15.2352 2.25198C14.9869 2.00459 14.8474 1.66905 14.8474 1.31918C14.8474 0.969312 14.9869 0.633774 15.2352 0.386379C15.4835 0.138985 15.8203 0 16.1714 0C18.6296 0 20.9871 0.972893 22.7253 2.70465C24.4634 4.43641 25.4399 6.78519 25.4399 9.23427C25.4399 9.58414 25.3004 9.91967 25.0521 10.1671C24.8038 10.4145 24.467 10.5534 24.1159 10.5534Z" fill="#231F20"/>
<path d="M18.8196 10.5534C18.4684 10.5534 18.1316 10.4145 17.8833 10.1671C17.635 9.91967 17.4955 9.58414 17.4955 9.23427C17.4955 8.8844 17.356 8.54886 17.1077 8.30147C16.8594 8.05407 16.5226 7.91509 16.1714 7.91509C15.8203 7.91509 15.4835 7.7761 15.2352 7.52871C14.9869 7.28131 14.8474 6.94577 14.8474 6.5959C14.8474 6.24604 14.9869 5.9105 15.2352 5.6631C15.4835 5.41571 15.8203 5.27672 16.1714 5.27672C17.2249 5.27672 18.2353 5.69368 18.9802 6.43586C19.7252 7.17804 20.1437 8.18466 20.1437 9.23427C20.1437 9.58414 20.0042 9.91967 19.7558 10.1671C19.5075 10.4145 19.1707 10.5534 18.8196 10.5534Z" fill="#231F20"/>
</svg>
