<svg width="114" height="103" viewBox="0 0 114 103" fill="none" xmlns="http://www.w3.org/2000/svg">
<path d="M87 49.5H86V50.5H87V49.5ZM26.25 49.5H25.25V50.5H26.25V49.5ZM103.875 50.5C108.807 50.5 113 54.6929 113 59.625H115C115 53.5883 109.912 48.5 103.875 48.5V50.5ZM113 59.625V86.625H115V59.625H113ZM113 86.625C113 91.7545 108.821 95.75 103.875 95.75V97.75C109.898 97.75 115 92.8861 115 86.625H113ZM103.875 95.75H76.875V97.75H103.875V95.75ZM76.875 95.75C71.732 95.75 67.75 91.768 67.75 86.625H65.75C65.75 92.8726 70.6274 97.75 76.875 97.75V95.75ZM67.75 86.625V36H65.75V86.625H67.75ZM67.75 36C67.75 17.9857 82.2829 3.25 100.5 3.25V1.25C81.1702 1.25 65.75 16.8893 65.75 36H67.75ZM100.5 3.25H102.188V1.25H100.5V3.25ZM102.188 3.25C104.377 3.25 106.25 5.1226 106.25 7.3125H108.25C108.25 4.01803 105.482 1.25 102.188 1.25V3.25ZM106.25 7.3125V17.4375H108.25V7.3125H106.25ZM106.25 17.4375C106.25 19.8112 104.405 21.5 102.188 21.5V23.5C105.454 23.5 108.25 20.97 108.25 17.4375H106.25ZM102.188 21.5H100.5V23.5H102.188V21.5ZM100.5 21.5C92.3438 21.5 86 28.0751 86 36H88C88 29.1593 93.4687 23.5 100.5 23.5V21.5ZM86 36V49.5H88V36H86ZM87 50.5H103.875V48.5H87V50.5ZM43.125 50.5C48.0571 50.5 52.25 54.6929 52.25 59.625H54.25C54.25 53.5883 49.1617 48.5 43.125 48.5V50.5ZM52.25 59.625V86.625H54.25V59.625H52.25ZM52.25 86.625C52.25 91.7545 48.0707 95.75 43.125 95.75V97.75C49.148 97.75 54.25 92.8861 54.25 86.625H52.25ZM43.125 95.75H16.125V97.75H43.125V95.75ZM16.125 95.75C10.982 95.75 7 91.768 7 86.625H5C5 92.8726 9.8774 97.75 16.125 97.75V95.75ZM7 86.625V36H5V86.625H7ZM7 36C7 17.9857 21.5329 3.25 39.75 3.25V1.25C20.4202 1.25 5 16.8893 5 36H7ZM39.75 3.25H41.4375V1.25H39.75V3.25ZM41.4375 3.25C43.6274 3.25 45.5 5.1226 45.5 7.3125H47.5C47.5 4.01803 44.732 1.25 41.4375 1.25V3.25ZM45.5 7.3125V17.4375H47.5V7.3125H45.5ZM45.5 17.4375C45.5 19.8112 43.6549 21.5 41.4375 21.5V23.5C44.7044 23.5 47.5 20.97 47.5 17.4375H45.5ZM41.4375 21.5H39.75V23.5H41.4375V21.5ZM39.75 21.5C31.5938 21.5 25.25 28.0751 25.25 36H27.25C27.25 29.1593 32.7187 23.5 39.75 23.5V21.5ZM25.25 36V49.5H27.25V36H25.25ZM26.25 50.5H43.125V48.5H26.25V50.5Z" fill="white"/>
<path d="M97.875 53.5C103.359 53.5 108 58.1406 108 63.625V90.625C108 96.3203 103.359 100.75 97.875 100.75H70.875C65.1797 100.75 60.75 96.3203 60.75 90.625V40C60.75 21.4375 75.7266 6.25 94.5 6.25H96.1875C98.9297 6.25 101.25 8.57031 101.25 11.3125V21.4375C101.25 24.3906 98.9297 26.5 96.1875 26.5H94.5C86.9062 26.5 81 32.6172 81 40V53.5H97.875ZM37.125 53.5C42.6094 53.5 47.25 58.1406 47.25 63.625V90.625C47.25 96.3203 42.6094 100.75 37.125 100.75H10.125C4.42969 100.75 0 96.3203 0 90.625V40C0 21.4375 14.9766 6.25 33.75 6.25H35.4375C38.1797 6.25 40.5 8.57031 40.5 11.3125V21.4375C40.5 24.3906 38.1797 26.5 35.4375 26.5H33.75C26.1562 26.5 20.25 32.6172 20.25 40V53.5H37.125Z" fill="white" fill-opacity="0.85"/>
</svg>
