<svg width="59" height="49" viewBox="0 0 59 49" fill="none" xmlns="http://www.w3.org/2000/svg">
<path d="M29.3595 0.0201099C29.6595 0.0201098 29.9395 0.180113 30.0895 0.460112C30.1295 0.540114 31.1395 2.45011 29.5095 5.05011C28.7495 6.26011 27.7595 9.03011 26.8895 11.4801C26.2595 13.2601 25.6595 14.9401 25.1695 15.9501C25.2195 15.9501 25.2895 15.9501 25.3595 15.9501C26.0595 15.9501 27.0895 15.7801 28.1895 15.6101C29.5395 15.3901 30.9395 15.1701 32.1395 15.1701C45.8995 15.1701 51.4995 15.0201 53.7795 14.8901C54.2395 14.8601 54.6595 14.8501 55.0395 14.8501C56.5695 14.8501 58.6295 15.0001 58.8995 16.3401C58.9895 16.8101 58.8995 17.7101 57.2095 18.4401C56.2395 18.8501 53.7395 20.3001 51.5395 21.5701C49.2895 22.8701 47.3495 23.9901 46.6195 24.2801C45.8695 24.5801 45.7395 24.7501 45.7195 24.7901C45.7195 24.7901 45.8095 25.3601 47.8795 26.6901C48.9895 27.4001 50.3095 28.2101 51.5795 28.9901C57.0395 32.3301 57.3595 32.5801 57.1195 33.4201C57.0295 33.7201 56.7395 34.0801 56.1995 34.0801C56.1195 34.0801 56.0295 34.0801 55.9095 34.0501C54.8995 33.8801 49.6395 33.7501 45.8095 33.6601C43.4395 33.6001 41.3995 33.5501 40.4395 33.5001C39.3595 33.4501 37.1895 33.5801 34.8895 33.7301C31.5395 33.9401 28.0495 34.1401 26.7195 33.9001C25.7995 33.7401 25.1795 33.6301 24.7895 33.6101C25.0495 34.9101 28.3495 44.1701 29.3995 46.0101C30.1095 47.2401 30.2595 47.8901 29.9695 48.3901C29.8195 48.6501 29.4595 48.8601 29.1595 48.8601C28.7795 48.8601 28.2995 48.7001 27.3295 47.5201C26.5595 46.5801 24.7495 44.9401 23.2895 43.6201C22.4595 42.8701 21.7095 42.1901 21.2595 41.7401C20.8795 41.3601 19.2195 40.0701 17.2995 38.5801C13.1095 35.3201 7.3695 30.8701 5.6395 28.7501C4.2995 27.1101 2.7195 26.3801 1.6695 25.8901C0.7595 25.4701 -0.280497 24.9801 0.0695016 23.9301C0.319502 23.1901 1.3195 22.4501 2.9395 21.3201C3.6195 20.8401 4.31951 20.3501 4.7595 19.9601C5.4295 19.3701 5.9795 19.0001 6.5195 18.6401C7.0295 18.3001 7.5095 17.9801 8.0995 17.4601C8.7895 16.8501 9.4995 16.3301 10.1895 15.8301C10.7895 15.3901 11.3595 14.9801 11.8595 14.5401C13.0495 13.5001 14.8795 11.9501 16.3295 10.7701C16.9795 10.2401 17.6195 9.61011 18.2395 9.01011C19.0695 8.19011 19.8595 7.43011 20.6895 6.85011C21.9995 5.93011 22.5095 5.42011 23.6995 3.84011C25.0395 2.06011 28.6095 0.310111 29.0095 0.11011C29.1295 0.0501087 29.2495 0.030112 29.3695 0.030112L29.3595 0.0201099ZM25.3595 17.6301C24.7795 17.6301 23.9695 17.5601 23.5695 16.9101C23.3795 16.6101 23.2395 16.1001 23.6195 15.3601C24.0695 14.4701 24.6795 12.7501 25.3295 10.9301C26.2795 8.28011 27.2595 5.53011 28.1095 4.17011C28.6395 3.31011 28.7895 2.61011 28.7895 2.10011C27.5395 2.78011 25.7495 3.89011 25.0395 4.83011C23.7495 6.56011 23.1095 7.19011 21.6495 8.21011C20.9395 8.71011 20.1895 9.44011 19.4095 10.2001C18.7695 10.8301 18.0995 11.4801 17.3895 12.0601C15.9595 13.2301 14.1395 14.7701 12.9595 15.7901C12.4095 16.2801 11.8095 16.7101 11.1795 17.1701C10.5195 17.6501 9.8495 18.1501 9.2195 18.7001C8.5495 19.2901 7.9995 19.6601 7.4595 20.0201C6.9495 20.3601 6.4695 20.6801 5.8795 21.2001C5.3795 21.6501 4.6695 22.1501 3.9195 22.6701C3.31951 23.0901 2.4195 23.7301 1.9495 24.1601C2.0895 24.2301 2.2495 24.3101 2.3995 24.3701C3.5095 24.8901 5.3695 25.7501 6.9495 27.6901C8.5595 29.6501 14.4495 34.2301 18.3395 37.2501C20.6795 39.0701 22.0295 40.1201 22.4595 40.5501C22.8995 40.9801 23.6195 41.6401 24.4295 42.3701C25.2895 43.1501 26.2095 43.9801 27.0095 44.7501C25.5295 41.1701 23.2595 34.7601 23.1295 33.7401C23.0795 33.3701 23.0595 32.8401 23.4395 32.4101C23.8495 31.9401 24.4795 31.9401 24.6895 31.9401C25.2095 31.9401 25.8895 32.0601 26.9095 32.2401C27.3595 32.3201 27.9195 32.3501 28.6695 32.3501C30.3195 32.3501 32.5895 32.2001 34.7895 32.0601C37.1595 31.9101 39.3795 31.7701 40.5395 31.8301C41.4795 31.8801 43.5095 31.9301 45.8595 31.9901C49.0095 32.0701 51.7495 32.1401 53.6495 32.2201C52.7495 31.6501 51.6795 31.0001 50.7195 30.4101C49.4295 29.6201 48.0995 28.8101 46.9795 28.0901C44.8595 26.7301 43.9695 25.6501 44.0695 24.6101C44.1795 23.4601 45.4195 22.9601 46.0095 22.7301C46.6195 22.4901 48.6995 21.2801 50.7095 20.1201C53.0695 18.7601 55.4995 17.3501 56.5595 16.9001C56.7295 16.8301 56.8595 16.7601 56.9695 16.6901C56.5195 16.5701 55.5095 16.4601 53.8795 16.5501C51.5895 16.6801 45.9495 16.8301 32.1495 16.8301C31.0895 16.8301 29.7595 17.0401 28.4695 17.2501C27.2995 17.4401 26.1995 17.6201 25.3695 17.6201L25.3595 17.6301Z" fill="#F11808"/>
</svg>
