<svg width="21" height="17" viewBox="0 0 21 17" fill="none" xmlns="http://www.w3.org/2000/svg">
<path d="M18.5297 4.4375C18.5297 4.63281 18.5297 4.78906 18.5297 4.98438C18.5297 10.4141 14.4281 16.625 6.88906 16.625C4.54531 16.625 2.39688 15.9609 0.6 14.7891C0.9125 14.8281 1.225 14.8672 1.57656 14.8672C3.49063 14.8672 5.24844 14.2031 6.65469 13.1094C4.85781 13.0703 3.33438 11.8984 2.82656 10.2578C3.1 10.2969 3.33438 10.3359 3.60781 10.3359C3.95938 10.3359 4.35 10.2578 4.6625 10.1797C2.7875 9.78906 1.38125 8.14844 1.38125 6.15625V6.11719C1.92813 6.42969 2.59219 6.58594 3.25625 6.625C2.12344 5.88281 1.42031 4.63281 1.42031 3.22656C1.42031 2.44531 1.61563 1.74219 1.96719 1.15625C3.99844 3.61719 7.04531 5.25781 10.4438 5.45312C10.3656 5.14062 10.3266 4.82812 10.3266 4.51562C10.3266 2.25 12.1625 0.414062 14.4281 0.414062C15.6 0.414062 16.6547 0.882812 17.4359 1.70312C18.3344 1.50781 19.2328 1.15625 20.0141 0.6875C19.7016 1.66406 19.0766 2.44531 18.2172 2.95312C19.0375 2.875 19.8578 2.64062 20.5609 2.32812C20.0141 3.14844 19.3109 3.85156 18.5297 4.4375Z" fill="#FFDD5E"/>
</svg>
