<svg width="23" height="15" viewBox="0 0 23 15" fill="none" xmlns="http://www.w3.org/2000/svg">
<path d="M21.7953 2.38281C22.2641 4.02344 22.2641 7.53906 22.2641 7.53906C22.2641 7.53906 22.2641 11.0156 21.7953 12.6953C21.5609 13.6328 20.8188 14.3359 19.9203 14.5703C18.2406 15 11.6 15 11.6 15C11.6 15 4.92031 15 3.24063 14.5703C2.34219 14.3359 1.6 13.6328 1.36563 12.6953C0.896875 11.0156 0.896875 7.53906 0.896875 7.53906C0.896875 7.53906 0.896875 4.02344 1.36563 2.38281C1.6 1.44531 2.34219 0.703125 3.24063 0.46875C4.92031 0 11.6 0 11.6 0C11.6 0 18.2406 0 19.9203 0.46875C20.8188 0.703125 21.5609 1.44531 21.7953 2.38281ZM9.4125 10.7031L14.9594 7.53906L9.4125 4.375V10.7031Z" fill="#FFDD5E"/>
</svg>
